<?xml version="1.0" encoding="utf-8"?>
<!-- Generator: Adobe Illustrator 24.0.0, SVG Export Plug-In . SVG Version: 6.00 Build 0)  -->
<svg version="1.1" id="Layer_2_1_" xmlns="http://www.w3.org/2000/svg" xmlns:xlink="http://www.w3.org/1999/xlink" x="0px" y="0px"
	 viewBox="0 0 193 161.9" style="enable-background:new 0 0 193 161.9;" xml:space="preserve">
<style type="text/css">
	.st0{fill-rule:evenodd;clip-rule:evenodd;fill:#F8F4D0;}
	.st1{fill-rule:evenodd;clip-rule:evenodd;fill:#BECDDE;}
	.st2{fill-rule:evenodd;clip-rule:evenodd;fill:#60ABAA;}
	.st3{fill-rule:evenodd;clip-rule:evenodd;fill:#E66A48;}
	.st4{fill-rule:evenodd;clip-rule:evenodd;fill:#F9744F;}
	.st5{fill-rule:evenodd;clip-rule:evenodd;fill:#FCC6A5;}
	.st6{fill-rule:evenodd;clip-rule:evenodd;fill:#E6A680;}
	.st7{fill-rule:evenodd;clip-rule:evenodd;fill:#396362;}
	.st8{clip-path:url(#SVGID_2_);}
	.st9{fill-rule:evenodd;clip-rule:evenodd;fill:#4B8E8D;}
	.st10{clip-path:url(#SVGID_4_);}
	.st11{fill-rule:evenodd;clip-rule:evenodd;fill:#11222B;}
	.st12{clip-path:url(#SVGID_6_);}
	.st13{fill-rule:evenodd;clip-rule:evenodd;fill:#132731;}
	.st14{fill-rule:evenodd;clip-rule:evenodd;fill:#162D39;}
	.st15{fill-rule:evenodd;clip-rule:evenodd;fill:#5F0000;}
	.st16{clip-path:url(#SVGID_8_);}
	.st17{fill-rule:evenodd;clip-rule:evenodd;fill:#350000;}
	.st18{fill-rule:evenodd;clip-rule:evenodd;fill:#FF9999;}
	.st19{fill-rule:evenodd;clip-rule:evenodd;fill:#FFFFFF;}
	.st20{fill-rule:evenodd;clip-rule:evenodd;fill:#7CB9B8;}
	.st21{fill-rule:evenodd;clip-rule:evenodd;}
	.st22{fill-rule:evenodd;clip-rule:evenodd;fill:#F7A193;}
	.st23{fill-rule:evenodd;clip-rule:evenodd;fill:#224456;}
	.st24{fill-rule:evenodd;clip-rule:evenodd;fill:#F6577D;}
	.st25{clip-path:url(#SVGID_10_);}
	.st26{fill-rule:evenodd;clip-rule:evenodd;fill:#D6385E;}
	.st27{fill-rule:evenodd;clip-rule:evenodd;fill:#417A79;}
	.st28{fill-rule:evenodd;clip-rule:evenodd;fill:#407A79;}
	.st29{clip-path:url(#SVGID_12_);}
	.st30{fill-rule:evenodd;clip-rule:evenodd;fill:#FA9FB5;}
	.st31{clip-path:url(#SVGID_14_);}
	.st32{fill-rule:evenodd;clip-rule:evenodd;fill:#FA9BB2;}
	.st33{fill:#FFFFFF;}
	.st34{fill:#F6577D;}
</style>
<g id="Layer_2-2">
	<g>
		<path class="st0" d="M52.5,13.5c0,0,0.3,1.4,0.4,2.4c0.1,0.5-0.1,1-0.6,1.4c-0.8,0.6-2,1.4-2,1.4l2.4-0.4c0.5-0.1,1.1,0.1,1.4,0.5
			c0.6,0.8,1.4,2,1.4,2s-0.3-1.4-0.4-2.4c-0.1-0.5,0.1-1,0.6-1.4c0.8-0.6,2-1.4,2-1.4s-1.4,0.3-2.4,0.4c-0.5,0.1-1.1-0.1-1.4-0.6
			C53.3,14.6,52.5,13.5,52.5,13.5C52.5,13.5,52.5,13.5,52.5,13.5z"/>
		<path class="st1" d="M105.1,59.7c-0.2,0-0.3,0.2-0.3,0.3s0.2,0.3,0.3,0.3s0.3-0.2,0.3-0.3S105.3,59.7,105.1,59.7L105.1,59.7z"/>
		<path class="st1" d="M68.5,56c-0.2,0-0.3,0.2-0.3,0.3s0.2,0.3,0.3,0.3s0.3-0.2,0.3-0.3S68.6,56,68.5,56L68.5,56z"/>
		<path class="st1" d="M103.5,25.8c-0.2,0-0.3,0.2-0.3,0.4s0.2,0.4,0.3,0.4s0.3-0.2,0.3-0.4S103.7,25.8,103.5,25.8L103.5,25.8z"/>
		<path class="st1" d="M105,3.8c-0.2,0-0.3,0.2-0.3,0.4s0.2,0.3,0.3,0.3s0.3-0.2,0.3-0.3S105.1,3.8,105,3.8C105,3.8,105,3.8,105,3.8
			z"/>
		<path class="st1" d="M43.3,28.4c-0.7,0-1.3,0.6-1.3,1.3s0.6,1.3,1.3,1.3s1.3-0.6,1.3-1.3S44.1,28.4,43.3,28.4L43.3,28.4z"/>
		<path class="st1" d="M42.5,3.6c-0.3,0-0.6,0.3-0.6,0.6s0.3,0.6,0.6,0.6s0.6-0.3,0.6-0.6S42.8,3.6,42.5,3.6
			C42.5,3.6,42.5,3.6,42.5,3.6z"/>
		<path class="st1" d="M67.7,21.7c-0.2,0-0.4,0.2-0.4,0.4s0.2,0.4,0.4,0.4s0.4-0.2,0.4-0.4S67.9,21.7,67.7,21.7L67.7,21.7z"/>
		<path class="st1" d="M62.6,2.9c-0.2,0-0.4,0.2-0.4,0.4s0.2,0.4,0.4,0.4S63,3.4,63,3.2S62.8,2.9,62.6,2.9L62.6,2.9z"/>
		<path class="st1" d="M47.4,18.6c-0.2,0-0.4,0.2-0.4,0.4s0.2,0.4,0.4,0.4s0.4-0.2,0.4-0.4S47.6,18.6,47.4,18.6L47.4,18.6z"/>
		<path class="st1" d="M63.2,36.8c-0.5,0-0.9,0.4-0.9,0.9s0.4,0.9,0.9,0.9s0.9-0.4,0.9-0.9S63.6,36.8,63.2,36.8L63.2,36.8z"/>
		<path class="st1" d="M57.6,50.7c-0.4,0-0.6,0.3-0.6,0.6s0.3,0.6,0.6,0.6s0.6-0.3,0.6-0.6S57.9,50.7,57.6,50.7L57.6,50.7z"/>
		<path class="st2" d="M80.7,62.7c6.2-2.1,13.3,2.3,15.9,9.8c2.6,7.6-0.3,15.4-6.5,17.5s-13.3-2.3-15.9-9.8
			C71.6,72.7,74.6,64.8,80.7,62.7L80.7,62.7z"/>
		<path class="st3" d="M73.1,124.8c0-6.9-2.9-13.4-7.9-18.1c-5.1-4.6-11.9-6.9-18.7-6.3l-0.7,0.1c-11.6,1.1-20.4,10.8-20.4,22.4
			c0,13.8,0,29.5,0,29.5l47.7,0.1C73.1,152.5,73.1,138.6,73.1,124.8L73.1,124.8L73.1,124.8z"/>
		<path class="st4" d="M76.1,125.5c0-6.9-2.9-13.4-7.9-18.1s-11.9-6.9-18.7-6.3c-0.2,0-0.5,0-0.7,0.1c-11.6,1.1-20.4,10.8-20.4,22.4
			c0,13.8,0,29.5,0,29.5l47.7,0.1C76.1,153.2,76.1,139.2,76.1,125.5L76.1,125.5L76.1,125.5z"/>
		<path class="st5" d="M62.5,108.5c12.1,11.3,25.3,16.8,38.9,18.1l-3.7,6.9c-14.6-1.7-27.2-7.5-38.5-17.8L62.5,108.5L62.5,108.5
			L62.5,108.5z"/>
		<path class="st6" d="M74,116.7c0,0,2.4,2.3,4.3,3c-0.9,2.9-2.1,4.9-3.7,6.8c0,0-3.9-1.9-5.1-3.3L74,116.7
			C74,116.7,74,116.7,74,116.7z"/>
		<path class="st7" d="M59.6,105.4c-2,1.2-3.1,3.4-3,5.7c0.1,1.4,0.2,3.1,0.3,4.7c0.2,3.1,2.2,5.9,5.1,7.2
			c4.5,1.9,10.6,4.6,10.6,4.6c2.2-2.8,4-6.2,5.5-10.3c-1.8-1.1-5.6-3.2-8.4-5.3C66.4,109.6,64.3,105.3,59.6,105.4L59.6,105.4
			L59.6,105.4z"/>
		<path class="st2" d="M70.5,150.3c0.5-7.2-0.3-15.7-0.7-22.7c-0.5-9.1-1.7-16.6-6.2-20.7c-1.6-1.4-4.9-2.1-9-1.9
			c-17.4,0.9-19.7,8.6-19.7,15.1c0,3.1,0.9,13.4,0.4,21.4c-0.3,4.9-1.7,8.8-1.5,10.9C34.5,158,70,157.6,70.5,150.3L70.5,150.3
			L70.5,150.3z"/>
		<g>
			<defs>
				<path id="SVGID_1_" d="M70.5,150.3c0.5-7.2-0.3-15.7-0.7-22.7c-0.5-9.1-1.7-16.6-6.2-20.7c-1.6-1.4-4.9-2.1-9-1.9
					c-17.4,0.9-19.7,8.6-19.7,15.1c0,3.1,0.9,13.4,0.4,21.4c-0.3,4.9-1.7,8.8-1.5,10.9C34.5,158,70,157.6,70.5,150.3L70.5,150.3
					L70.5,150.3z"/>
			</defs>
			<clipPath id="SVGID_2_">
				<use xlink:href="#SVGID_1_"  style="overflow:visible;"/>
			</clipPath>
			<g class="st8">
				<path class="st9" d="M50.7,152c-4.8,0.1-9.1-7.9-9.7-10.7c-1.1-5.6-3-27.1,2.4-31.2c3.3-2.6,16.1-4.8,21.5-3.7
					c-25.6-5.5-31.8,8.6-31.2,12.6c2.1,12.8,0,33.1,0,33.1C44.1,152.6,40.7,152.6,50.7,152L50.7,152L50.7,152z"/>
			</g>
		</g>
		<path class="st5" d="M47.2,106.3c0.3-0.2,1.4-0.5,2.2-0.8c0.4-0.1,0.7-0.5,0.7-0.9c0-1-0.1-2.7-0.1-2.7l8.9-0.3
			c0,0,0.1,2.6,0.1,3.3c0,0.1,0.1,0.2,0.2,0.3c0.4,0.2,1.5,0.8,1.9,1.5c0.7,1.2-0.2,2.9-4.3,3.4c-4.7,0.5-6.7-0.1-7.8-0.9
			C47.4,108.1,46.6,106.7,47.2,106.3L47.2,106.3L47.2,106.3z"/>
		<g>
			<defs>
				<path id="SVGID_3_" d="M47.2,106.3c0.3-0.2,1.4-0.5,2.2-0.8c0.4-0.1,0.7-0.5,0.7-0.9c0-1-0.1-2.7-0.1-2.7l8.9-0.3
					c0,0,0.1,2.6,0.1,3.3c0,0.1,0.1,0.2,0.2,0.3c0.4,0.2,1.5,0.8,1.9,1.5c0.7,1.2-0.2,2.9-4.3,3.4c-4.7,0.5-6.7-0.1-7.8-0.9
					C47.4,108.1,46.6,106.7,47.2,106.3L47.2,106.3L47.2,106.3z"/>
			</defs>
			<clipPath id="SVGID_4_">
				<use xlink:href="#SVGID_3_"  style="overflow:visible;"/>
			</clipPath>
			<g class="st10">
				<path class="st6" d="M49.9,103.3c-0.2,0,3.7,2,3.4,7c0,0.1,4.4,0.2,5.3,0c7.3-1.9,1.1-5.1,0-7H49.9L49.9,103.3z"/>
			</g>
		</g>
		<path class="st11" d="M91.7,46.6c-0.4-0.5,0.3,1.3,0.3,1.9c0,1.6-0.1,3.2-0.2,4.7c-0.5,6.8-1.6,12.7-5.7,18
			c-0.1,0.2-0.9,1.5-1.1,1.4c-0.1,0,0.6-2.7,0.6-2.8c0.5-2.8,1-5.6,1.2-8.5c0.4-4.6,0.4-9.3-0.1-13.9c-0.2-1.7-1.3-4.2-1.3-5.9"/>
		<path class="st5" d="M89,68.6c1.3-6,0.8-12.7,0.1-20c-2.1-24-21.2-29-43.2-27.1c-22,1.9-36.5,16.3-34.9,39
			c0.7,9.6,11.4,32.9,26.9,39.4c21,8.8,44.1,4.1,51.4-10.4C92.7,83,92.3,75.6,89,68.6C89,68.6,89,68.6,89,68.6z"/>
		<g>
			<defs>
				<path id="SVGID_5_" d="M89,68.6c1.3-6,0.8-12.7,0.1-20c-2.1-24-21.2-29-43.2-27.1c-22,1.9-36.5,16.3-34.9,39
					c0.7,9.6,11.4,32.9,26.9,39.4c21,8.8,44.1,4.1,51.4-10.4C92.7,83,92.3,75.6,89,68.6C89,68.6,89,68.6,89,68.6z"/>
			</defs>
			<clipPath id="SVGID_6_">
				<use xlink:href="#SVGID_5_"  style="overflow:visible;"/>
			</clipPath>
			<g class="st12">
				<path class="st6" d="M33.7,94.4c0.7,0.7,2.9,2.1,3.6,2.4c4.1,2.3,5.5,2.9,8.6,4.2c8,3.2,14.5,3.3,14.5,3.3s-9.7,1.3-24.3-5.3
					c-1.6-0.7-6.2-4-6.5-4.6C31.2,94.6,32.2,94.7,33.7,94.4L33.7,94.4L33.7,94.4z"/>
			</g>
		</g>
		<path class="st6" d="M89.3,50.3c-0.1-0.7-0.1-1.5-0.1-2.2C87.5,23.5,67.7,18,44.9,19.5c-12.8,0.9-23.2,5.8-29.7,14
			c-5.1,6.5-7.8,15-7.3,25.3c0.3,5.3,3.4,14.6,8.7,23.2c4.6-2.1,8.9-5.9,8.4-7.6c-0.1-0.2-0.1-0.5-0.2-0.7c1.7,2.1,3.9,3.7,6.5,4.3
			c0.2,0.1,1.2,0.4,1.4,0.3c0.2-0.2-0.7-1.3-0.8-1.4c-1.9-3.4-2.9-6.2-3.4-10c-0.4-3.1,0.7-9.4,2.6-12.7c1.9-3.3,1.7-7.7,1.7-8
			c2.8,4.3,1.7,9.6,1.9,9.4c4.8-4.5,2.2-16,2.2-16c5.6,0.9,9.4,6,14.9,6.7c10,1.2,19.3-2.2,29.7-1C85.4,45.8,87.8,47.9,89.3,50.3
			L89.3,50.3L89.3,50.3z"/>
		<path class="st11" d="M84.4,16.7c-4.4-2.7-9.3-4.5-14.3-5.3c-1.8-0.3-3.7-0.5-5.6-0.5c-0.9,0-1.8,0-2.7,0
			c-1.8,0.1-3.7,0.6-2.2-0.5c2.9-2.2,6.7-6.1,6.6-10.3c0,0,0-0.1,0-0.1c-0.1-0.1-0.8,0.9-0.9,1c-1,1.2-2,2.3-3.2,3.3
			C58.4,7.2,54.1,8.5,49.5,9c-0.5,0.1-1.6,0.2-2.1,0.2c-8.3,0.8-16.3,1.5-23,7.2c-1.3,1.1-2.6,2.4-3.6,3.8c-0.1,0.2-1.6,3-1.6,3
			s-0.6-1.8-0.3-3.8c0.7-3.8,1.4-5.7,1.4-5.7c-0.8,0-2.6,2.6-3.1,3.1c-2.7,2.7-4.3,8.9-5,10c0,0-0.1,0-0.1,0
			c-5.3,0.4-8.5,3.4-12,7.5c-0.9,1,7.9-1.1,7.7,0.8c-0.1,0.6-1,2.3-1.2,2.8c-1.4,3.2-2,6.8-2.4,10.3c-0.9,10.8,1.1,20.4,6.2,29.8
			c0.9,1.6,1.8,4,3.1,5.2l-1-1.4c0-0.2,1-0.4,1.1-0.5c6-1.9,11.9-6.1,11.3-8.3c-0.1-0.3-0.1-0.5-0.2-0.8c1.7,2.1,3.9,3.7,6.5,4.4
			c0.2,0.1,1.2,0.4,1.4,0.3c0.2-0.2-0.7-1.3-0.8-1.5c-2-3.4-3.3-7.4-3.8-11.3c-0.4-3.1,0.2-5.7,1.1-8.1c1.3-3.6,3.1-6.8,3.1-11
			c0-0.3,0-0.6,0-0.9c2.6,2.8,3,8.9,3,8.9s3.5-5,0-15.4c0,0,0,0,0,0c5.6,1,11.5,5.3,17,6c10.1,1.3,19.5-2.2,30-1
			c10,1.2,10.3,13.6,10.5,13.4C98.2,45.9,95,40.4,94.3,37c0-0.2-0.1-0.4-0.1-0.6c3.4,2.2,6.4,2.5,6.4,2.5s-2.9-3-7-11.9
			C91.1,21.6,88.9,19.4,84.4,16.7L84.4,16.7L84.4,16.7z"/>
		<path class="st5" d="M29.9,77.1c-1.1-2.3-2.6-4.1-4.5-5.9c-5.3-5.1-14.4-2.3-15.7,4.9c-1.4,8,4,15.8,11.7,18.1
			c2.1,0.6,6.1,1.1,9.9-0.1L29.9,77.1L29.9,77.1L29.9,77.1z"/>
		<path class="st6" d="M20.7,72.3c-3.6-0.3-7.2,1.9-7.9,5.8c-1.1,6.2,3.1,12.3,9.1,14c1.4,0.4,3.8,0.8,6.3,0.3
			c-1.4,0-2.7-0.3-3.6-0.5c-6-1.8-10.2-7.8-9.1-14C16,74.9,18.2,72.9,20.7,72.3L20.7,72.3z"/>
		<path class="st6" d="M66.1,73c1-0.3,1.8-0.2,2.4,0.2c0.9,0.6,1.3,1.7,1.2,2.8c-0.2,1.2-1.1,2.2-3.1,2.3c-0.2,0-0.4-0.2-0.4-0.4
			s0.2-0.4,0.4-0.4c1.1,0,1.7-0.4,2-1c0.5-0.9,0.2-2.1-0.7-2.6c-0.4-0.2-0.9-0.2-1.5,0c-0.2,0.1-0.5,0-0.5-0.3S65.9,73.1,66.1,73
			C66.1,73,66.1,73,66.1,73z"/>
		<path class="st13" d="M22,23.1c-0.1-2.9,1.3-6.6,11.1-10.3c6-2.2,15.8-1.1,21.8-2.9c0.1-0.1,2.1-0.6,2.1-0.8
			c0-0.2-0.2,0.3-0.3,0.5c-2.1,3.3-6.6,5.3-2.9,4.7c11.7-1.9,28.7,2.8,36.1,13.5c0.3,0.4,1.8,3.3,1.8,3.3s-6.4-3.7-10.4-3.2
			c-0.4,0,0.2,0.3,0.8,0.8c2.3,1.8,7.3,10.4,6.6,13.3c-0.1,0.3-3.6-4.8-11.7-4.3c-7.6,0.5-13.4,2.4-21.1,1.4c-7.6-1-15.6-5.1-22.2-9
			C26.7,26,22,26,22,23.1L22,23.1L22,23.1z"/>
		<path class="st13" d="M8.2,41.8C6.4,46.2,5,64.2,7.8,67.9c0.1,0.1,0-0.3,0.1-0.5c0.6-3.3,5.9-3.7,8.8-3c3.4,0.8,6.8,2.5,9.9,5.5
			c0.1,0.1-1.6-7.7-1.3-10.2c0.9-7.2,8.2-12.8,1-19.1C21.9,36.8,11.3,34.1,8.2,41.8C8.2,41.8,8.2,41.8,8.2,41.8z"/>
		<path class="st14" d="M25.9,19.9c1-1.9,3.6-4.1,8.5-4c4,0.1,11.2-2,11.2-2s-3.1,3.3-5.1,3.8c0,0,16-4.7,24.3,3.9
			c0,0-7-0.9-8.2,0.5c0,0,5.6,1.2,7.3,5.8c-0.3-0.8-8.5,0.1-12.5,0.8C46.3,29.6,38.4,29,33,25.9C28.1,23,24.2,23,25.9,19.9
			L25.9,19.9L25.9,19.9z"/>
		<path class="st15" d="M50.9,84.6c-0.1-0.6,0.1-1.3,0.6-1.8c0.4-0.5,1-0.8,1.7-0.8c2.9-0.3,5.3,0.1,11.4-0.4
			c6-0.4,7.8-1.1,10.8-1.3c1.3-0.1,2.4,0.9,2.6,2.2c0.1,0.7,0.1,1.5,0.2,2.4c0.2,2.6-0.6,5.1-2.3,7.1c-1.7,2-4.1,2.9-6.6,3.4
			c-2.4,0.5-5.2,0.7-7.6,0.7c-2.6-0.1-5-0.6-7-2.3c-2-1.7-3.2-4.4-3.4-7C51,86.1,51,85.3,50.9,84.6L50.9,84.6L50.9,84.6z"/>
		<g>
			<defs>
				<path id="SVGID_7_" d="M50.9,84.6c-0.1-0.6,0.1-1.3,0.6-1.8c0.4-0.5,1-0.8,1.7-0.8c2.9-0.3,5.3,0.1,11.4-0.4
					c6-0.4,7.8-1.1,10.8-1.3c1.3-0.1,2.4,0.9,2.6,2.2c0.1,0.7,0.1,1.5,0.2,2.4c0.2,2.6-0.6,5.1-2.3,7.1c-1.7,2-4.1,2.9-6.6,3.4
					c-2.4,0.5-5.2,0.7-7.6,0.7c-2.6-0.1-5-0.6-7-2.3c-2-1.7-3.2-4.4-3.4-7C51,86.1,51,85.3,50.9,84.6L50.9,84.6L50.9,84.6z"/>
			</defs>
			<clipPath id="SVGID_8_">
				<use xlink:href="#SVGID_7_"  style="overflow:visible;"/>
			</clipPath>
			<g class="st16">
				<path class="st17" d="M59.1,79.5c-6.6-0.4-12.2,4.4-12.6,10.7c-0.4,6.3,4.6,11.8,11.2,12.2s12.2-4.4,12.6-10.7
					S65.7,79.9,59.1,79.5L59.1,79.5z"/>
				<path class="st18" d="M62.2,88.8c-6,0.5-10.6,4.6-10.3,9.2c0.4,4.6,5.5,7.9,11.5,7.5c6-0.5,10.6-4.6,10.3-9.2
					C73.4,91.7,68.2,88.3,62.2,88.8C62.2,88.8,62.2,88.8,62.2,88.8z"/>
				<path class="st19" d="M53.8,78.1l20.4-1.6l0.4,4.7c0.1,0.9-0.4,1.7-1.3,2c-4,1.6-10.2,2.3-17.6,1.2c-0.8-0.1-1.4-0.8-1.5-1.6
					C54,81,53.8,78.1,53.8,78.1C53.8,78.1,53.8,78.1,53.8,78.1z"/>
			</g>
		</g>
		<path class="st11" d="M74.6,59.6c1.6-2.5,3.7-2.7,3.9-2.7c4-0.6,7,3.4,7.3,7.9c0.2,4.5,0.4,7.2-6.8,7.6c-0.2,0-0.4,0-0.6,0
			c6.6-0.5,6.6-3.2,6.3-7.6C84,58,78.6,55.9,74.6,59.6L74.6,59.6L74.6,59.6z"/>
		<path class="st19" d="M78.5,57.3c4.2-0.2,6.4,3.9,6.6,8.1s0.3,6.7-5.8,7c-6.2,0.3-6.3-2.2-6.5-6.4C72.5,61.8,74.3,57.5,78.5,57.3
			C78.5,57.3,78.5,57.3,78.5,57.3z"/>
		<path class="st20" d="M79.7,71.8c-2.2,0-4.1-2.1-4.1-4.7c0-2.7,1.7-4.8,4-4.9c2.2,0,4.1,2.1,4.1,4.7
			C83.7,69.6,81.9,71.8,79.7,71.8C79.7,71.8,79.7,71.8,79.7,71.8z"/>
		<path class="st21" d="M79.3,63.8c0.7,0,1.3,0.2,1.8,0.7c0.8,0.7,1.3,1.8,1.4,3c0,2.1-1.4,3.7-3.1,3.7c-1.7,0-3.1-1.6-3.1-3.7
			C76.2,65.4,77.6,63.8,79.3,63.8L79.3,63.8L79.3,63.8z"/>
		<path class="st19" d="M79.4,71.3c0.6,0,1.1-0.5,1.1-1.1s-0.5-1.1-1.1-1.1s-1.1,0.5-1.1,1.1S78.8,71.3,79.4,71.3L79.4,71.3z"/>
		<path class="st11" d="M52.1,60.5C50,58,47.5,58,47.3,58c-4.8-0.2-7.9,4.6-7.6,9.6s0.4,8,9,7.5c0.2,0,0.5,0,0.7-0.1
			c-7.8,0.3-8.1-2.7-8.3-7.5C40.9,59.9,47,57,52.1,60.5L52.1,60.5L52.1,60.5z"/>
		<path class="st19" d="M47.3,58.5c-4.9,0.3-7,5.1-6.8,9.7c0.3,4.6,0.4,7.4,7.7,6.9s7.1-3.2,6.9-7.8C54.8,62.7,52.2,58.2,47.3,58.5
			L47.3,58.5L47.3,58.5z"/>
		<path class="st20" d="M48.5,74.1c-2.5,0.1-4.6-2.1-4.8-5.1c-0.1-2.9,1.8-5.4,4.2-5.5c2.5-0.1,4.6,2.1,4.8,5.1
			C52.9,71.5,51,74,48.5,74.1L48.5,74.1z"/>
		<path class="st21" d="M47.8,65.2c1.9-0.2,3.6,1.4,3.9,3.7c0.3,2.2-1.1,4.3-3,4.5c-1.9,0.2-3.6-1.4-3.9-3.7
			C44.6,67.5,45.9,65.5,47.8,65.2L47.8,65.2z"/>
		<path class="st19" d="M48.2,72.3c-0.2-0.6,0.2-1.3,0.8-1.5s1.3,0.2,1.4,0.9s-0.2,1.3-0.8,1.5S48.4,72.9,48.2,72.3L48.2,72.3z"/>
		<path class="st11" d="M82,54.3c-0.7-0.4-1.3-0.7-1.9-0.9c-0.7-0.2-1.3-0.3-1.9-0.3s-1.3,0.1-1.9,0.4c-0.6,0.2-1.2,0.5-1.8,1
			c-0.3,0.2-0.7,0.2-0.9-0.1c-0.2-0.3-0.2-0.8,0.1-1c0.8-0.8,1.6-1.4,2.5-1.7c0.7-0.3,1.3-0.4,2-0.4c0.8,0,1.7,0.1,2.5,0.5
			c0.7,0.3,1.4,0.8,2.1,1.5c0.3,0.2,0.3,0.6,0.1,0.9S82.3,54.5,82,54.3L82,54.3L82,54.3z"/>
		<path class="st11" d="M50.6,55.2c-0.8-0.4-1.5-0.7-2.2-0.8c-0.7-0.2-1.4-0.3-2.2-0.2s-1.4,0.3-2.1,0.6c-0.7,0.3-1.3,0.7-2,1.2
			c-0.3,0.3-0.8,0.3-1-0.1c-0.3-0.3-0.3-0.8,0.1-1.1c0.8-0.9,1.7-1.6,2.7-2.1c0.7-0.3,1.5-0.5,2.2-0.6c0.9-0.1,1.9,0,2.8,0.4
			c0.8,0.3,1.6,0.8,2.4,1.5c0.3,0.2,0.4,0.7,0.2,1C51.3,55.4,50.9,55.5,50.6,55.2L50.6,55.2L50.6,55.2z"/>
		<path class="st22" d="M43,78.3c3.1,0.2,5.5,1.8,5.4,3.4c-0.1,1.7-2.7,2.8-5.8,2.6c-3.1-0.2-5.5-1.8-5.4-3.4
			C37.3,79.3,39.9,78.1,43,78.3L43,78.3z"/>
		<path class="st22" d="M83.9,74.9c2.7-0.7,5.2,0,5.7,1.6c0.4,1.6-1.4,3.5-4.1,4.3c-2.7,0.7-5.2,0-5.7-1.6
			C79.4,77.5,81.2,75.6,83.9,74.9C83.9,74.9,83.9,74.9,83.9,74.9z"/>
		<polygon class="st23" points="193,151.6 21.1,151.6 21.1,161.9 193,161.9 193,151.6 		"/>
		<path class="st24" d="M166.1,148.7c0-0.8-0.3-1.5-0.9-2.1c-0.6-0.6-1.3-0.9-2.1-0.9H61.8c-0.8,0-1.5,0.3-2.1,0.9
			c-0.6,0.6-0.9,1.3-0.9,2.1l0,0c0,0.8,0.3,1.5,0.9,2.1c0.6,0.6,1.3,0.9,2.1,0.9h101.3c0.8,0,1.5-0.3,2.1-0.9
			C165.8,150.3,166.1,149.5,166.1,148.7C166.1,148.7,166.1,148.7,166.1,148.7z"/>
		<g>
			<defs>
				<path id="SVGID_9_" d="M166.1,148.7c0-0.8-0.3-1.5-0.9-2.1c-0.6-0.6-1.3-0.9-2.1-0.9H61.8c-0.8,0-1.5,0.3-2.1,0.9
					c-0.6,0.6-0.9,1.3-0.9,2.1l0,0c0,0.8,0.3,1.5,0.9,2.1c0.6,0.6,1.3,0.9,2.1,0.9h101.3c0.8,0,1.5-0.3,2.1-0.9
					C165.8,150.3,166.1,149.5,166.1,148.7C166.1,148.7,166.1,148.7,166.1,148.7z"/>
			</defs>
			<clipPath id="SVGID_10_">
				<use xlink:href="#SVGID_9_"  style="overflow:visible;"/>
			</clipPath>
			<g class="st25">
				<path class="st26" d="M166.1,146.6c0-0.5-0.4-0.9-0.9-0.9H59.7c-0.5,0-0.9,0.4-0.9,0.9l0,0c0,0.5,0.4,0.9,0.9,0.9h105.5
					C165.7,147.5,166.1,147.1,166.1,146.6L166.1,146.6L166.1,146.6z"/>
			</g>
		</g>
		<path class="st27" d="M16.1,71c0.6,1.5,2.5-0.5,1.9-2.3c-0.9-2.9-1.7-7.1-2-11.8c-0.6-11.7,2.3-26.9,14.8-35.6
			c14.2-9.9,37.5-9.3,48.5-5.9c1.6,0.5,3.3,1.2,4.4,1.8c1.2,0.6,2.4,1.3,2.4,1.3s-0.2-1.3-2.3-2.9c-1.1-0.9-2.3-1.5-3.9-2
			c-12-4.2-35.5-4.9-50.5,5.5c-13.3,9.3-16.5,25.4-15.9,37.8C13.8,62.9,14.9,67.9,16.1,71L16.1,71L16.1,71z"/>
		<path class="st2" d="M17.4,68.5c6.8-2.3,14.7,2.6,17.6,10.9s-0.4,17.1-7.2,19.4c-6.8,2.3-14.7-2.6-17.6-10.9S10.5,70.9,17.4,68.5
			L17.4,68.5z"/>
		<path class="st28" d="M28.4,98.6c6.4-2.6,9.4-11.1,6.6-19.2c-2.9-8.4-10.7-13.3-17.6-10.9c-0.7,0.2-1.3,0.5-1.9,0.9
			c0.2-0.1,0.4-0.2,0.6-0.2c6.8-2.3,14.7,2.6,17.6,10.9C36.2,87.6,33.9,95.4,28.4,98.6L28.4,98.6L28.4,98.6z"/>
		<path class="st27" d="M15.4,71.7c5-1.7,11,2.8,13.4,10s0.4,14.4-4.5,16.1c-5,1.7-11-2.8-13.4-10S10.5,73.3,15.4,71.7L15.4,71.7z"
			/>
		<g>
			<defs>
				<path id="SVGID_11_" d="M73.7,110.7C73.7,110.7,73.7,110.7,73.7,110.7C73.6,110.7,73.6,110.7,73.7,110.7c0,0.8,0.6,6.1,0.6,6.1
					s2.7-1.2,5.1-0.3c0,0,1.1,0.9,1.6,1.6c0.6,0.7,1.4-0.4,0.8-1c-0.5-0.6-0.9-1.6-2.5-2.3c0,0,1.2,0.1,1.5,0.3c0,0,1,1,2.4,2.6
					c0.2,0.2,1.2,0.2,0.6-0.9c-0.8-1.3-1.9-2.8-1.9-2.8l0.7,0.2c0,0,0.9,0.9,1.8,1.8c0.6,0.6,1.5,0.3,0.9-0.8c0,0-0.1-0.1-0.1-0.1
					c-0.2-0.3-1.7-2.1-1.7-2.1l0.9,0.3c0.5,0.4,1.1,0.8,1.6,1.4c0,0,0.6,0.5,0.9,0.1c0.3-0.4-1.1-2.4-2.2-3
					c-0.4-0.2-1.6-0.6-2.1-0.6c-0.7-0.1-4.4,0.5-6,0.7c-0.5,0.1-1,0-1.4-0.2C74.8,111.3,74,110.8,73.7,110.7L73.7,110.7L73.7,110.7z
					"/>
			</defs>
			<clipPath id="SVGID_12_">
				<use xlink:href="#SVGID_11_"  style="overflow:visible;"/>
			</clipPath>
			<g class="st29">
				<path class="st6" d="M79.8,113.2c0,0,0.9-0.2,2.2,0.7l0.2,0c0,0-0.2-0.2-0.6-0.4C81.1,113.3,80.4,113.1,79.8,113.2L79.8,113.2
					L79.8,113.2z"/>
				<path class="st6" d="M81.4,112c0,0,1-0.1,2.1,0.9l0.2,0.1c0,0-0.2-0.2-0.6-0.4C82.7,112.2,82.1,111.9,81.4,112
					C81.4,112,81.4,112,81.4,112z"/>
			</g>
		</g>
		<path class="st5" d="M52.5,117.3c-0.4-1.3-1.3-2.5-2.5-3.1c-1.2-0.7-2.7-0.8-4-0.3l0,0c-2.3,0.8-3.6,3.2-2.9,5.5
			c1.6,6.2,5.7,15.5,7,18.2c0.7,1.4,17.2,7.8,18.4,8.6c4.9-3.2,3.8-2,5.1-3.3c-1.6-1-16-8.9-16.2-9.2
			C56.3,131.4,54.8,125.3,52.5,117.3L52.5,117.3L52.5,117.3z"/>
		<path class="st5" d="M67.6,140.5C67.6,140.5,67.6,140.5,67.6,140.5C67.5,140.5,67.5,140.6,67.6,140.5c0.1,0.7,0.9,5.6,0.9,5.6
			s2.5-1.3,4.8-0.5c0,0,1.1,0.8,1.6,1.4c0.6,0.6,1.3-0.4,0.7-1c-0.5-0.5-1-1.5-2.4-2c0,0,1.1,0,1.4,0.2c0,0,1,0.9,2.4,2.3
			c0.2,0.1,1.1,0.1,0.5-0.9c-0.8-1.1-2-2.5-2-2.5l0.6,0.1c0,0,0.9,0.8,1.8,1.6c0.6,0.6,1.4,0.2,0.8-0.8c0,0-0.1-0.1-0.1-0.1
			c-0.2-0.3-1.7-1.9-1.7-1.9l0.9,0.3c0.5,0.4,1.1,0.7,1.6,1.2c0,0,0.6,0.5,0.9,0c0.3-0.4-1.2-2.2-2.2-2.7c-0.4-0.2-1.6-0.4-1.9-0.5
			c-0.7,0-4.1,0.7-5.6,1c-0.4,0.1-0.9,0-1.3-0.2C68.7,141,67.8,140.6,67.6,140.5L67.6,140.5L67.6,140.5z"/>
		<path class="st7" d="M50.9,112.3c-1.1-1.7-2.8-2.6-4.8-2.4c-3.1,0.3-5.4,2.7-6.1,4.5c-1,3-0.7,6-0.1,8c1.7,5.4,3.6,9,6.9,13.5
			c4.6-1.1,8.8-3.5,12.3-7c-1.3-2.4-4.3-6.4-5.8-11.1C53,116.1,52,114,50.9,112.3L50.9,112.3L50.9,112.3z"/>
		<g>
			<path class="st30" d="M165.3,147.6H79.2c0,0-0.1,0-0.2,0c-0.7,0-1.4-0.4-1.8-0.9c-0.5-0.5-0.7-1.2-0.7-1.9
				c0.6-9.1,3.4-49.3,4.1-59.8c0.1-1.4,1.3-2.5,2.7-2.5h85.2c0.9,0,1.7,0.4,2.3,1c0.1,0.1,0.2,0.2,0.3,0.3c0.4,0.4,0.6,0.9,0.5,1.5
				c0,0.2,0,0.4,0,0.7c-0.9,11.9-3.9,51-4.5,59.8C167.1,146.9,166.3,147.7,165.3,147.6L165.3,147.6L165.3,147.6z"/>
			<g>
				<defs>
					<path id="SVGID_13_" d="M165.3,147.6H79.2c0,0-0.1,0-0.2,0c-0.7,0-1.4-0.4-1.8-0.9c-0.5-0.5-0.7-1.2-0.7-1.9
						c0.6-9.1,3.4-49.3,4.1-59.8c0.1-1.4,1.3-2.5,2.7-2.5h85.2c0.9,0,1.7,0.4,2.3,1c0.1,0.1,0.2,0.2,0.3,0.3
						c0.4,0.4,0.6,0.9,0.5,1.5c0,0.2,0,0.4,0,0.7c-0.9,11.9-3.9,51-4.5,59.8C167.1,146.9,166.3,147.7,165.3,147.6L165.3,147.6
						L165.3,147.6z"/>
				</defs>
				<clipPath id="SVGID_14_">
					<use xlink:href="#SVGID_13_"  style="overflow:visible;"/>
				</clipPath>
				<g class="st31">
					<path class="st24" d="M171.7,85.4c0-0.6-0.2-1.1-0.5-1.5c-0.4-0.4-0.9-0.7-1.5-0.7H84.5c-1.4,0-2.6,1.1-2.7,2.5
						c-0.7,10.1-3.2,48.4-4,59.1c-0.1,0.7,0.2,1.5,0.7,2c0.5,0.5,1.2,0.8,1.9,0.8h84.7c1,0,1.9-0.8,1.9-1.8
						C167.9,136.7,171,95.4,171.7,85.4L171.7,85.4L171.7,85.4z"/>
					<path class="st26" d="M170,108.4c-15.5,32.2-58.6,32.2-92.1,32.2c0,0-0.1,2.4-0.1,4.3c0,0.7,0.3,1.4,0.8,1.9s1.2,0.8,1.9,0.8
						h84.8c1,0,1.9-0.8,1.9-1.8C167.8,138.1,170,108.4,170,108.4L170,108.4L170,108.4z"/>
					<path class="st32" d="M86.3,84.3h51.9c0,0-45.5,1.4-50.3,1.4c-2.7,0-2.9,0.3-3.3,1.4c-0.8,2.2-2,5.9-2,5.9s0.5-4.3,0.7-6.8
						C83.5,84.5,84,84.3,86.3,84.3C86.3,84.3,86.3,84.3,86.3,84.3z"/>
					<path class="st19" d="M128.1,106.4c4.8,0,8.7,3.9,8.7,8.7s-3.9,8.7-8.7,8.7c-4.8,0-8.7-3.9-8.7-8.7S123.3,106.4,128.1,106.4
						L128.1,106.4z"/>
				</g>
			</g>
		</g>
		<path class="st6" d="M48.4,135.6l1,1.8c3.4-0.9,5.6-2.5,7.8-4.4l-0.7-1.7L48.4,135.6L48.4,135.6L48.4,135.6z"/>
		<g>
			<path class="st33" d="M63.1,111.2c1.6,0.6,3.2,1.2,4.5,1.8c0.8,0.3,1.5,0.7,2.2,1l0.6,0.3c0.2,0.1,0.4,0.2,0.8,0.5l0.1,0.1
				c0.1,0.1,0.4,0.3,0.7,0.6c0.6,0.6,1.1,1.7,1,3c0,0.3-0.1,0.6-0.1,0.7c0,0.1-0.1,0.4-0.3,0.7c-0.1,0.1-0.2,0.4-0.4,0.6l0,0
				c-0.1,0.1-0.3,0.3-0.3,0.4l-0.1,0.1l-0.1,0c-0.2,0.1-0.3,0.2-0.4,0.3c0,0,0,0-0.1,0.1l-0.1,0.1l-0.1,0.1
				c-0.7,0.5-1.4,1.1-2.1,1.6c-1.3,1-2.6,2-3.9,3c-0.8,0.6-1.7,0.7-2.6,0.4c-0.5-0.2-1-0.5-1.4-1c-0.4-0.6-0.6-1.3-0.6-1.9
				c-0.4,0.3-0.9,0.7-1.3,1.3l-0.5,0.7c0,0,0,0.1-0.1,0.1c-0.1,0.1-0.1,0.2-0.2,0.3c-0.1,0.1-0.1,0.2-0.2,0.3
				c-0.1,0.1-0.1,0.2-0.1,0.3l-0.3,0.8c-0.4,1-0.6,2-0.6,2.9c0,1,0.1,1.9,0.4,2.7c0.6,1.7,2,3.4,3.8,4.5l0.1,0
				c1.1,0.7,1.5,2.2,0.8,3.3c-0.6,1-1.8,1.4-2.8,1l-0.1,0c-1.6-0.6-2.9-1.4-4.2-2.5c-1.3-1.2-2.3-2.5-3.1-4c-0.7-1.5-1.1-3.2-1.2-5
				v-0.1c0-1.8,0.2-3.4,0.7-4.9l0.3-1c0.1-0.4,0.3-0.7,0.4-0.9c0-0.1,0.1-0.3,0.1-0.3l0-0.1c0-0.1,0.1-0.2,0.1-0.3
				c0.1-0.3,0.3-0.6,0.5-0.9l0.6-1l0,0c1.2-1.6,2.5-2.9,3.9-3.7c0.9-0.5,1.8-0.9,2.8-1.3c-1.1-1-1.2-2.7-0.2-3.9
				C60.8,111.2,62,110.8,63.1,111.2L63.1,111.2L63.1,111.2z"/>
			<path class="st34" d="M53.6,125c0.1-0.3,0.3-0.7,0.4-1c0.2-0.3,0.3-0.7,0.5-1l0.6-1c0.9-1.2,2-2.4,3.3-3.2
				c1.3-0.8,2.8-1.3,4.3-1.6c0.6-0.1,1.2-0.2,1.8-0.2c-1-0.8-2-1.6-3-2.4c-0.4-0.3-0.4-0.9-0.1-1.3c0.3-0.3,0.7-0.4,1-0.3
				c1.5,0.5,3,1.2,4.4,1.8c0.7,0.3,1.4,0.6,2.2,1l0.5,0.3c0.2,0.1,0.3,0.1,0.7,0.4c0.1,0.1,0.2,0.2,0.4,0.4c0.2,0.2,0.6,0.8,0.5,1.6
				c0,0.2,0,0.3-0.1,0.4c0,0.1-0.1,0.3-0.1,0.3c-0.1,0.1-0.2,0.3-0.2,0.3c-0.1,0.1-0.1,0.1-0.2,0.2l-0.1,0.1
				c-0.2,0.2-0.4,0.3-0.5,0.4l-0.1,0.1c-2,1.5-4.1,3-6.1,4.6c-0.4,0.3-1,0.2-1.3-0.2c-0.3-0.4-0.3-0.9,0-1.2
				c0.8-0.9,1.6-1.8,2.4-2.7c-0.6,0-1.1,0-1.7,0.1c-1.1,0.2-2.2,0.5-3.1,1c-1,0.5-1.8,1.3-2.5,2.1l-0.5,0.7
				c-0.2,0.2-0.3,0.5-0.4,0.8c-0.1,0.3-0.3,0.5-0.4,0.8l-0.3,0.8c-0.4,1.1-0.6,2.3-0.8,3.4c0,1.2,0.1,2.3,0.4,3.4
				c0.7,2.2,2.5,4.2,4.6,5.5l0.1,0c0.3,0.2,0.3,0.5,0.2,0.7c-0.1,0.2-0.4,0.3-0.6,0.2c-1.3-0.5-2.5-1.2-3.6-2.2
				c-1.1-0.9-2-2.1-2.6-3.4c-0.6-1.3-0.9-2.8-1-4.3c0-1.5,0.2-2.9,0.6-4.3L53.6,125L53.6,125z"/>
		</g>
	</g>
</g>
</svg>
