<svg id="Student_learning_online" data-name="Student learning online" xmlns="http://www.w3.org/2000/svg" xmlns:xlink="http://www.w3.org/1999/xlink" viewBox="0 0 1815.49 1904.13"><defs><style>.cls-1{fill:none;}.cls-2{clip-path:url(#clip-path);}.cls-3{fill:#ad4b65;}.cls-4{fill:#e66486;}.cls-5{fill:#eb839e;}.cls-6{fill:#f0a2b6;}.cls-7{fill:#f07f9d;}.cls-8{fill:#a1634d;}.cls-9{fill:#794a3a;}.cls-10{fill:#eec6b2;}.cls-11{fill:#46c3e3;}.cls-12{fill:#d8dae3;}.cls-13{fill:#c2c4cc;}.cls-14{fill:#d15b7a;}.cls-15{fill:#f0d9ce;}.cls-16{fill:#e9b49a;}.cls-17{fill:#e78b8b;}.cls-18{fill:#fff;}.cls-19{fill:#694536;}.cls-20{fill:#fffefd;}.cls-21{fill:#c7a194;}.cls-22{fill:#b33434;}.cls-23{fill:#de7878;}.cls-24{fill:#f0cbb9;}.cls-25{fill:#c69c6d;}.cls-26{fill:#b08b61;}.cls-27{fill:#a17a4d;}.cls-28{fill:#4acef0;}.cls-29{fill:#2dbce0;}.cls-30{fill:#1badd1;}.cls-31{fill:#b08329;}.cls-32{fill:#e69e5e;}.cls-33{fill:#f9b970;}.cls-34{fill:#ffc58a;}.cls-35{fill:#b1b5b5;}.cls-36{fill:#7d8384;}.cls-37{fill:#808687;}.cls-38{fill:#858b8c;}.cls-39{fill:#8a9091;}.cls-40{fill:#f15a24;}.cls-41{fill:#b3b3b3;}.cls-42{fill:#999;}.cls-43{fill:#949a9c;}.cls-44{fill:#a9aeb0;}</style><clipPath id="clip-path" transform="translate(-80.11 -50.35)"><rect class="cls-1" x="33.73" y="-42.72" width="1985.46" height="1608.97"/></clipPath></defs><title>contact</title><g id="Student_learning_online-2" data-name="Student learning online"><g id="girl"><g class="cls-2"><path class="cls-3" d="M665.47,1069.78H1066.8A63.25,63.25,0,0,1,1130,1133v426.24a0,0,0,0,1,0,0H602.22a0,0,0,0,1,0,0V1133A63.25,63.25,0,0,1,665.47,1069.78Z"/><path class="cls-4" d="M719.29,1069.69h401.33a63.25,63.25,0,0,1,63.25,63.25v426.24a0,0,0,0,1,0,0H656a0,0,0,0,1,0,0V1132.94A63.25,63.25,0,0,1,719.29,1069.69Z"/><path class="cls-5" d="M825.34,1124.68H1219.2a0,0,0,0,1,0,0V1604.9a0,0,0,0,1,0,0H825.34a44.41,44.41,0,0,1-44.41-44.41v-391.4A44.41,44.41,0,0,1,825.34,1124.68Z" transform="translate(2284.74 314.37) rotate(90)"/><path class="cls-6" d="M832.11,1148.48h361.48a0,0,0,0,1,0,0V1581.1a0,0,0,0,1,0,0H832.11a25.57,25.57,0,0,1-25.57-25.57V1174.05A25.57,25.57,0,0,1,832.11,1148.48Z" transform="translate(2284.74 314.37) rotate(90)"/><polygon class="cls-4" points="812.74 1903.05 627.28 1903.05 649.63 1598.75 812.74 1598.75 812.74 1903.05"/><polygon class="cls-4" points="969.66 1903.05 1155.11 1903.05 1132.77 1598.75 969.66 1598.75 969.66 1903.05"/><path class="cls-4" d="M608.58,1541.39H1177.5a21.12,21.12,0,0,1,21.12,21.12V1692a0,0,0,0,1,0,0H587.47a0,0,0,0,1,0,0V1562.5A21.12,21.12,0,0,1,608.58,1541.39Z"/><path class="cls-3" d="M727.06,1911.82c-14.93-44.79,6.24-97.18-5.94-145.32L707.4,1953.4h78.13C759.45,1948.94,735.45,1935.79,727.06,1911.82Z" transform="translate(-80.11 -50.35)"/><path class="cls-3" d="M1085.88,1935.74c-40.66-57.41-7.17-141.14-31.1-208.12-57.41-7.18-112.43,0-169.84,4.78-4.78,71.77,28.71,169.85-28.7,210.51-7.75,5-18,8.54-29.24,10.49h65.85V1742.31h156.92V1953.4h185.46l-.92-12.45C1185,1942.17,1135.93,1943.56,1085.88,1935.74Z" transform="translate(-80.11 -50.35)"/><path class="cls-7" d="M1215.06,1926.17c-43.06,9.57-105.26,19.14-126.79-21.53-31.09-55-17.24-123.82-15.4-182.24-69.37-2.4-128.62-6.89-197,.15.38,58.29,13.86,122.29-12.46,179.7-12,21.53-28.7,38.27-55,43.06s-55-2.4-64.58-23.93c-19.14-50.23-4.79-102.86-12-153.09,0-1.45-5.25-2.9-10.46-5.41l-.26,3.62c12.18,48.14-9,100.53,5.94,145.32,8.39,24,32.39,37.12,58.47,41.58H827c11.29-2,21.49-5.5,29.24-10.49,57.41-40.66,23.92-138.74,28.7-210.51,57.41-4.78,112.43-12,169.84-4.78,23.93,67-9.56,150.71,31.1,208.12,50,7.82,99.09,6.43,148.43,5.21l-5.19-70.69a247.88,247.88,0,0,0-6.89,36.77C1222.23,1914.21,1222.23,1926.17,1215.06,1926.17Z" transform="translate(-80.11 -50.35)"/><path class="cls-8" d="M759.52,704.68c11.43,110.74-18.1,224-75.31,319.52S543.1,1197.86,447.83,1255.47c-63.9,38.64-136.89,69.1-211.24,62.09S88.5,1256.27,80.11,1182.06c23.55,13.25,54.93,4.19,73.87-15.09s27.61-46.37,32.35-73c27-151.77-52.78-317,10.26-457.72C241.52,536,354,476.07,463.85,475.31s215.39,50.28,298.62,122Z" transform="translate(-80.11 -50.35)"/><path class="cls-9" d="M201,1151c30.23-35.74,44.82-80.48,44.52-125.12,1.49-160.46-56.55-348,74.8-475.81,23.31-22.57,69.29-44.67,98.67-49.42,76.38-12.18,136.18,5.09,213.9,12.8-53.29-24.24-110.52-38.51-169-38.11-109.89.76-222.33,60.68-267.26,161-63,140.68,16.78,306-10.26,457.72-4.74,26.6-13.41,53.7-32.35,73s-50.32,28.34-73.87,15.09a126,126,0,0,0,8,32C133.05,1212.41,173.22,1186.06,201,1151Z" transform="translate(-80.11 -50.35)"/><path class="cls-8" d="M1146.23,672.38c7.11,111.11,55,217.91,127.28,302.6s168,147.86,271.46,188.87c69.43,27.5,146.46,45.43,218.61,26.18s135.88-85,131.84-159.57c-21,17-53.48,13.24-75.35-2.63s-34.92-41.15-44-66.6c-51.84-145.18-.53-321.4-86-449.68-61-91.44-181.77-131.88-290.26-114.4S1195.7,482.45,1125.53,567Z" transform="translate(-80.11 -50.35)"/><path class="cls-9" d="M1771.1,1019.84c-35.74-30.23-57.55-71.93-64.66-116-28.09-158-2-352.58-152.68-456.82-26.74-18.38-75.75-32.55-105.51-32.36-77.34.66-133.45,27.6-208.81,48.1C1288,430,1342,406.45,1399.77,397.15c108.49-17.48,229.31,23,290.26,114.4,85.5,128.28,34.19,304.5,86,449.68,9.09,25.45,22.13,50.74,44,66.6s54.32,19.6,75.35,2.63a125.76,125.76,0,0,1-2.59,32.92C1848.24,1069.16,1804.26,1049.84,1771.1,1019.84Z" transform="translate(-80.11 -50.35)"/><path class="cls-10" d="M1143.39,1190.77s233.44-62.58,306.22-93.78,87.66,32.55,32,83.08-239.28,168.21-281.06,186.5S1076.85,1220.3,1143.39,1190.77Z" transform="translate(-80.11 -50.35)"/><path class="cls-10" d="M813.05,1225.67s-233.44-62.57-306.22-93.77-87.66,32.55-32,83.07,239.28,168.21,281,186.5S879.6,1255.2,813.05,1225.67Z" transform="translate(-80.11 -50.35)"/><path class="cls-11" d="M837.08,1428.59s-24.48,82.64-22.1,110.75,46.44,57.79,198.56,57.79,202.85-29.68,200.13-64-12.49-109.81-12.49-109.81Z" transform="translate(-80.11 -50.35)"/><path class="cls-12" d="M828.28,1209.62s-38.17-.52-98.18-13.63-54.15,122.23-55,168.8c-.38,22.24,120,64.14,120,64.14S900.85,1234.9,828.28,1209.62Z" transform="translate(-80.11 -50.35)"/><path class="cls-12" d="M1096.93,1184.93s38-3.44,96.86-21.09,74.79,128.8,68.17,172.49c-3.39,22.35-93,71.42-93,71.42S1026.51,1215.68,1096.93,1184.93Z" transform="translate(-80.11 -50.35)"/><path class="cls-12" d="M1181.34,1213.58c-16.11-18.5-84.42-40.45-84.42-40.45l-20.1-35.22H887l-20.1,35.22s-68.32,21.95-84.42,40.45,9.19,350.12,9.19,350.12l425.1-8.23S1197.44,1232.08,1181.34,1213.58Z" transform="translate(-80.11 -50.35)"/><path class="cls-13" d="M1191.75,1290.81c-5.58,52.68-10,137.16-60.54,157.38-86.66,31.77-287.27,26.25-309.18,3.5s-38.55-169.42-44.8-195.3c-1.87,94,14.4,307.31,14.4,307.31l425.1-8.23s-10.38-174.1-22.28-274.12C1193.61,1284.5,1192.1,1287.53,1191.75,1290.81Z" transform="translate(-80.11 -50.35)"/><path class="cls-4" d="M974.64,1197.42c-18.24-1.54-37.62-13.57-55.07-19.09-8.67-2.74-18.45-5.88-26.42-1.52-8.85,4.82-11,16.42-11.44,26.49a202.89,202.89,0,0,0,1.84,37.19c1,6.79,2.61,14.11,7.89,18.48,5.08,4.21,12.25,4.61,18.83,4.14a97.9,97.9,0,0,0,66.93-34,157,157,0,0,0,71.5,25.89c7.28.75,15.35.76,21-3.87,6.87-5.61,7.59-15.7,7.44-24.57q-.32-17.82-2.34-35.56c-.7-6.06-2.22-13.07-7.73-15.67-3.93-1.84-8.54-.73-12.72.4C1037.23,1180.34,984.48,1198.25,974.64,1197.42Z" transform="translate(-80.11 -50.35)"/><path class="cls-14" d="M1077.16,1226.51q-.32-17.82-2.35-35.56c-.69-6.06-2.21-13.07-7.72-15.67-3.93-1.84-8.54-.73-12.72.4-10,2.73-32.26,10-50.95,15.38,21.33-3.22,42.9-15.75,59.55-5.34,15.86,7.93,15.86,47.58,2.64,55.51-26.43,15.86-60.8-2.64-89.87-15.86.72,1.43,1.63,2.87,2.52,4.36A156.94,156.94,0,0,0,1048.7,1255c7.28.75,15.35.76,21-3.87C1076.59,1245.47,1077.31,1235.38,1077.16,1226.51Z" transform="translate(-80.11 -50.35)"/><path class="cls-14" d="M899.08,1183.08c18.25-13.69,38.47,10,62.36,11.66-14.17-4.24-28.58-12.21-41.87-16.41-8.67-2.74-18.45-5.88-26.42-1.52-8.85,4.82-11,16.42-11.44,26.49a204.14,204.14,0,0,0,.2,20.55C882.06,1207.82,888.62,1190.92,899.08,1183.08Z" transform="translate(-80.11 -50.35)"/><path class="cls-14" d="M904.37,1259.73c-12.53-3.13-19.26-13.27-21.55-25.37.23,2,.44,4.09.73,6.13,1,6.79,2.61,14.11,7.89,18.48,5.08,4.21,12.25,4.61,18.83,4.14a93,93,0,0,0,16.17-2.62C918.92,1261.19,911.49,1261.51,904.37,1259.73Z" transform="translate(-80.11 -50.35)"/><path class="cls-15" d="M1358.94,878.43s122.74,99.93,183.45-15.32-43.15-190.06-127.29-148.77S1330.2,859.64,1358.94,878.43Z" transform="translate(-80.11 -50.35)"/><path class="cls-16" d="M1455.92,737.67a76.77,76.77,0,0,1,45.48,49.25c6.92,23.38.9,49.56-14.38,68.32-5.52,6.77,4.84,15.56,10.37,8.76a90.19,90.19,0,0,0,17.21-80.15c-7.16-26.31-27.59-48.44-52.83-58.44-8.1-3.21-14,9-5.85,12.26Z" transform="translate(-80.11 -50.35)"/><path class="cls-15" d="M559.41,945.2S455,1064.11,376,960.52,387,765.94,476.82,792.7,584.64,921.9,559.41,945.2Z" transform="translate(-80.11 -50.35)"/><path class="cls-16" d="M440.43,822.47a76.81,76.81,0,0,0-36.68,56.12c-2.94,24.21,7.33,49,25.51,65,6.57,5.77-2.19,16.15-8.77,10.37a90.18,90.18,0,0,1-30.27-76.19c2.7-27.13,19.18-52.34,42.41-66.39,7.45-4.51,15.29,6.59,7.8,11.11Z" transform="translate(-80.11 -50.35)"/><path class="cls-15" d="M615.58,280.56c-50.35,44.1-103.32,92.37-120,158.07-11.89,47-3.39,96.5,2.77,144.68A1461.69,1461.69,0,0,1,508,848.15c-3.2,58.46-9.66,118.9,9.48,174.17,25.59,73.91,93.84,125.61,166.55,150.46,50.18,17.15,182,35.3,311.32,24.51s256.28-50.51,302.94-75.76c67.58-36.56,126.31-98.87,139.29-176,9.7-57.68-6.7-116.21-19.54-173.33a1461.51,1461.51,0,0,1-34.45-262.77c-1.91-48.53-1.75-98.79-21.26-143.13-27.3-62-87.54-100.85-144.51-136Z" transform="translate(-80.11 -50.35)"/><path class="cls-16" d="M1404.24,702.88s-19.15,23-16,62.93c6,76,43.37,231.28-14.65,276.79-262.07,205.55-607.37,136.43-653,122.18-80.8-25.23-180.48-73.82-177.63-155.06,6.08-173.57-29.4-330.51-27-499.95.86-84.5,42.11-162.93,98.45-228.18-50,43.83-102.27,91.85-118.77,157-11.89,47-3.39,96.5,2.77,144.68A1461.69,1461.69,0,0,1,508,848.15c-3.2,58.46-9.66,118.9,9.48,174.17,25.59,73.91,93.84,125.61,166.55,150.46,50.18,17.15,182,35.3,311.32,24.51s256.28-50.51,302.94-75.76c67.58-36.56,126.31-98.87,139.29-176,9.7-57.68-6.7-116.21-19.54-173.33Q1410.31,737.73,1404.24,702.88Z" transform="translate(-80.11 -50.35)"/><ellipse class="cls-17" cx="1280.62" cy="957.36" rx="76.24" ry="73.69" transform="translate(-139.3 34.4) rotate(-3.71)"/><ellipse class="cls-17" cx="670.5" cy="1008.32" rx="76.24" ry="73.69" transform="translate(-143.85 -4.93) rotate(-3.7)"/><path class="cls-18" d="M756.57,941.14c-45.06,3.76-84.6-32.26-90-82-2.8-25.75,4.26-51.23,19.37-69.9a77.35,77.35,0,0,1,52.54-28.69l1.44-.13c43.14-3.6,77.23,30.36,82.91,82.59,3.14,28.86-3.29,54.83-18.11,73.14C793.11,930.48,777,939.07,758,941l-1.44.14Z" transform="translate(-80.11 -50.35)"/><path class="cls-19" d="M672.13,858.53c5.09,46.75,42.13,81.29,85.32,76.89s64.88-45.06,59.8-91.8-35-81.89-78.21-77.49S667.05,811.78,672.13,858.53Z" transform="translate(-80.11 -50.35)"/><path class="cls-19" d="M696.37,810.24a82.86,82.86,0,0,1-62.2-23.48,5.49,5.49,0,0,1-.63-7.54c1.76-2.07,5.48-2.67,7.54-.63a72.37,72.37,0,0,0,54.4,21c6.86-.36,7.78,10.3.89,10.66Z" transform="translate(-80.11 -50.35)"/><path class="cls-19" d="M690,832.22a47.16,47.16,0,0,1-37.27,1.16c-2.62-1-3.8-4.72-2.52-7.13a5.48,5.48,0,0,1,7.13-2.52,36.07,36.07,0,0,0,7.3,1.89,27.47,27.47,0,0,0,6.93.36c1.3-.06,2.6-.18,3.89-.36.74-.11,1.48-.24,2.21-.38,1.09-.2-.39.15.78-.18a46,46,0,0,0,7.86-2.88c2.52-1.22,6.05.61,6.86,3.18,1,3-.47,5.56-3.17,6.86Z" transform="translate(-80.11 -50.35)"/><path class="cls-20" d="M688.71,836.39c3.87,19.78,19.42,32.83,37.61,28.91s29.79-23.15,25.92-42.93-21.75-32.64-39.93-28.71S684.84,816.61,688.71,836.39Z" transform="translate(-80.11 -50.35)"/><path class="cls-20" d="M752.64,864.54c1,5.34,5.24,8.86,10.14,7.8s8-6.25,7-11.58S763.91,852,759,853,751.6,859.2,752.64,864.54Z" transform="translate(-80.11 -50.35)"/><path class="cls-19" d="M814.71,733.41c-43.45-53.78-126.83-45.68-158.44,16.11-2.81,5.39-.15,13.07,5.47,15.46a11.83,11.83,0,0,0,15.46-5.46q1.93-3.72,4.22-7.24c-.54.83-1.08,1.66-1.61,2.49a88.74,88.74,0,0,1,14-16.52l-2.19,2a86.83,86.83,0,0,1,18.08-12.75L707,728.9a80.3,80.3,0,0,1,19.31-7.11l-3,.67a81.4,81.4,0,0,1,21.29-1.76l-3.11-.16a87.44,87.44,0,0,1,22.43,4.17l-2.86-.94a88.55,88.55,0,0,1,20.17,9.62l-2.49-1.61a83,83,0,0,1,15.61,13.16l-2-2.18c3.17,3.42,5.75,7.92,10.76,8.72,9.65,2.17,17.83-10.08,11.63-18.07Z" transform="translate(-80.11 -50.35)"/><path class="cls-19" d="M1233.86,694c-40.31-49.9-117.66-42.39-147,14.94-2.61,5-.15,12.12,5.07,14.34a11,11,0,0,0,14.34-5.07c1.2-2.3,2.51-4.53,3.92-6.71l-1.5,2.31a82.37,82.37,0,0,1,13-15.33l-2,1.86a80.52,80.52,0,0,1,16.77-11.83l-2.47,1.29a74.66,74.66,0,0,1,17.91-6.59l-2.82.63a75.33,75.33,0,0,1,19.75-1.64l-2.88-.15a81.52,81.52,0,0,1,20.81,3.87l-2.66-.87a81.43,81.43,0,0,1,18.71,8.93l-2.3-1.5A77.16,77.16,0,0,1,1215,704.66l-1.86-2c2.94,3.18,5.33,7.36,10,8.09,9,2,16.54-9.34,10.79-16.75Z" transform="translate(-80.11 -50.35)"/><path class="cls-18" d="M1171.74,906.47c45.07-3.77,78.09-45.85,75.17-95.8-1.51-25.86-12.7-49.81-30.7-65.72a77.35,77.35,0,0,0-56.57-19.57l-1.44.11c-43.14,3.6-71.13,42.75-68.07,95.2,1.69,29,12.35,53.52,30,69.12,13.81,12.2,31.16,18,50.17,16.76l1.44-.1Z" transform="translate(-80.11 -50.35)"/><path class="cls-19" d="M1241.31,811c2.74,46.94-28.06,87.15-71.38,90s-71.46-33.67-74.2-80.61,21-86.56,64.27-89.38S1238.57,764.06,1241.31,811Z" transform="translate(-80.11 -50.35)"/><path class="cls-19" d="M1209.4,767.39a82.84,82.84,0,0,0,57.44-33.47,5.48,5.48,0,0,0-.63-7.53c-2.07-1.76-5.85-1.73-7.54.62a72.38,72.38,0,0,1-50.16,29.73c-6.83.78-6,11.44.89,10.65Z" transform="translate(-80.11 -50.35)"/><path class="cls-19" d="M1219.37,788a47.16,47.16,0,0,0,36.94-5c2.41-1.43,3-5.29,1.3-7.45a5.5,5.5,0,0,0-7.45-1.31,35,35,0,0,1-6.88,3.08,28,28,0,0,1-6.77,1.51c-1.3.15-2.6.25-3.91.28-.74,0-1.49,0-2.23,0-1.11,0,.4.08-.8-.05a47,47,0,0,1-8.23-1.53c-2.69-.79-5.86,1.6-6.24,4.27-.44,3.1,1.39,5.4,4.27,6.24Z" transform="translate(-80.11 -50.35)"/><path class="cls-20" d="M1221.29,791.91c-.53,20.15-13.71,35.6-32.29,34.75s-33.22-17.88-32.69-38,16-35.8,34.62-34.94S1221.82,771.76,1221.29,791.91Z" transform="translate(-80.11 -50.35)"/><path class="cls-20" d="M1162.91,830.27c-.14,5.44-3.69,9.61-8.71,9.38s-9-4.83-8.81-10.26,4.32-9.66,9.33-9.43S1163.06,824.84,1162.91,830.27Z" transform="translate(-80.11 -50.35)"/><path class="cls-16" d="M981.27,903.32h-.79a7,7,0,0,1,.41-14,16,16,0,1,0-1.19-32,7,7,0,1,1-1.45-13.91,30,30,0,1,1,3,59.91Z" transform="translate(-80.11 -50.35)"/><path class="cls-8" d="M1317.75,333.23c153.78,241.27,152,493.67,75,769.23,60.43-271.11,1.33-451.5-164.41-674.4Z" transform="translate(-80.11 -50.35)"/><path class="cls-8" d="M526.34,468.5c-111.63,263.44-78.15,387.08,43.49,646.05C465.26,857.22,531.61,795.67,630.2,547.2Z" transform="translate(-80.11 -50.35)"/><path class="cls-8" d="M1236.38,151.77c-244-133-581.2-70.84-760.36,140s-160.24,511.27,17.64,722c0,0-15.51-252.76-10.64-351.58,3.93-79.93,76.16-164.74,76.16-164.74,5.8,88.36,0,160.45-27.57,244.9,200.36-25.15,395.32-32.93,595.68-58.08,10.61-68.72,17.14-160.3,27.37-161.07,20.57-1.56,21.09,91.28,10.62,156.18,54.48-7.66,111.3-20.8,144.18-62.94,47-60.24,21.3-146.08-6.28-216.71,0,0,54.83,53.78,95.3,146.57,41.17,94.4,93.91,324.66,93.91,324.66C1581.57,611.08,1480.34,284.72,1236.38,151.77Z" transform="translate(-80.11 -50.35)"/><path class="cls-9" d="M808.2,630.42A481.24,481.24,0,0,0,838.82,554a476.36,476.36,0,0,0,17.08-80c1.94-15.51,3.08-31.11,3.52-46.73.07-2.68-2.9-4.74-5.36-4.53-2.92.24-4.45,2.66-4.53,5.35A471.81,471.81,0,0,1,817.8,584.56q-8.26,21.23-18.55,41.59c-2.88,5.71,6.08,10,9,4.27Z" transform="translate(-80.11 -50.35)"/><path class="cls-9" d="M1064.88,625.17A421.21,421.21,0,0,0,1059.69,509a429.5,429.5,0,0,0-36.17-110.17,420.61,420.61,0,0,0-33.26-56.59c-3.65-5.23-11.79.46-8.12,5.7a412.17,412.17,0,0,1,51.47,100.95A419.74,419.74,0,0,1,1056,560a404,404,0,0,1-.9,63.38c-.25,2.66,1.16,5.27,4,5.79,2.45.46,5.54-1.28,5.79-4Z" transform="translate(-80.11 -50.35)"/><path class="cls-9" d="M1157.41,496.48c-9.3,8.11-11.4,22.52-13.73,34.33-10.84,49-10.14,97.08-26.06,144.86-189.76,12.53-377.19,30.39-566.54,47.86C576.41,582.3,576.68,506.71,576.44,394c-2,47-17.3,263.94-44.83,348.38,200.36-25.14,395.32-32.92,595.68-58.07,10.61-68.72,17.14-160.3,27.37-161.07,20.57-1.56,21.09,91.28,10.62,156.18,50-7,102-18.71,135.63-53.19C1267.41,647.79,1226,656.67,1186,660,1191.48,606.46,1197.23,536.29,1157.41,496.48Z" transform="translate(-80.11 -50.35)"/><path class="cls-9" d="M1255.94,319.58c2.27,13.38,6.73,25.44,11.2,37.5,39,83.29,66.31,178.94,35.81,267,2.26-2.43,4.44-5,6.51-7.61C1356.46,556.26,1275.89,346.79,1255.94,319.58Z" transform="translate(-80.11 -50.35)"/><path class="cls-9" d="M612.8,196.7C718.37,132.64,777.53,117,867.43,99.64c243-46.79,421.71,106.4,457.66,136.17a868.49,868.49,0,0,1,102.1,97.68c-47.48-75-111.62-138.57-190.81-181.72-244-133-581.2-70.84-760.36,140C348.16,442.33,321.19,638.41,380.89,815c0,0-14.65-155.8-5.72-242.83C380.42,517,435.22,304.43,612.8,196.7Z" transform="translate(-80.11 -50.35)"/><path class="cls-21" d="M1229.93,216.58l-22.73-11.31c-7.52-3.75-15.85-9.44-24.25-10.74-9-1.4-14.41,2.05-17.82,7.65-2-1.74-4.06-3.41-6.19-5-11-8-28-19.7-41.32-10.09a15.58,15.58,0,0,0-3.19,3.07,280.5,280.5,0,0,0-14.88-24.26c-7.1-10.33-27.21-7.12-27.92,6.64a385.29,385.29,0,0,0,.14,42.32,16.14,16.14,0,0,0-1.94,3,44.42,44.42,0,0,0-14.25-6.48c-27.64-7-53.1,25.68-38.47,38.2,5.81,5,17.28,4.88,21.83-2.4,8.72-13.94,20.28,2.09,26.22,10.37a14.78,14.78,0,0,0,12.7,6.28q1.85,9.66,4.17,19.29c1.8,7.41,11.29,11.25,18,9.58a15.55,15.55,0,0,0,12-16.51c-.38-3.77-.9-7.52-1.48-11.25,1.46,6,2.71,12.09,3.7,18.22,3.19,19.72,31.92,17.05,30.92-3q-1-20.25-2-40.51c-.26-5.41-.67-10.88-1-16.35l3.07,2.63a78.68,78.68,0,0,1,15.73,19.11c7.09,11.59,26.2,6.13,27.92-6.64l1-7.17,6.19,3.08L1217.38,245C1235.28,253.91,1247.82,225.49,1229.93,216.58Z" transform="translate(-80.11 -50.35)"/><path class="cls-21" d="M894.28,202.12l-21.14,3.79c-6.45,1.15-13.3,3.12-19.86,3.68l-.09-.15a21.51,21.51,0,0,0-4-4.16,30.34,30.34,0,0,0-18.38-7.68c-10.81-.66-21.32,4.33-30.2,10-3.45,2.21-6.91,4.75-10.8,6.13-.64.23-3.43.89-3.67,1l-.29.07c-6.9-7.09-19.6-5.88-24.52,3l-14.38,25.81c-3.2-12.6-10.33-22.85-23.27-26.81a16.11,16.11,0,0,0-13.35,2.44q-.13-7.95-.26-15.91c-.27-17-26.61-22.25-30.49-4.37l-3.9,17.9c-7.82-.62-13.32,4.07-16.28,11.18-1.56,3.75-3.06,7.53-4.52,11.31-4-2-9-2.12-14.15.12-7.12,3.1-11.79,9.69-14.06,16.93-1.75,5.56-1.46,12.34-2.88,17.22-4,13.78-25.88,9.18-36.08,7.83-8.32-1.1-15.64,7.61-15.74,15.31-.13,9.2,7,14.65,15.3,15.75,17.52,2.31,36.23,2.49,50.81-8a14.56,14.56,0,0,0,11.88,9.36,16.44,16.44,0,0,0,6.41-.48c2.8,10.78,17.72,14.51,25.6,7.77a39.25,39.25,0,0,0,6.34,16c3.69,5.2,8.65,8.7,15.37,7.83,5.72-.75,12.11-5,13.22-11.16q4.47-24.87,8.93-49.75a39.43,39.43,0,0,0,6.39,8.7c6.91,7.08,19.59,5.91,24.53-3l24.77-44.5a38.4,38.4,0,0,0,17.67-2.1,70.38,70.38,0,0,0,14.54-7.15c3.31-2.13,10.14-8.13,14.44-7.42,1.18.19,3.72,3.59,5.46,5.15a26.08,26.08,0,0,0,19.29,6.91c16.19-.84,32.91-5.59,48.86-8.44C921.47,228.74,913.87,198.61,894.28,202.12Z" transform="translate(-80.11 -50.35)"/><path class="cls-22" d="M1119.86,994.39a188.58,188.58,0,0,0,16.91-83.09,1386,1386,0,0,0-327.31,26.56c5.43,62.82,45.86,120.14,100.64,143.66,52.85,22.69,117.06,13,162.47-24.39C1092.71,1040.54,1108.81,1018.75,1119.86,994.39Z" transform="translate(-80.11 -50.35)"/><path class="cls-18" d="M1071.41,948.65c20.87-.61,54.79-21.62,65-37.36a1384.68,1384.68,0,0,0-301,21.61c18.92,12.7,28.8,26.94,59.66,28.48C947.82,964,1002.93,958.89,1071.41,948.65Z" transform="translate(-80.11 -50.35)"/><path class="cls-23" d="M889.1,1007.75c-14.73,2.8-30.6,12.71-40.78,26,16.72,20.79,37.87,37.52,61.78,47.79,46.29,19.87,101.29,15,144.75-11.74a94.12,94.12,0,0,0-9.26-12.36C1007.1,1010.9,945.8,996.51,889.1,1007.75Z" transform="translate(-80.11 -50.35)"/><path class="cls-24" d="M1578,1165.4a63.44,63.44,0,0,0,27.63-33.73c10.85-30.92-2-75.17-31.33-99.59s-76.56-22.83-98.94,9.31c-16.51,21.91-24.93,51.42-23.17,82.87.82,14.71,6.06,33,19.52,39.79,5.58,2.81,11.44,2.94,17.15,3.56,13.52,1.47,27.26,6,40.78,7.54C1547.16,1177.19,1564.18,1173.66,1578,1165.4Z" transform="translate(-80.11 -50.35)"/><path class="cls-10" d="M1553.06,1158.8l-1.75.29c17.7-6.7,31.19-19.95,37.48-41.62,10.56-40.1-40-83.84-83.47-75.44-35.1,11.19-50.31,44.94-52,81.18l-1.26-1.94c-.94-26.56,5.36-51.59,17.68-71.65,21.79-15.56,46.16-27.07,79-16a75.76,75.76,0,0,1,49.78,72.57C1595.41,1133.05,1581.48,1153.82,1553.06,1158.8Z" transform="translate(-80.11 -50.35)"/><path class="cls-16" d="M1578,1165.4c-13.79,8.26-30.81,11.79-48.36,9.75-13.52-1.57-27.26-6.07-40.78-7.54-5.71-.62-11.57-.75-17.15-3.56-13.46-6.77-18.7-25.08-19.52-39.79-.06-1-.07-2-.11-3,2.94,4.55,5.9,9.17,9,13.79,21.1,31.37,63.59,28.71,92,23.74s42.35-25.75,45.47-52.6a75.76,75.76,0,0,0-49.78-72.57c-32.86-11.08-57.23.43-79,16,1.75-2.84,3.62-5.6,5.6-8.23,22.38-32.14,69.58-33.72,98.94-9.31s42.18,68.67,31.33,99.59A63.44,63.44,0,0,1,1578,1165.4Z" transform="translate(-80.11 -50.35)"/><path class="cls-24" d="M545,1201.26a64.79,64.79,0,0,1-22.06,38.63c-25.5,21.6-72.32,25.51-106.28,6.44s-49.66-64.6-27.2-97.64c14.85-23.71,39.9-42.49,70.5-52.28,14.31-4.58,33.66-6.26,45,4.09,4.71,4.3,7,9.83,9.64,15,6.33,12.34,15.62,23.79,22,36.1C545,1167.62,547.79,1185.12,545,1201.26Z" transform="translate(-80.11 -50.35)"/><path class="cls-10" d="M529.58,1180c-.11-.59-.23-1.18-.35-1.78.06,19.3-7.64,37-26,50.87-34.36,24.67-94.47-7.58-102.29-52-2.13-37.51,24.48-64.3,58.38-79.13l-2.31-.49c-25.64,8.78-47.19,23.91-61.8,43-6.89,26.43-9,53.84,13.55,81.1a77.3,77.3,0,0,0,87.28,21C520.49,1229.68,535.2,1208.83,529.58,1180Z" transform="translate(-80.11 -50.35)"/><path class="cls-16" d="M545,1201.26c2.84-16.14,0-33.64-8.33-49.61-6.43-12.31-15.72-23.76-22-36.1-2.67-5.22-4.93-10.75-9.64-15-11.36-10.35-30.71-8.67-45-4.09-1,.31-1.93.66-2.89,1,5.41,1.14,10.88,2.28,16.42,3.56,37.58,8.66,50.53,50.1,56.14,79s-9.09,49.73-33.53,62.48a77.3,77.3,0,0,1-87.28-21c-22.52-27.26-20.44-54.67-13.55-81.1q-3.12,4-5.81,8.33c-22.46,33-6.76,78.57,27.2,97.64s80.78,15.16,106.28-6.44A64.79,64.79,0,0,0,545,1201.26Z" transform="translate(-80.11 -50.35)"/><path class="cls-16" d="M951.47,1603.58c-7.07-45.17-127.59-55.5-140-28.43-9,19.6-15.06,39.62-13.54,61.13q7,98.91,22.28,197c-4.33,5-10.18,9.23-15.11,13.84-7.85,7.33-13.87,20.06-7,28.29,6.16,7.35,17.72,5.47,27,2.93,30.82-8.44,64.17-18.62,82.38-44.89,11.77-17,15.27-38.16,18.47-58.57,8.54-54.46,18.54-108.71,25.62-163.38A28.37,28.37,0,0,0,951.47,1603.58Z" transform="translate(-80.11 -50.35)"/><path class="cls-24" d="M826.72,1712.49c-3,41-7.6,129.19,48.64,112.47,41-12.16,51.68-76,25.84-112.47-10.39-15.18-26.24-22.38-43.57-26.24a64.33,64.33,0,0,0-19.69,5A38.48,38.48,0,0,0,826.72,1712.49Z" transform="translate(-80.11 -50.35)"/><path class="cls-10" d="M857.63,1686.25c17.33,3.86,33.18,11.06,43.57,26.24C927,1749,916.4,1812.8,875.36,1825c-56.24,16.72-51.68-71.44-48.64-112.47a38.48,38.48,0,0,1,11.22-21.19,55.5,55.5,0,0,0-15.78,10.55c-12.16,12.16-10.64,31.91-6.08,48.63,9.12,31.92-4.56,73,16.72,92.72,26.55,24.34,55.52-2,83.39-26.43,5.15-13.23,7.52-27.74,9.74-41.88,3.49-22.25,7.22-44.48,10.9-66.7C913.61,1694.47,883.79,1683.63,857.63,1686.25Z" transform="translate(-80.11 -50.35)"/><path class="cls-25" d="M932.29,1777.79q7.69.4,15.4.76c-2.47,39.9-4.55,94.77-11.62,130.47H706.52a41.13,41.13,0,0,1-1-21.15c3.49-15.39,14.49-26.59,26.3-33s24.7-9,37.09-13.47c10.72-3.84,21.51-9.45,29.41-19q-17-29.32-33.94-58.65Q848.15,1773.43,932.29,1777.79Z" transform="translate(-80.11 -50.35)"/><path class="cls-26" d="M787.1,1832.38a52.76,52.76,0,0,0,11.17-10l-1.74-3c6.86.57,13.69.59,21.07.59A207.83,207.83,0,0,0,787.1,1832.38Z" transform="translate(-80.11 -50.35)"/><path class="cls-26" d="M936,1778l2.88.14c1.78,28.34,2.64,56.07-8.1,80.23-19.11,38.22-61.51,45.37-106.75,44.42C887.61,1892.16,943.69,1849.62,936,1778Z" transform="translate(-80.11 -50.35)"/><path class="cls-27" d="M705.47,1887.87c3.49-15.39,14.49-26.59,26.3-33s24.7-9,37.09-13.47c1.45-.52,2.91-1.08,4.36-1.67-14.68,8.19-29.08,17.45-44.52,26.72-10.1,6.06-8.08,28.28,4,30.3,66.68,2,165.68,26.27,198-38.39,10.74-24.16,9.88-51.89,8.1-80.23l8.84.44c-2.47,39.9-4.55,94.77-11.62,130.47H706.52A41.13,41.13,0,0,1,705.47,1887.87Z" transform="translate(-80.11 -50.35)"/><path class="cls-28" d="M782.17,1717.94a565.24,565.24,0,0,1,6.34-123.59c5.18-31.9,13.82-64.78,36.3-89.24s62.35-37.56,92.66-22.17c17.17,8.72,28.78,25.1,34.72,42.52s6.81,36,6.93,54.24a714.42,714.42,0,0,1-12,135.2Z" transform="translate(-80.11 -50.35)"/><path class="cls-29" d="M929.81,1679.46c-17.73,37.22-95.71,31.91-113.43-7.08-26.3-58.78,4.1-120.25,37-173.83-21.5,17.82-38.6,38.9-44.1,67.49-7.09,39-28.36,79.75-10.64,113.42,21.27,40.77,86.85,30.13,131.16,21.27,14.18-3.54,17.72-19.49,21.26-33.67a302.61,302.61,0,0,0,6.15-30.67q2.07-28.31,1.9-56.69,0-5.27-.18-10.55C956.63,1608.8,944.38,1648.78,929.81,1679.46Z" transform="translate(-80.11 -50.35)"/><path class="cls-30" d="M951.07,1667.06c-3.54,14.18-7.08,30.13-21.26,33.67-44.31,8.86-109.89,19.5-131.16-21.27-17.72-33.67,3.55-74.43,10.64-113.42,7.93-41.23,40-66.85,74.56-89.56-22.09,1.44-44.3,12.59-59,28.63-22.48,24.46-31.12,57.34-36.3,89.24a565.24,565.24,0,0,0-6.34,123.59l164.92-3a716.29,716.29,0,0,0,10.13-78.51A302.61,302.61,0,0,1,951.07,1667.06Z" transform="translate(-80.11 -50.35)"/><path class="cls-16" d="M1069.28,1606.62c7.06-45.18,127.59-55.5,140-28.43,9,19.6,15.06,39.62,13.54,61.12q-7,98.93-22.28,197c4.33,5,10.17,9.24,15.11,13.85,7.85,7.33,13.87,20.06,7,28.29-6.16,7.34-17.72,5.46-27,2.93-30.82-8.45-64.17-18.63-82.38-44.89-11.77-17-15.27-38.16-18.47-58.57-8.54-54.46-18.54-108.72-25.62-163.39A27.93,27.93,0,0,1,1069.28,1606.62Z" transform="translate(-80.11 -50.35)"/><path class="cls-24" d="M1194,1715.52c3,41,7.6,129.2-48.64,112.48-41-12.16-51.68-76-25.84-112.48,10.39-15.18,26.24-22.37,43.57-26.23a64.19,64.19,0,0,1,19.68,5A38.43,38.43,0,0,1,1194,1715.52Z" transform="translate(-80.11 -50.35)"/><path class="cls-10" d="M1163.12,1689.29c-17.33,3.86-33.18,11-43.57,26.23-25.84,36.48-15.2,100.32,25.84,112.48,56.24,16.72,51.68-71.44,48.64-112.48a38.43,38.43,0,0,0-11.23-21.18,55.37,55.37,0,0,1,15.79,10.54c12.16,12.16,10.64,31.92,6.08,48.64-9.12,31.92,4.56,73-16.72,92.72-26.55,24.33-55.52-2.06-83.39-26.43-5.15-13.23-7.52-27.74-9.74-41.88-3.49-22.26-7.22-44.48-10.9-66.71C1107.14,1697.51,1137,1686.67,1163.12,1689.29Z" transform="translate(-80.11 -50.35)"/><path class="cls-25" d="M1088.46,1780.83q-7.7.4-15.4.75c2.47,39.91,4.55,94.78,11.62,130.48h229.55a41.14,41.14,0,0,0,1-21.15c-3.49-15.39-14.49-26.59-26.3-33s-24.7-9-37.09-13.47c-10.72-3.85-21.51-9.46-29.41-19l33.94-58.66Q1172.6,1776.46,1088.46,1780.83Z" transform="translate(-80.11 -50.35)"/><path class="cls-26" d="M1233.65,1835.42a52.76,52.76,0,0,1-11.17-10l1.74-3c-6.86.58-13.69.59-21.07.59A209,209,0,0,1,1233.65,1835.42Z" transform="translate(-80.11 -50.35)"/><path class="cls-26" d="M1084.78,1781l-2.88.14c-1.78,28.34-2.64,56.07,8.1,80.23,19.11,38.21,61.51,45.37,106.75,44.42C1133.14,1895.2,1077.06,1852.66,1084.78,1781Z" transform="translate(-80.11 -50.35)"/><path class="cls-27" d="M1315.28,1890.91c-3.49-15.39-14.49-26.59-26.3-33s-24.7-9-37.09-13.47c-1.46-.52-2.91-1.09-4.36-1.68,14.68,8.2,29.08,17.46,44.52,26.72,10.1,6.06,8.08,28.29-4,30.31-66.68,2-165.68,26.27-198-38.39-10.74-24.16-9.88-51.89-8.1-80.23-2.94.15-5.89.3-8.84.43,2.47,39.91,4.55,94.78,11.62,130.48h229.55A41.14,41.14,0,0,0,1315.28,1890.91Z" transform="translate(-80.11 -50.35)"/><path class="cls-28" d="M1238.58,1721a564.68,564.68,0,0,0-6.35-123.6c-5.17-31.89-13.81-64.78-36.29-89.24s-62.35-37.55-92.66-22.16c-17.17,8.72-28.78,25.1-34.72,42.52s-6.81,36-6.93,54.24a714.5,714.5,0,0,0,12,135.2Z" transform="translate(-80.11 -50.35)"/><path class="cls-29" d="M1090.94,1682.5c17.73,37.22,95.71,31.9,113.43-7.09,26.3-58.77-4.1-120.25-37-173.82,21.5,17.81,38.6,38.89,44.1,67.48,7.09,39,28.36,79.76,10.63,113.43-21.26,40.77-86.84,30.13-131.15,21.27-14.18-3.55-17.72-19.5-21.27-33.67a304.94,304.94,0,0,1-6.14-30.68q-2.07-28.29-1.9-56.68,0-5.28.18-10.56C1064.12,1611.83,1076.37,1651.82,1090.94,1682.5Z" transform="translate(-80.11 -50.35)"/><path class="cls-30" d="M1069.67,1670.1c3.55,14.17,7.09,30.12,21.27,33.67,44.31,8.86,109.89,19.5,131.15-21.27,17.73-33.67-3.54-74.44-10.63-113.43-7.93-41.23-40-66.84-74.56-89.55,22.09,1.44,44.3,12.59,59,28.62,22.48,24.46,31.12,57.35,36.3,89.24a565.3,565.3,0,0,1,6.34,123.6l-164.92-3a716.47,716.47,0,0,1-10.13-78.52A304.94,304.94,0,0,0,1069.67,1670.1Z" transform="translate(-80.11 -50.35)"/><g id="desk"><rect class="cls-31" x="884.09" y="1677.96" width="68.05" height="225.98"/><rect class="cls-31" x="1156.63" y="1678.07" width="30.74" height="225.98"/><polygon class="cls-32" points="1245.02 1497.47 1180 1497.44 890.99 1497.31 816.13 1497.27 727.25 1497.23 727.07 1903.85 890.8 1903.93 890.9 1677.95 1179.92 1678.08 1179.82 1904.06 1343.55 1904.13 1343.73 1497.51 1245.02 1497.47"/><path class="cls-33" d="M1269,1882.5s-.61-152.18-1.82-159-307.89-7-307.9,2.12S959.2,1905,959.2,1905c-3.63,49.49-91.76,38.78-91.76,38.78-36.76-4-48.51-18.1-48.5-38.84l.16-345.61,593,.27-1.47,351.57c-3.05,32.42-63,31.54-101.42,31.54S1270.21,1923.68,1269,1882.5Z" transform="translate(-80.11 -50.35)"/><path class="cls-34" d="M1295.06,1927.11c-17.36-5.93-15.77-33.48-15.77-40.37l-3.6-166.86c-1.79-23.05-308.77-20-323.76-3.63S947.47,1905,947.47,1905c-.08,45.35-90.32,32-90.32,32-30.74-4-34.22-20.9-34.22-45.43L830.8,1630a51.63,51.63,0,0,1,51.66-51.61l466.27.21a51.62,51.62,0,0,1,51.61,51.65l-.12,275C1400.21,1919.42,1347.15,1944.92,1295.06,1927.11Z" transform="translate(-80.11 -50.35)"/><rect class="cls-32" x="652.09" y="1490.21" width="762.79" height="25.51"/><path class="cls-34" d="M721.38,1539.23l784.46.35c4.27,2.16,1,5.66-5.33,5.65l-773.81-.35C720.39,1544.88,717.11,1541.39,721.38,1539.23Z" transform="translate(-80.11 -50.35)"/></g><g id="LAPTOP"><path class="cls-35" d="M1570.33,1259.07H1240.62c-9.37,0-18.77,7.66-20.9,17l-53,233.27c-2.13,9.37,3.79,17,13.16,17H1509.6c9.37,0,18.77-7.66,20.9-17l53-233.27C1585.62,1266.73,1579.7,1259.07,1570.33,1259.07Z" transform="translate(-80.11 -50.35)"/><path class="cls-36" d="M1579.56,1259.07H1249.84c-9.36,0-18.76,7.66-20.89,17l-53,233.27c-2.13,9.37,3.79,17,13.15,17h329.72c9.36,0,18.77-7.66,20.89-17l53-233.27C1594.85,1266.73,1588.92,1259.07,1579.56,1259.07Z" transform="translate(-80.11 -50.35)"/><path class="cls-37" d="M1401.72,1509.72a90.35,90.35,0,0,0,87.71-68.67l28.7-116.06a40.32,40.32,0,0,0-39.31-49.24h-229c-1.46,0-4.2,2.17-4.63,4L1193,1509.72Z" transform="translate(-80.11 -50.35)"/><path class="cls-38" d="M1393.15,1494.85a83.28,83.28,0,0,0,80.84-63.29l26.45-107a37.16,37.16,0,0,0-36.23-45.39h-211c-1.35,0-3.88,2-4.27,3.73l-48.14,211.92Z" transform="translate(-80.11 -50.35)"/><path class="cls-39" d="M1373.81,1486c23.62,0,44.09-34.34,49.76-60.41l23.21-106.68a13.16,13.16,0,0,0-2.1-10.08,10.18,10.18,0,0,0-8.35-4.56H1248.65L1215.55,1486Z" transform="translate(-80.11 -50.35)"/><path class="cls-35" d="M1065.26,1539.58h457.46a6.6,6.6,0,0,0,6.59-6.59h0a6.61,6.61,0,0,0-6.59-6.59H1065.26a6.62,6.62,0,0,0-6.6,6.59h0A6.61,6.61,0,0,0,1065.26,1539.58Z" transform="translate(-80.11 -50.35)"/><path class="cls-36" d="M1162.91,1539.58h359.81a6.6,6.6,0,0,0,6.59-6.59h0a6.61,6.61,0,0,0-6.59-6.59H1162.91a6.61,6.61,0,0,0-6.59,6.59h0A6.6,6.6,0,0,0,1162.91,1539.58Z" transform="translate(-80.11 -50.35)"/><path class="cls-40" d="M1145.45,1533a2.62,2.62,0,1,1-2.62-2.62A2.62,2.62,0,0,1,1145.45,1533Z" transform="translate(-80.11 -50.35)"/></g></g></g><g id="headset"><path class="cls-41" d="M943.84,1229.78c-424.76,57.57-468.37-165-468.76-167.28l8.62-1.5c.39,2.16,43.12,216.47,459,160.1Z" transform="translate(-80.11 -50.35)"/><path class="cls-41" d="M953.17,1243.3l-43.76,5.93a19.09,19.09,0,0,1-21.42-16.3h0a19.11,19.11,0,0,1,16.31-21.42l43.76-5.93a19.08,19.08,0,0,1,21.41,16.31h0A19.08,19.08,0,0,1,953.17,1243.3Z" transform="translate(-80.11 -50.35)"/><path class="cls-42" d="M1525.07,601.66h0a50.6,50.6,0,0,1,56.76,43.21l22.31,164.64a50.57,50.57,0,0,1-43.2,56.76h0a50.59,50.59,0,0,1-56.77-43.2l-22.31-164.64A50.6,50.6,0,0,1,1525.07,601.66Z" transform="translate(-80.11 -50.35)"/><path class="cls-39" d="M1445.1,517.86h0c51-6.91,98.38,29.16,105.3,80.16l34,250.75c6.91,51-29.16,98.38-80.16,105.3h0c-51,6.91-56.37-34.86-63.29-85.86l-34-250.75C1400,566.46,1394.1,524.77,1445.1,517.86Z" transform="translate(-80.11 -50.35)"/><path class="cls-43" d="M1501.52,936.17c-20.61,0-26.36-11.71-34.2-69.59L1433.09,614.1c-3.13-23.07-6.08-44.87-2.78-59,1.87-8,5.34-16.06,25.06-18.73a74.92,74.92,0,0,1,84.31,64.19l34,250.74a75,75,0,0,1-64.18,84.32A60.91,60.91,0,0,1,1501.52,936.17Z" transform="translate(-80.11 -50.35)"/><path class="cls-44" d="M1525.58,909.76c-3.42-4.41-54-353.89-51.6-353.89a54.92,54.92,0,0,1,54.25,47.37l34,250.75a54.36,54.36,0,0,1-10.71,40.47C1542.64,906.11,1526.06,909.84,1525.58,909.76Z" transform="translate(-80.11 -50.35)"/><path class="cls-42" d="M362,757.12h0A50.58,50.58,0,0,0,320.3,815l26.52,164a50.58,50.58,0,0,0,57.84,41.74h0a50.59,50.59,0,0,0,41.75-57.85l-26.52-164A50.59,50.59,0,0,0,362,757.12Z" transform="translate(-80.11 -50.35)"/><path class="cls-39" d="M414.19,653.68h0c-50.81,8.21-85.66,56.51-77.44,107.31l40.39,249.8c8.22,50.81,56.51,85.66,107.32,77.44h0c50.8-8.21,43.79-49.74,35.58-100.55l-40.4-249.79C471.43,687.08,465,645.46,414.19,653.68Z" transform="translate(-80.11 -50.35)"/><path class="cls-43" d="M481.84,1070.32c19.72-6,21.82-18.87,12.49-76.53L453.66,742.27c-3.72-23-7.23-44.7-14.51-57.29-4.11-7.12-9.78-13.81-29.42-10.63a74.92,74.92,0,0,0-62,85.93l40.4,249.79a75,75,0,0,0,85.92,62A59.81,59.81,0,0,0,481.84,1070.32Z" transform="translate(-80.11 -50.35)"/><path class="cls-44" d="M451.14,1052.05c2-5.22-51.22-354.31-53.54-353.61a54.93,54.93,0,0,0-38.13,61.1l40.4,249.8a54.36,54.36,0,0,0,22,35.61C433.76,1053.52,450.71,1052.26,451.14,1052.05Z" transform="translate(-80.11 -50.35)"/><path class="cls-39" d="M1277.58,169.09C1172.87,72,1033.09,34.23,862.15,56.59v-.07L858.5,57v.08c-170.72,24-295.4,97.58-370.5,219-84.8,137.15-85.75,300.39-76.92,394.15,10-.66,20-.84,30.08-.85-8.25-88.8-7.93-245.89,71.57-374.46,70.52-114,189-183.24,352-205.73,163-21.71,295.55,13.4,393.87,104.44C1368.37,295.32,1410.84,445,1426.94,533.25c9.94-1.39,19.85-3,29.75-4.57C1440.26,436,1395.89,278.77,1277.58,169.09Z" transform="translate(-80.11 -50.35)"/></g></g></svg>