<svg id="Layer_1" data-name="Layer 1" xmlns="http://www.w3.org/2000/svg" viewBox="0 0 251.33 325"><defs><style>.cls-1{fill:#fff;}.cls-2{opacity:0.05;}.cls-3,.cls-4{opacity:0.1;}</style></defs><title>document</title><g id="Text"><g id="Paper"><path class="cls-1" d="M185.17,137.5a10.83,10.83,0,0,0-10.84,10.83V451.66a10.84,10.84,0,0,0,10.84,10.84H414.83a10.84,10.84,0,0,0,10.84-10.84V204.31L358.86,137.5Z" transform="translate(-174.33 -137.5)"/><path class="cls-2" d="M300,462.5H414.83a10.84,10.84,0,0,0,10.84-10.84V204.31L358.86,137.5H300Z" transform="translate(-174.33 -137.5)"/><path class="cls-3" d="M356.83,193l2-55.47,66.81,66.81-57.66.21A12.24,12.24,0,0,1,356.83,193Z" transform="translate(-174.33 -137.5)"/><path class="cls-1" d="M360.65,189.15l-1.79-51.65,66.81,66.81-53.83-3.61A12.25,12.25,0,0,1,360.65,189.15Z" transform="translate(-174.33 -137.5)"/></g><g id="Text-2" data-name="Text" class="cls-4"><rect x="46.2" y="93.24" width="158.94" height="21.43"/><rect x="46.2" y="132.54" width="158.94" height="21.43"/><rect x="46.2" y="171.83" width="158.94" height="21.43"/><rect x="46.2" y="211.13" width="158.94" height="21.43"/><rect x="46.2" y="250.42" width="158.94" height="21.43"/></g></g></svg>