<?xml version="1.0" encoding="utf-8"?>
<!-- Generator: Adobe Illustrator 24.0.0, SVG Export Plug-In . SVG Version: 6.00 Build 0)  -->
<svg version="1.1" id="Layer_1" xmlns="http://www.w3.org/2000/svg" xmlns:xlink="http://www.w3.org/1999/xlink" x="0px" y="0px"
	 viewBox="0 0 146.9 146.9" style="enable-background:new 0 0 146.9 146.9;" xml:space="preserve">
<style type="text/css">
	.st0{fill:#FFFFFF;}
</style>
<title>hand</title>
<g id="Objects">
	<path class="st0" d="M76.7,46.7c-1.6,0.9-10.9,6.1-8.6,8c5.2,3,22.3,6.3,24.2,7.4c1.9,1.1,4.7,8.6,6.1,8.2
		c1.3-0.4,18.6-13.5,19.7-14.6c-3.5-4.1-5.8-9.1-6.5-14.4c-1.1-8.5-13.2-21.6-18-28.8C88.6,5.2,85,1.1,82.1,3s4.4,10,7.9,14.8
		s2.4,4.8,0.4,5c-2,0.2-8.9-11.3-13.8-18.7c-4.9-7.4-9.1-3.4-6,1.6S78.6,18.2,83,22.6s1,8.4-0.9,4.8C78.7,22,66.5,2.1,62.5,4.5
		s0.7,9.1,7.7,17.4s6.8,11.5,5.3,11.2s-11.2-14-14.8-18.5c-3.6-4.5-8.4-0.6-5.3,4C58.4,23.2,78.2,45.8,76.7,46.7z"/>
	<path class="st0" d="M68.4,97.3c1.6-0.9,10.9-6.1,8.6-8c-5.2-3-22.3-6.3-24.2-7.4c-1.9-1.1-4.7-8.6-6.1-8.2
		c-1.3,0.4-18.6,13.5-19.7,14.6c3.5,4.1,5.8,9.1,6.5,14.4c1.1,8.5,13.2,21.6,18,28.8c4.8,7.2,8.4,11.4,11.4,9.4s-4.4-10-7.9-14.8
		c-3.6-4.8-2.4-4.8-0.4-5c2-0.2,8.9,11.3,13.8,18.7c4.9,7.4,9.1,3.4,5.9-1.6c-3.2-5.1-8.1-12.4-12.5-16.9s-1-8.4,0.9-4.8
		c3.5,5.4,15.7,25.3,19.7,22.9s-0.7-9.1-7.7-17.4s-6.8-11.5-5.3-11.2c1.5,0.2,11.2,14,14.8,18.5c3.6,4.5,8.4,0.6,5.3-4
		C86.7,120.8,66.9,98.2,68.4,97.3z"/>
	<path class="st0" d="M47.2,67.9c0.9,1.6,6.1,10.9,8,8.6c3-5.2,6.3-22.3,7.4-24.2s8.6-4.7,8.2-6.1c-0.4-1.3-13.5-18.6-14.6-19.7
		c-4.1,3.5-9.1,5.8-14.4,6.5c-8.5,1.1-21.6,13.2-28.8,18S1.6,59.5,3.5,62.5c1.9,3,10-4.4,14.8-7.9s4.8-2.4,5-0.4
		c0.2,2-11.3,8.9-18.7,13.8c-7.4,4.9-3.4,9.1,1.6,5.9s12.4-8.1,16.9-12.5s8.4-1,4.8,0.9C22.5,65.8,2.7,78,5.1,82s9.1-0.7,17.4-7.7
		c8.3-7,11.5-6.8,11.2-5.3s-14,11.2-18.5,14.8c-4.5,3.6-0.6,8.4,4,5.3C23.8,86.1,46.3,66.3,47.2,67.9z"/>
	<path class="st0" d="M138.8,70c-5.1,3.2-12.4,8.1-16.9,12.5s-8.4,1-4.8-0.9C122.5,78.2,142.4,66,140,62c-2.4-4-9.1,0.7-17.4,7.7
		s-11.5,6.8-11.2,5.3c0.2-1.5,14-11.2,18.5-14.8c4.5-3.6,0.6-8.4-4-5.3c-4.6,3.1-27.1,22.8-28,21.3c-0.9-1.5-6.1-10.9-8-8.6
		c-3,5.2-6.3,22.3-7.4,24.2c-1.1,1.9-8.6,4.7-8.2,6.1c0.4,1.3,13.5,18.6,14.6,19.7c4.1-3.5,9.1-5.8,14.4-6.5
		c8.5-1.1,21.6-13.2,28.8-18c7.2-4.8,11.4-8.4,9.4-11.4c-1.9-3-10,4.4-14.8,8c-4.8,3.6-4.8,2.4-5,0.4c-0.2-2,11.3-8.9,18.7-13.8
		C147.8,71.1,143.9,66.8,138.8,70z"/>
</g>
</svg>
