<svg xmlns="http://www.w3.org/2000/svg" viewBox="0 0 78.92 124.05"><defs><style>.cls-1{fill:#fff;}</style></defs><title>light</title><g id="Objects"><path class="cls-1" d="M289.58,398a5.26,5.26,0,0,0-5.25-5.25H265.52a5.26,5.26,0,0,0-5.25,5.25v2.14a5.43,5.43,0,0,0,.16,1.29,5.14,5.14,0,0,0,1,3.45l5.5,4.75,1.42,1.18.18.12,8.58,7a1.4,1.4,0,0,0,1.77-2.17L274.22,412c3,.08,6.25-.31,7.31-1.18,2-1.61,6.93-5.93,6.93-5.93a5.07,5.07,0,0,0,1-3.45,5,5,0,0,0,.17-1.29Z" transform="translate(-235.46 -294.23)"/><path class="cls-1" d="M303.9,306.84a38.74,38.74,0,0,0-29-12.61c-.81,0-1.62,0-2.43.07A40.34,40.34,0,0,0,247.62,305a39.61,39.61,0,0,0-11.27,36.61c1.86,8.42,6.62,15.86,14.54,22.74.86.75,1.8,1.45,2.71,2.14,2.38,1.78,4.83,3.62,6.14,6.4a12.08,12.08,0,0,1,.66,2.67c.33,1.86.67,3.77,1.83,4.64l0,0h25.15a15,15,0,0,0,1.95-4.75,16.43,16.43,0,0,1,1.08-3.07c1.32-2.55,3.57-4.33,5.94-6.22.54-.43,1.1-.87,1.65-1.33,10.82-8.94,16.32-19.44,16.33-31.2A39.79,39.79,0,0,0,303.9,306.84Zm-23.29-4a3.42,3.42,0,0,1-3.89,2c-18.75,1.11-29.43,11.79-30.54,30.54a3.44,3.44,0,0,1-2,3.89c-1.45.46-3.13-.75-3.45-2.82.6-22.57,14.48-36.45,37.05-37C279.86,299.67,281.07,301.35,280.61,302.8Z" transform="translate(-235.46 -294.23)"/><path class="cls-1" d="M289.54,387.27a1.68,1.68,0,0,0-1.68-1.67H262a1.67,1.67,0,0,0-1.67,1.67h0A1.68,1.68,0,0,0,262,389h25.88a1.68,1.68,0,0,0,1.68-1.68Z" transform="translate(-235.46 -294.23)"/></g></svg>