<svg id="Layer_1" data-name="Layer 1" xmlns="http://www.w3.org/2000/svg" viewBox="0 0 2568.99 1606.82"><defs><style>.cls-1{fill:#a8d29f;}.cls-2{fill:#afcdfb;}.cls-3{fill:#82b378;}.cls-4{fill:#599dad;}.cls-5{fill:#6bb7bf;}.cls-6{fill:#9abcef;}.cls-7{fill:#e9f3fe;}.cls-8{fill:#d8e8fd;}.cls-9{fill:#a8c3f7;}.cls-10{fill:#ffb27d;}.cls-11{fill:#e2915a;}.cls-12{fill:#233862;}.cls-13{fill:#2b478b;}.cls-14{fill:#22407a;}.cls-15{fill:#fff;}.cls-16{fill:#d9e9f9;}.cls-17{fill:#c65447;}.cls-18{fill:#ba4c43;}.cls-19{fill:#1c468a;}.cls-20{fill:#ed7d2b;}.cls-21{fill:#ed975d;}.cls-22{fill:#f99746;}</style></defs><title>sign</title><path class="cls-1" d="M530.53,1807.15s8.58-56.2,118-71.32,211.2-136.34,391.68-118.75,330.23,128,535.66,94.17,334.07,9.29,380.15,43.29,236.78-8,250.87,54.33Z" transform="translate(-236.73 -202.05)"/><path class="cls-2" d="M980.39,468s-123.51-6-58,370.4c0,0,44.08,127.78-11.57,210.14H1730V468Z" transform="translate(-236.73 -202.05)"/><path class="cls-3" d="M1855.79,662.64S1814.61,585,1876.3,555.36c0,0,43.48-14.56,74.26-5.65,0,0-60.89,64.19-48.25,74.78s62.7-76.42,62.7-76.42,89,11.15,114,30.92c0,0-88.15,44.17-73.28,51.32s108.72-34.55,108.72-34.55,78,32,62.5,80.5-45,46.29-57,42.22-69.57-59.78-83.24-26.78c-4,9.64,32,52.3,61.91,60.65,0,0-71.31,50.16-105.2,23.42s-30.64-56.28-51.88-72.42-41.45-20.66-34.16-7.43,47.72,33.58,55.88,60.57,16.66,45.88-21.3,31.13-95.36-57.87-90.76-91.42Z" transform="translate(-236.73 -202.05)"/><path class="cls-3" d="M2136.79,668.63s-218.23-58-281-6c0,0-18,29.78-57.68,51.66l-8.32,12.9s47.2-31.64,61.39-31C1851.18,696.2,1847.38,613.4,2136.79,668.63Z" transform="translate(-236.73 -202.05)"/><path class="cls-4" d="M1798.11,714.3s-55.11,24.32-72.44,86l8.4,2.7s29.62-61.16,62.57-80.27S1798.11,714.3,1798.11,714.3Z" transform="translate(-236.73 -202.05)"/><path class="cls-1" d="M1584.66,522.5S1462.72,458.91,1516,366.08c0,0,43.11-57.3,90.66-73.13,0,0-21.54,136.7,4.14,139.14s13-154,13-154,124.53-64.54,174.25-61.22c0,0-74.41,135.08-48.92,131.12S1858.58,207,1858.58,207s128.83-27.85,151.91,48.3-9.37,115.52-28.42,120.89-142.23,7.44-138.56,23.34,87.6,39,133.55,23.23c0,0-47.41,127.87-114.77,123.47s-89.39-45.36-131.07-47.32-71.73,10.14-50.6,20.72,91.26,1,125.7,28.5,62.14,44.34.15,59-174.17,10-198-37.32Z" transform="translate(-236.73 -202.05)"/><path class="cls-3" d="M1952,281.07S1619.42,399.82,1584.66,522.5c0,0,3.22,54.33-28.51,117.7l.72,24s32.75-82.61,51.61-94.37C1608.48,569.82,1530.17,466.5,1952,281.07Z" transform="translate(-236.73 -202.05)"/><path class="cls-5" d="M1556.15,640.2s-49.45,80.19-17.07,175l13.22-4s-16.08-105.07,9.44-158.91S1556.15,640.2,1556.15,640.2Z" transform="translate(-236.73 -202.05)"/><rect class="cls-6" x="795.6" y="488.79" width="855.2" height="1115.3"/><rect class="cls-7" x="823.56" y="488.79" width="840.82" height="1115.3"/><path class="cls-7" d="M1901.12,690.83H1060.29c4.65-63.58-2.36-109.76-13.59-143C1025.14,484,988,468,988,468h793c67.68,0,120.16,40.78,134.45,94.89q.8,3.06,1.46,6.09C1930.42,630.92,1901.68,689.7,1901.12,690.83Z" transform="translate(-236.73 -202.05)"/><path class="cls-8" d="M1901.12,690.83H1060.29c4.65-63.58-2.36-109.76-13.59-143,85.93,15.74,298.75,49.27,526.55,43.62,147.37-3.66,263.83-13.52,343.61-22.5C1930.42,630.92,1901.68,689.7,1901.12,690.83Z" transform="translate(-236.73 -202.05)"/><path class="cls-1" d="M1913.29,1761.82s26-90.28,56.42-79.63S1913.29,1761.82,1913.29,1761.82Z" transform="translate(-236.73 -202.05)"/><path class="cls-1" d="M1937,1756.9s66.29-43.51,80.85-30.06S1937,1756.9,1937,1756.9Z" transform="translate(-236.73 -202.05)"/><rect class="cls-9" x="876.32" y="594.52" width="741.09" height="42.38"/><rect class="cls-9" x="876.32" y="853.2" width="741.09" height="19.44"/><rect class="cls-9" x="876.32" y="898.95" width="741.09" height="19.44"/><rect class="cls-9" x="876.32" y="944.69" width="741.09" height="19.44"/><rect class="cls-9" x="876.32" y="990.44" width="741.09" height="19.44"/><rect class="cls-9" x="876.32" y="1036.19" width="741.09" height="19.44"/><rect class="cls-9" x="876.32" y="1081.93" width="741.09" height="19.44"/><path class="cls-9" d="M1330.06,1549.66a57.19,57.19,0,1,1-57.18-57.18A57.19,57.19,0,0,1,1330.06,1549.66Z" transform="translate(-236.73 -202.05)"/><path class="cls-9" d="M1569.47,1604.63a2.77,2.77,0,0,1-.49,0,2.85,2.85,0,0,1-2.33-3.3c.53-3.13,13.54-77.11,54.57-102.29,2.92-1.79,4.76-.86,5.59-.15,3.61,3.09.86,10.94-11.49,40.56-4.92,11.81-10.76,25.81-13.16,34.32,4.37-5.73,10.91-15.54,16.1-23.34,16.23-24.37,19.39-28.34,22.56-28.34a3.49,3.49,0,0,1,2.89,1.5c1.72,2.47.42,6.61-4.07,18.75-1.71,4.65-4.35,11.78-5.11,15.61,2.33-2.1,5.76-6.56,7.82-9.24,5.61-7.32,8.47-10.82,11.83-10.29a4.12,4.12,0,0,1,3.23,2.88,16.43,16.43,0,0,1,.67,3.13c.44,2.93.94,6.25,4.46,8.23,7.13,4,27.66,3.79,85-20.12a2.86,2.86,0,0,1,2.2,5.28c-48.42,20.18-77.86,26.67-90,19.83-5.91-3.33-6.8-8.91-7.3-12.29-1.63,1.72-3.9,4.67-5.56,6.83-6.2,8.08-10.28,12.94-14.44,12.6a3.89,3.89,0,0,1-3-1.84c-2-3.13,0-9.29,4.87-22.59.78-2.13,1.69-4.57,2.47-6.84-4,5.42-9.36,13.52-13.73,20.08-18.18,27.28-21.47,31.24-25.13,30.24a3.55,3.55,0,0,1-2.56-3.5c-.36-6.39,5.59-21.21,14.71-43.09,4.64-11.12,10.71-25.68,12.21-32.08-37.32,25.07-49.84,96.39-50,97.12A2.85,2.85,0,0,1,1569.47,1604.63Zm63.31-45.58Z" transform="translate(-236.73 -202.05)"/><path class="cls-10" d="M932.07,682.72l0,8.55s2.32,26.73-30.59,30.63-59.91,3.4-59-17.22c3-16,8.28-40.77,8.5-54a93.73,93.73,0,0,0-1.17-16l63.78-1.27,18.79,3.07Z" transform="translate(-236.73 -202.05)"/><path class="cls-11" d="M932.32,636.49l-.25,46.23a53.93,53.93,0,0,1-23,5.08c-29.31,0-48.26-21.5-58.16-37.1a93.73,93.73,0,0,0-1.17-16l63.78-1.27Z" transform="translate(-236.73 -202.05)"/><path class="cls-10" d="M844.86,624.43c7.4,39.83,58.79,38.52,81,36,6.25-.7,10.18-1.5,10.18-1.5,7.05-1.88,11-13,12.81-27.52,3.62-28.77-1-71-5.82-81.82-7.31-16.25-21.09-33.83-72.84-21.15S835.37,573.4,844.86,624.43Z" transform="translate(-236.73 -202.05)"/><path class="cls-12" d="M802.81,1803.6h72.82a175.17,175.17,0,0,0-5.81-26.14A74.89,74.89,0,0,0,865.7,1767c-7.08-14.14-52.07-5.14-52.07-5.14s-4.18,3.58-7.44,17.25A145.24,145.24,0,0,0,802.81,1803.6Z" transform="translate(-236.73 -202.05)"/><path class="cls-12" d="M1022.87,1780.62c.2,9.91,1.44,19.28,5,23h144c-1.83-5.21-7-13-21.81-15.45-16.8-2.72-43-10.81-58.28-27a43.37,43.37,0,0,1-11.29-20.43c-6.78-30.17-56,9.24-56,9.24A243.79,243.79,0,0,0,1022.87,1780.62Z" transform="translate(-236.73 -202.05)"/><path class="cls-13" d="M927.06,1454.47a227,227,0,0,1,3.62,26.61c4.58,89.32,75.18,293.54,87.81,298.3,19.54,7.38,50.31-8.3,66.41-13.43,6.67-2.13,11.18-8.86,9.69-15.68-35-160.74-47.81-392.21-52.49-529.25-2.36-69-14.21-116.7-14.21-116.7s-172.2-46-173.23,12.17C853.76,1167.93,911.71,1369.63,927.06,1454.47Z" transform="translate(-236.73 -202.05)"/><path class="cls-12" d="M927.06,1454.47l115-233.45c-2.36-69-14.21-116.7-14.21-116.7s-172.2-46-173.23,12.17C853.76,1167.93,911.71,1369.63,927.06,1454.47Z" transform="translate(-236.73 -202.05)"/><path class="cls-13" d="M965.38,1116.7l-91,659.79s-40,9.64-71.07,1.93c0,0-26.65-350.91-24.43-435.74s-19.13-227,4.87-242.69S965.38,1116.7,965.38,1116.7Z" transform="translate(-236.73 -202.05)"/><path class="cls-12" d="M958.91,511.71s-22.77-1.76-49.64-13.44c-21.81-9.48-49.32,1-58.25,5.67a13.32,13.32,0,0,1,2.17-5.38s-4,2.85-4.6,6.82c-.41.31-.59.51-.49.59s-4.54-.84-7.46.48c0,0,2-.29,2.77,1a1.13,1.13,0,0,0,.33.36c-34,16.44-37.16,70.2-26.21,82.64,13.17,15,29,48.67,29,48.67s5.76-8,3.36-21.13,9-13.17,23.35-19.16,2.4-22.75,15-32.93,58.67-4.19,58.07-12C963.35,547.72,958.91,513.46,958.91,511.71Z" transform="translate(-236.73 -202.05)"/><path class="cls-7" d="M834.66,716.14l21,449.71s174.93,2.86,169.93-36.73-63-399.21-63-399.21L834.66,716.14Z" transform="translate(-236.73 -202.05)"/><path class="cls-14" d="M772.2,971.05c10.41,31.22-9.21,136-16.21,171.47-1.53,7.51-2.56,12-2.56,12,24.23,39.41,113,38.9,113,38.9,17.06-75.42,25.93-195.53,25.93-195.53L824.24,699.41l-85.65,79.18s6.48,48.28,14.5,97.42C759.41,914.91,766.57,954.5,772.2,971.05Z" transform="translate(-236.73 -202.05)"/><path class="cls-15" d="M917.78,631s1.67,5.14,14.63,3.26c0,0,10.89-1.57,10.08-7.3C942.49,626.94,931.55,623.71,917.78,631Z" transform="translate(-236.73 -202.05)"/><path class="cls-14" d="M1016.11,722.55s0,.08,0,.19c4.14,4,120.92,117.39,143.54,161.8,23,45.05-105.27,134.79-105.27,134.79s-8.26,3.26-14,2c6,49.81,12.85,95.76,8.82,115.38-7.27,35.46-40.07,47.36-40.07,44.64,0-.87-8.45-129.29-18.51-195.62-22.32-147.22-48.95-285.39-48.95-285.39C979.9,704.29,1016.11,722.55,1016.11,722.55ZM1085.64,904a1,1,0,0,0,.17-.68c0-6.48-24.75-20.82-51.53-37.71l-.52-.51,0,0c.48,13.8.43,27.34-.39,40-1.52,23.37.18,51.31,3,79.76C1049.08,964.85,1083.14,911.33,1085.64,904Z" transform="translate(-236.73 -202.05)"/><path class="cls-16" d="M829.7,698.88c-.21-4.29,20.11-10.22,20.11-10.22s23.27,32.26,61.61,32.81c0,0-10.93,21.26-23.8,26.77C887.62,748.24,831,724.37,829.7,698.88Z" transform="translate(-236.73 -202.05)"/><path class="cls-17" d="M965.25,1025.42a42.43,42.43,0,0,1-13.52,27.44l-12.19,11.23a7.15,7.15,0,0,1-10.46-.83L914,1044.07a25.5,25.5,0,0,1-5.33-18.18c1.41-14.52,4-42.49,6.15-69.5,1.72-21.87,3.09-43.13,3.2-56.06.33-41.28-7.86-172.93-7.86-172.93l9.89.52S944.6,779,957.47,848.55a460.22,460.22,0,0,1,6.85,54.2S969.47,977.94,965.25,1025.42Z" transform="translate(-236.73 -202.05)"/><path class="cls-18" d="M965.25,1025.42a42.43,42.43,0,0,1-13.52,27.44l-12.19,11.23a7.15,7.15,0,0,1-10.46-.83L914,1044.07a25.5,25.5,0,0,1-5.33-18.18c1.41-14.52,4-42.49,6.15-69.5,27.35-30.72,38.43-73.19,42.68-107.84a460.22,460.22,0,0,1,6.85,54.2S969.47,977.94,965.25,1025.42Z" transform="translate(-236.73 -202.05)"/><path class="cls-16" d="M911.42,720.72s20.3-12,20.37-25.09c0,0,13.12-1.64,18.85,4.72,0,0,4.81,22.36-1.57,35.36C949.07,735.71,919.82,731.25,911.42,720.72Z" transform="translate(-236.73 -202.05)"/><path class="cls-18" d="M897.63,718.78l27.54-6.6s3.6.32,3.5,4.8-7.76,17.59-11.15,18.64S891.12,727.86,897.63,718.78Z" transform="translate(-236.73 -202.05)"/><path class="cls-7" d="M832.91,696.66c-.22-4.29,13.54-13.13,13.54-13.13s26.63,31.12,65,31.68c0,0-10.93,21.26-23.8,26.77C887.62,742,834.17,722.15,832.91,696.66Z" transform="translate(-236.73 -202.05)"/><path class="cls-7" d="M911.42,715.21S932,704.32,932,691.27c0,0,12.39,5.46,18.12,11.82,0,0,5.3,14.12-1.08,27.11C949.07,730.2,919.82,725.74,911.42,715.21Z" transform="translate(-236.73 -202.05)"/><path class="cls-10" d="M1062.59,1026.63c0-11.46-10.08-20.66-21.41-18.94a11.73,11.73,0,0,0-8,4.39c-7.8,10.38-15.22,40.59-1.4,42,5.62.58,12.85-3.37,18.41-7.6s12.35-11,12.35-18.12Z" transform="translate(-236.73 -202.05)"/><path class="cls-12" d="M756,1142.52c25.09-26.1,68.42-77.46,66.89-119.61-2-59-69.79-146.9-69.79-146.9,6.32,38.9,13.48,78.49,19.11,95C782.61,1002.27,763,1107,756,1142.52Z" transform="translate(-236.73 -202.05)"/><path class="cls-10" d="M756.78,1039.84s18,9,29,4.5,23.82-7.89,36.06,6,14.81,23.59,12.23,28.74-31.1,3.22-35.83,0-12.22-11.15-17-9.77c-13.1,3.81-24.14-6.18-30.31-14.14C747.21,1050.4,757.27,1048.08,756.78,1039.84Z" transform="translate(-236.73 -202.05)"/><path class="cls-14" d="M824.24,699.41s-71.81,8-88.75,39.23-105,158-102.12,210.69S753.5,1061.07,753.5,1061.07s26-11,26.36-22.78-81.06-82.37-76.12-95.54S798.36,825.43,807,791.09,824.24,699.41,824.24,699.41Z" transform="translate(-236.73 -202.05)"/><path class="cls-12" d="M1033.76,865.09l.52.51c26.78,16.89,51.53,31.23,51.53,37.71,3.58-11.43-31.23-59.21-42.49-68.93C1031.89,824.48,1033.76,865.09,1033.76,865.09Z" transform="translate(-236.73 -202.05)"/><path class="cls-12" d="M846.45,683.53S901,911.88,892.3,997.9c0,0-20-91.92-68.29-167.22,0,0,17.61-15.48,16.65-21.19,0,0-13.07-3.87-25.75-1.26,0,0,1.4-98.44,9.31-108.83S846.45,683.53,846.45,683.53Z" transform="translate(-236.73 -202.05)"/><path class="cls-12" d="M932,691.27c-.74.35,54,223.14,58.63,294.45,0,0-5.46-127.25-4.92-163.93,0,0-22.65-12-22.65-16.19S987.25,790,987.25,790,972,711.65,963.6,703,932,691.27,932,691.27Z" transform="translate(-236.73 -202.05)"/><path class="cls-12" d="M453.52,1804.49l158-.18a37.51,37.51,0,0,0,37.36-37.44l-.08-68.48A37.52,37.52,0,0,0,611.39,1661l-158,.19A37.51,37.51,0,0,0,416,1698.66l.08,68.48A37.51,37.51,0,0,0,453.52,1804.49Z" transform="translate(-236.73 -202.05)"/><path class="cls-13" d="M623,1678.88h0a37.69,37.69,0,0,0-28.88-18.73h0c-1.2-.11-2.43-.18-3.67-.18L559,1660l0-14.78a12.39,12.39,0,0,0-12.4-12.37h-8.2l-33.05,0h-5.95a12.4,12.4,0,0,0-12.37,12.4l0,14.78-54.32.06a37.64,37.64,0,0,0-37.49,37.58l.09,69.28a37.63,37.63,0,0,0,37.57,37.48l157.75-.17a36.7,36.7,0,0,0,8.1-.91h0a36.94,36.94,0,0,0,11.62-4.78,37.6,37.6,0,0,0,17.74-31.9l-.08-69.27A37.18,37.18,0,0,0,623,1678.88ZM494.72,1645.3a4.62,4.62,0,0,1,3.25-4.41,4.79,4.79,0,0,1,1.37-.22h7l26,0,14.17,0a4.63,4.63,0,0,1,4.63,4.61l0,14.78-56.45.06Z" transform="translate(-236.73 -202.05)"/><rect class="cls-19" y="1601.36" width="2568.99" height="5.46" rx="2.5"/><path class="cls-10" d="M1892.54,778.67c7,14.23,18.38,30.41,28.84,33.63,11.86,3.66,17.32,10,17.32,10l8.61-6.28,10.28-7.51s-.38-1.19-1.13-3.11-1.84-4.58-3.27-7.51a10.65,10.65,0,0,1-2.32-9.61c1.49-5.63.21-14-3.84-18.7s-8.75-17-10.82-16.36c-5,1.41,4.41,17.9,2.55,21.33-1.67,3.11-4.26,2.37-4.74,2.2l-.09,0c-15-4.81-36-37-43.24-31.64C1888,747.1,1889.53,772.61,1892.54,778.67Z" transform="translate(-236.73 -202.05)"/><path class="cls-20" d="M2185.17,743.19s-70.07,107.35-101.6,138.89l-127.83-83.63s-17.41,6.53-24.08,24.81c0,0,83.51,146.67,157,148.6s164.54-192.05,164.54-192.05Z" transform="translate(-236.73 -202.05)"/><path class="cls-12" d="M2435.79,1807.12H2489c6.7-3.64,12.66-12,14.55-24.38,2.6-17.14,21.81-26.48,26-40.5s-17.13-33.74-17.13-33.74l-3.56-4.59-3.71-4.76-35.3,8.31s-.88,8.41-1.41,19.12a243.79,243.79,0,0,0-.15,24.49c1,18.69-5.23,38.82-21.84,42.46C2434.11,1796.21,2434.66,1803.5,2435.79,1807.12Z" transform="translate(-236.73 -202.05)"/><path class="cls-12" d="M2127.07,1807.12h121.65c5.85-7.14,3.7-33.49,2.81-42.09-.18-1.74-.31-2.75-.31-2.75s-41.54-33.22-47.24-7.78c-.18.8-.39,1.58-.62,2.35-7.19,23.79-39.43,34.61-58.05,37.62C2133.2,1796.43,2128.73,1802.73,2127.07,1807.12Z" transform="translate(-236.73 -202.05)"/><path class="cls-14" d="M2150.25,1128.08s6.31,78.7,13.72,173.3c10.08,128.51,22.2,286.36,23.4,316.26,2.07,51.93,10.38,135,10.38,135s19.72,19.73,59.19,11.41c0,0,35.17-118.57,45.21-244,.16-2.06.31-4.13.47-6.2,9.34-127.71,23.88-396.64,23.88-396.64Z" transform="translate(-236.73 -202.05)"/><path class="cls-12" d="M2150.25,1128.08s6.31,78.7,13.72,173.3L2302.15,1520c.16-2.06.31-4.13.47-6.2,9.34-127.71,23.88-396.64,23.88-396.64Z" transform="translate(-236.73 -202.05)"/><path class="cls-14" d="M2179.06,1137.42s113.69,285,188.45,419,98.12,171.33,98.12,171.33,42.83-17.14,46.73-28.82c0,0-28.59-258.58-78.65-321.61-28.29-35.62-61.52-142.51-63.08-179.89S2360.5,1086,2360.5,1086Z" transform="translate(-236.73 -202.05)"/><path class="cls-10" d="M2207.36,721.93c44.43,14,121.31-23.82,121.31-23.82s-41-30.74-38.82-94.67l-34.36,27.69-23.33,18.8s.09,11.08,2.65,30.51c.67,5.11,1.51,10.81,2.57,17A106.1,106.1,0,0,0,2207.36,721.93Z" transform="translate(-236.73 -202.05)"/><path class="cls-21" d="M2232.16,649.93s.09,11.08,2.65,30.51c25.85-4.43,55.18-46.22,55.18-46.22-13.16-3.81-24.69-4.49-34.5-3.09Z" transform="translate(-236.73 -202.05)"/><path class="cls-10" d="M2218.57,648.88s73.39,12.19,80.28-33.63,21-75.1-25.57-84.82S2215,536.82,2209,551.55,2199.66,644.52,2218.57,648.88Z" transform="translate(-236.73 -202.05)"/><path class="cls-22" d="M2145.35,1134.63a7.14,7.14,0,0,0,4.67,1.78c16.68-.22,65.34,9,106.5,4.82,34.71-3.34,65.43-13.62,98.41-28.4,4.38-2,14.46-7.35,14.24-12.25-.15-5.36-.68-13.13-1.35-22.92-2.33-34.05-6.4-92.62-2.44-160.18.72-12.58,1.09-25.06,1.14-37.35.34-91.57-17.82-172.11-54.31-199.37-3.11-2.23-22.25,7.12-39.83,15.79-16.24,8-32.48,8.9-47.83,5.79l-15.34,13.57c-18.69,17.35-39.16,40.94-48.06,76.75-7.57,30.48-12,85.44-14.46,142.4-1.11,25.81-2,51.84-2.24,76.54v.88c-.21,2.45-.21,5.13-.21,7.57C2143.34,1083.46,2144.24,1133.74,2145.35,1134.63Z" transform="translate(-236.73 -202.05)"/><path class="cls-20" d="M2367.82,1077.66c-2.33-34.05-6.4-92.62-2.44-160.18.72-12.58,1.09-25.06,1.14-37.35-15.2-36.87-27.63-63.6-27.63-63.6h-38.31S2272.5,1008.37,2367.82,1077.66Z" transform="translate(-236.73 -202.05)"/><path class="cls-12" d="M2298.91,610.84s-7.53-1.26-6.32-11.63,1.2-23.93-7.23-21.4-8.86,9.27-12.32,5.33-3.53-20.55-28.62-21.71-35.3,7.58-47,2.45-12.29-22.8-12.29-22.8,3.32,6.31,8.33,8.32c0,0-19.47-26.63,3.07-44.89s45.53-6.31,58.57-5.52c28.74,1.74,47.31,3.47,56.69,22.35S2317.35,592.66,2298.91,610.84Z" transform="translate(-236.73 -202.05)"/><path class="cls-12" d="M1579.82,523.65l69,42.63,7.72-12.5-69-42.63a7.35,7.35,0,0,0-10.11,2.39h0A7.35,7.35,0,0,0,1579.82,523.65Z" transform="translate(-236.73 -202.05)"/><path class="cls-5" d="M2318.22,913.89l-18.5,44.59.37.23-.88,1-.52,1.24-.36-.23-31.62,36.48s-473.81-292.71-651.81-443a15.07,15.07,0,0,1-3.07-19.44h0a15.06,15.06,0,0,1,18.75-5.93C1844.57,620.91,2318.22,913.89,2318.22,913.89Z" transform="translate(-236.73 -202.05)"/><path class="cls-4" d="M1622.11,527.88a15,15,0,0,0,4.68,7.13c178,150.27,651.8,443,651.8,443l25-28.85-3.87,9.33.37.23-.88,1-.52,1.24-.36-.23-31.62,36.48s-473.81-292.71-651.81-443a15.07,15.07,0,0,1,7.21-26.36Z" transform="translate(-236.73 -202.05)"/><path class="cls-12" d="M2761,1270.89l-82-50.7,23-37.16,82,50.7a21.84,21.84,0,0,1,7.09,30.06h0A21.85,21.85,0,0,1,2761,1270.89Z" transform="translate(-236.73 -202.05)"/><path class="cls-5" d="M2253.55,1001.32,2626,1231.55a59.39,59.39,0,0,0,81.74-19.29h0a59.39,59.39,0,0,0-19.29-81.74L2316,900.29a10.22,10.22,0,0,0-14.07,3.32l-51.7,83.63A10.23,10.23,0,0,0,2253.55,1001.32Z" transform="translate(-236.73 -202.05)"/><path class="cls-4" d="M2712.74,1202.08a59.65,59.65,0,0,1-5,10.18h0a59.39,59.39,0,0,1-81.74,19.29l-372.44-230.23a10.23,10.23,0,0,1-3.32-14.08l6.5-10.52,381.14,235.61A59.4,59.4,0,0,0,2712.74,1202.08Z" transform="translate(-236.73 -202.05)"/><path class="cls-13" d="M2367.91,918.4l36.81,23.41c3.68,12.77,14.08,26.14,29.26,35.79s31.69,13.4,44.82,11.33l219.95,139.89a66,66,0,0,1,20.24,91l-21,33.1A11.3,11.3,0,1,0,2717,1265l21-33.1a88.61,88.61,0,0,0-27.18-122.19L2380,899.33a11.3,11.3,0,1,0-12.13,19.07Z" transform="translate(-236.73 -202.05)"/><polygon class="cls-4" points="2019.21 790.73 2020 774.67 2065.1 701.71 2001.67 772.82 2019.21 790.73"/><path class="cls-10" d="M2442.12,1102.93c0-.87-.1-1.77-.16-2.69-.35-4.56-8.93-16-8.93-16l21.51-11.17,8.52,14.08c12.87,10.23,13.1,10.42,10.76,30-2,17,9.08,17.19,8.81,29.32s-15.89,6.17-15.89,6.17c-24.23-11.37-26.24-17.1-25.49-28.63-2.3,3.26-4.87,5.16-7.06,3.74-1.92-1.25,1.92-6.22,3.59-17.72C2438,1108.34,2440.07,1105.46,2442.12,1102.93Z" transform="translate(-236.73 -202.05)"/><path class="cls-22" d="M2454.85,1093c-13.79,2.69-28.75,1.6-28.75,1.6s-40.95-126.52-46.22-138.08-121.65-148.35-121.65-148.35l48.48-121.33s125.87,210.27,138.66,239.81c21.12,48.82,28.45,158.28,28.45,158.28A52.63,52.63,0,0,1,2454.85,1093Z" transform="translate(-236.73 -202.05)"/><path class="cls-10" d="M1889.48,760.48s-1.15-18.66,6.2-18.66,44.79,48.35,44.79,48.35l-3,10.4Z" transform="translate(-236.73 -202.05)"/></svg>