<?xml version="1.0" encoding="utf-8"?>
<!-- Generator: Adobe Illustrator 24.0.0, SVG Export Plug-In . SVG Version: 6.00 Build 0)  -->
<svg version="1.1" id="Capa_1" xmlns="http://www.w3.org/2000/svg" xmlns:xlink="http://www.w3.org/1999/xlink" x="0px" y="0px"
	 viewBox="0 0 2325 1936" style="enable-background:new 0 0 2325 1936;" xml:space="preserve">
<style type="text/css">
	.st0{fill:#87B2AB;}
	.st1{fill:#23282A;}
	.st2{fill:#FDFBE0;}
	.st3{fill:#DB8D7F;}
	.st4{fill:#4D342C;}
	.st5{fill:#412924;}
	.st6{fill:#EBA394;}
	.st7{fill:#5D3A32;}
	.st8{fill:#55362E;}
	.st9{fill:#F7A18D;}
	.st10{fill:#F8A491;}
	.st11{fill:#907667;}
	.st12{fill:#CBB8AA;}
	.st13{fill:#F9B4A1;}
	.st14{fill:#C9725A;}
	.st15{fill:#311C18;}
	.st16{fill:#331B17;}
	.st17{fill:#BCA589;}
	.st18{fill:#D7C5AA;}
	.st19{fill:#F0E3CF;}
	.st20{fill:#9A8E7E;}
	.st21{fill:#3864A2;}
	.st22{fill:#C24848;}
	.st23{fill:#E5AD55;}
	.st24{fill:#B5812F;}
	.st25{fill:#2D374E;}
	.st26{fill:#152237;}
	.st27{fill:#E0A63F;}
	.st28{fill:#6B7CA4;}
	.st29{fill:#536686;}
	.st30{fill:#8999C0;}
	.st31{fill:#374F66;}
	.st32{fill:#2B4455;}
	.st33{fill:#D3E3EC;}
	.st34{fill:#F1C16C;}
	.st35{fill:#ACC8DA;}
	.st36{fill:#DDF0ED;}
	.st37{fill:#F5EDEA;}
	.st38{fill:#39201D;}
	.st39{fill:#506982;}
	.st40{fill:#425872;}
</style>
<path class="st0" d="M373.7,1563.9c0,0-189.8-16.4-189.7,80.5c0.1,75.8,773.1,28.8,1058.7,42.5c285.6,13.7,947.2,65.6,966.3-13.7
	s-437.4-113.2-947.3-100.3C751.9,1585.8,373.7,1563.9,373.7,1563.9z"/>
<g>
	<g>
		<path class="st1" d="M1669.4,1600.7C1669.5,1600.7,1669.5,1600.7,1669.4,1600.7c0.1,0.1,7,5.1,11.3,10.2c1.4,1.7,2.6,3.4,3.2,5.1
			c0.2,0.6-0.1,1.3-0.8,1.5c-0.6,0.2-1.3-0.1-1.5-0.8c-0.5-1.7-2.6-4.3-4.9-6.6c-2.4-2.4-5-4.6-6.8-6c-1.2-0.9-1.9-1.5-1.9-1.5
			c0,0,0,0,0,0c-1.1,1.5-2.4,2.9-3.7,4.2c2,1.5,6.9,5.5,10.4,9.5c1.5,1.7,2.6,3.4,3.2,5.1c0.2,0.6-0.1,1.3-0.8,1.5s-1.3-0.1-1.5-0.8
			c-0.5-1.7-2.6-4.3-4.9-6.6c-2.4-2.4-5-4.6-6.7-6c-0.6-0.5-1.1-0.9-1.4-1.1c-1.6,1.3-3.3,2.3-5.1,3.2c0.8,0.8,2,2,3.4,3.6
			c2.2,2.6,4.7,5.8,5.7,9c0.2,0.6-0.2,1.3-0.8,1.5c-0.6,0.2-1.3-0.1-1.5-0.8c-1.2-3.8-5.8-8.9-8.1-11.2c-0.7-0.7-1-1-1.1-1.1
			c-1,0.4-2,0.7-3,0.9c-19.8,4.5-29.3,13.8-24.9,22.6c4.4,8.8,92.5-1.6,100.5-1.6c5.2,0,3.8-27.7,2.2-47.2l-55.5,4
			C1673,1594.6,1671.4,1597.8,1669.4,1600.7z"/>
		<path class="st2" d="M1670,1604.1c1.7,1.4,4.4,3.6,6.8,6c2.4,2.4,4.4,4.9,4.9,6.6c0.2,0.6,0.9,1,1.5,0.8c0.6-0.2,1-0.9,0.8-1.5
			c-0.5-1.7-1.7-3.4-3.2-5.1c-4.3-5.1-11.2-10.2-11.3-10.2c0,0,0,0-0.1,0c-0.5-0.4-1.2-0.3-1.6,0.3c-0.4,0.5-0.3,1.3,0.2,1.7
			c0,0,0,0,0,0C1668.1,1602.6,1668.8,1603.2,1670,1604.1z"/>
		<path class="st2" d="M1670.6,1615.5c2.4,2.3,4.4,4.9,4.9,6.6c0.2,0.6,0.9,1,1.5,0.8s1-0.9,0.8-1.5c-0.5-1.7-1.7-3.4-3.2-5.1
			c-3.4-4-8.4-8-10.4-9.5c-0.5-0.4-0.9-0.7-0.9-0.7c-0.5-0.4-1.3-0.3-1.7,0.2c-0.4,0.5-0.3,1.3,0.3,1.7c0,0,0.2,0.1,0.5,0.4
			c0.3,0.3,0.8,0.6,1.4,1.1C1665.6,1610.9,1668.3,1613.2,1670.6,1615.5z"/>
		<path class="st2" d="M1664.2,1625c0.2,0.6,0.9,1,1.5,0.8c0.6-0.2,1-0.9,0.8-1.5c-1-3.1-3.5-6.4-5.7-9c-1.4-1.6-2.6-2.8-3.4-3.6
			c-0.5-0.5-0.8-0.8-0.8-0.8c-0.5-0.4-1.2-0.4-1.7,0.1c-0.5,0.5-0.4,1.3,0.1,1.7c0,0,0.1,0.1,0.1,0.1c0.1,0.1,0.5,0.4,1.1,1.1
			C1658.3,1616,1663,1621.2,1664.2,1625z"/>
		<path class="st1" d="M1803.2,1634.6c8.1,0,96.1,10.4,100.5,1.6c4.4-8.8-5.1-18.1-24.9-22.6c-1-0.2-2-0.6-3-0.9l-0.2,0.2
			c-0.2,0.2-0.5,0.5-0.9,0.9c-0.8,0.8-1.8,1.8-2.8,3c-2.1,2.4-4.5,5.6-5.3,8.1c-0.2,0.6-0.9,1-1.5,0.8c-0.6-0.2-1-0.9-0.8-1.5
			c1-3.1,3.5-6.4,5.7-9c1.4-1.6,2.6-2.8,3.4-3.6c-1.8-0.9-3.5-2-5.1-3.2c-0.2,0.1-0.4,0.3-0.7,0.5c-0.7,0.5-1.7,1.3-2.8,2.3
			c-2.2,1.9-4.9,4.3-7,6.7c-1.4,1.6-2.4,3.1-2.7,4.2c-0.2,0.6-0.9,1-1.5,0.8s-1-0.9-0.8-1.5c0.6-1.7,1.7-3.4,3.2-5.1
			c1.4-1.7,3.2-3.4,4.8-4.9c2.3-2.1,4.4-3.8,5.5-4.6c-1.4-1.3-2.6-2.7-3.7-4.2c0,0,0,0,0,0c0,0-0.4,0.3-1.1,0.9
			c-0.7,0.6-1.7,1.3-2.8,2.3c-2.2,1.9-4.9,4.3-7,6.7c-1.3,1.6-2.4,3.1-2.7,4.3c-0.2,0.6-0.9,1-1.5,0.8c-0.6-0.2-1-0.9-0.8-1.5
			c0.6-1.7,1.7-3.4,3.2-5.1c1.5-1.7,3.2-3.4,4.8-4.9c3.3-3,6.4-5.3,6.4-5.3c0,0,0,0,0.1,0c-1.9-2.8-3.4-5.8-4.6-8.9h-56
			C1799.2,1610.8,1798.3,1634.6,1803.2,1634.6z"/>
		<path class="st2" d="M1854.8,1606c-1.7,1.5-3.4,3.2-4.8,4.9c-1.4,1.7-2.6,3.4-3.2,5.1c-0.2,0.6,0.1,1.3,0.8,1.5
			c0.6,0.2,1.3-0.1,1.5-0.8c0.4-1.1,1.4-2.7,2.7-4.3c2-2.4,4.8-4.9,7-6.7c1.1-0.9,2.1-1.7,2.8-2.3c0.7-0.5,1.1-0.9,1.1-0.9
			c0,0,0,0,0,0c0.5-0.4,0.6-1.1,0.2-1.7c-0.4-0.5-1.1-0.6-1.6-0.3c0,0,0,0-0.1,0C1861.2,1600.7,1858.1,1603,1854.8,1606z"/>
		<path class="st2" d="M1856,1616.4c-1.4,1.7-2.6,3.4-3.2,5.1c-0.2,0.6,0.1,1.3,0.8,1.5s1.3-0.1,1.5-0.8c0.4-1.1,1.4-2.7,2.7-4.2
			c2-2.4,4.8-4.9,7-6.7c1.1-0.9,2.1-1.7,2.8-2.3c0.3-0.2,0.5-0.4,0.7-0.5c0.3-0.2,0.5-0.4,0.5-0.4c0.5-0.4,0.6-1.1,0.2-1.7
			c-0.4-0.5-1.2-0.6-1.7-0.2c0,0-0.4,0.3-0.9,0.7c-1.1,0.9-3.3,2.6-5.5,4.6C1859.2,1613,1857.5,1614.7,1856,1616.4z"/>
		<path class="st2" d="M1869.9,1615.3c-2.2,2.6-4.7,5.8-5.7,9c-0.2,0.6,0.1,1.3,0.8,1.5c0.6,0.2,1.3-0.1,1.5-0.8
			c0.8-2.5,3.1-5.7,5.3-8.1c1.1-1.2,2.1-2.3,2.8-3c0.4-0.4,0.7-0.7,0.9-0.9l0.2-0.2l0.1-0.1c0.5-0.4,0.5-1.2,0.1-1.7
			c-0.4-0.5-1.2-0.5-1.7-0.1c0,0-0.4,0.3-0.8,0.8C1872.6,1612.4,1871.3,1613.7,1869.9,1615.3z"/>
		<path class="st3" d="M1559.9,763.8c0,0.1-0.1,0.2-0.1,0.3c-0.1,0.1-0.1,0.2-0.2,0.3c-2.9,5.8-5.9,11.9-9.1,18.2l0,0
			c7.9-0.9,18-0.6,23.5,5.8c8.1,9.7,6,42.4,23.9,41.3c2.8-4.6,5.6-9.2,8.4-13.7c0.1-0.2,0.2-0.3,0.3-0.5c2.7-4.5,5.4-9,8-13.4
			c0,0,0,0,0-0.1c1.1-1.9,2.1-3.7,3.2-5.6C1594.9,790.2,1567.8,769.9,1559.9,763.8z"/>
		<path class="st4" d="M1875.6,1009.8c0-0.4,0-0.8,0-1.2l0,0C1875.6,1009,1875.6,1009.4,1875.6,1009.8z"/>
		<path class="st4" d="M1875.8,1014.3c0,0.6,0,1.1,0,1.7C1875.8,1015.5,1875.8,1014.9,1875.8,1014.3z"/>
		<path class="st4" d="M1875.9,1019.9c0,0.6,0,1.2,0,1.8C1875.9,1021.1,1875.9,1020.5,1875.9,1019.9z"/>
		<path class="st4" d="M1876,1027c0,0.7,0,1.5,0,2.3C1876,1028.6,1876,1027.8,1876,1027z"/>
		<path class="st4" d="M1723.3,1026c-26-6-53.9,2.1-67.9,7.2c-0.1-6.1-0.1-11.3-0.2-15.4c1,77.1,7.3,551.7,12.8,573.9l6.2-0.4
			l55.5-4l10.9-0.8l27.7-491.5l22.4,496.7h9.9h56h12.7c0,0,7.6-366.2,7.1-528.8C1840.8,1094.6,1756.6,1033.7,1723.3,1026z
			 M1731.2,1563.9h-61.5c-1,0-1.8-0.8-1.8-1.8c0-1,0.8-1.8,1.8-1.8h61.5c1,0,1.8,0.8,1.8,1.8
			C1733,1563.1,1732.2,1563.9,1731.2,1563.9z M1862.8,1562.1c0,1-0.8,1.8-1.8,1.8h-61.5c-1,0-1.8-0.8-1.8-1.8c0-1,0.8-1.8,1.8-1.8
			h61.5C1862,1560.3,1862.8,1561.1,1862.8,1562.1z"/>
		<path class="st4" d="M1655.1,1008.6c0,1.4,0.1,4,0.1,7.6C1655.1,1012.6,1655.1,1010,1655.1,1008.6L1655.1,1008.6z"/>
		<path class="st4" d="M1876.2,1042c0,0.8,0,1.6,0,2.4C1876.2,1043.6,1876.2,1042.8,1876.2,1042z"/>
		<path class="st4" d="M1876.3,1049.8c0,0.7,0,1.3,0,2C1876.3,1051.2,1876.3,1050.5,1876.3,1049.8z"/>
		<path class="st4" d="M1876.3,1058.8c0,0.8,0,1.5,0,2.3C1876.3,1060.4,1876.3,1059.6,1876.3,1058.8z"/>
		<path class="st4" d="M1876.1,1033.7c0,0.7,0,1.3,0,2C1876.1,1035.1,1876.1,1034.4,1876.1,1033.7z"/>
		<path class="st5" d="M1765.3,1008.6h-110.2c0,1.4,0.1,4,0.1,7.6c0,0.5,0,1.1,0,1.6c0.1,4.1,0.1,9.2,0.2,15.4
			c13.9-5.1,41.9-13.1,67.9-7.2c33.3,7.7,117.5,68.6,153,36.9l0,0c0-0.6,0-1.2,0-1.8c0-0.8,0-1.5,0-2.3c0-2.4,0-4.7,0-7
			c0-0.7,0-1.3,0-2c0-1.8,0-3.7,0-5.4c0-0.8,0-1.6,0-2.4c0-2.1,0-4.2-0.1-6.2c0-0.7,0-1.3,0-2c0-1.5,0-3-0.1-4.4c0-0.8,0-1.5,0-2.3
			c0-1.8-0.1-3.6-0.1-5.3c0-0.6,0-1.2,0-1.8c0-1.3-0.1-2.6-0.1-3.9c0-0.6,0-1.2,0-1.7c0-1.6-0.1-3.1-0.1-4.5c0-0.4,0-0.8,0-1.2
			H1765.3z"/>
		<path class="st6" d="M1765,615.3c20.8-0.2,27.3-12.3,33.1-28.8c0.1-0.2,0.1-0.3,0.2-0.5l-8.7-41.5v0l3,14.5
			c-1.7,4.1-4.5,8.4-9.3,11.8c-12.2,8.8-33.6-12.4-40.2-14.5c-3.3-1.1-5.8,0.3-7.4,2l2.2-15.1l0,0l-6.1,42.8c0,0,0.1,0.2,0.1,0.6
			C1732.9,590.5,1740.4,615.4,1765,615.3z"/>
		<path class="st3" d="M1765.2,557.3c-12.6-0.1-21.3-5.9-27.3-14.1l-2.2,15.1c1.7-1.7,4.1-3.1,7.4-2c6.6,2.2,28,23.3,40.2,14.5
			c4.7-3.4,7.5-7.7,9.3-11.8l-3-14.5C1784,552.1,1776.2,557.3,1765.2,557.3z"/>
		<path class="st7" d="M1753.4,485.5c2.8-1.7-0.7-3.2-0.7-3.2c-10-4.1-15.9,2-17,3.9c-1.2,1.9,1.3,1.4,1.3,1.4
			C1744.9,480.7,1750.6,487.2,1753.4,485.5z"/>
		<path class="st7" d="M1774.8,485.5c2.8,1.7,8.5-4.8,16.4,2.2c0,0,2.5,0.4,1.3-1.4c-1.2-1.9-7-8-17-3.9
			C1775.6,482.3,1772.1,483.7,1774.8,485.5z"/>
		<path class="st8" d="M1744.9,497.8c0,1.7,0.9,3.1,2,3.1c1.1,0,2-1.4,2-3.1c0-1.7-0.9-3.1-2-3.1
			C1745.8,494.7,1744.9,496.1,1744.9,497.8z"/>
		<path class="st8" d="M1783.3,497.8c0-1.7-0.9-3.1-2-3.1c-1.1,0-2,1.4-2,3.1c0,1.7,0.9,3.1,2,3.1
			C1782.4,500.9,1783.3,499.5,1783.3,497.8z"/>
		<path class="st9" d="M1771.7,516.6c0.9-1.9-3.6-25.9-5.8-27c0,0-1.8-2.4-3,1.5c-0.5,1.6-5.6,24.4-4.5,25.9
			C1759.6,518.4,1770.8,518.4,1771.7,516.6z"/>
		<path class="st10" d="M1744.1,515.9c4.9,1.1,9.5-0.9,10.2-4.3c0.7-3.4-2.6-7.1-7.5-8.1c-4.9-1.1-9.5,0.9-10.2,4.3
			C1735.9,511.2,1739.2,514.8,1744.1,515.9z"/>
		<path class="st10" d="M1784.9,503.4c-4.9,1.1-8.3,4.7-7.5,8.1c0.7,3.4,5.3,5.4,10.2,4.3s8.2-4.7,7.5-8.1
			C1794.3,504.3,1789.8,502.4,1784.9,503.4z"/>
		<path class="st3" d="M1717.3,488.8c0,0-3.9,1.9-3.2,6.7c0.7,4.8,2.7,3.4,2.3,5.4c-0.4,2.1,1.3,9.4,5.3,7.4
			C1725.7,506.3,1721.3,489.9,1717.3,488.8z"/>
		<path class="st3" d="M1806.1,509.3c4,2,5.8-5.3,5.3-7.4c-0.4-2.1,1.6-0.7,2.3-5.4c0.7-4.8-3.2-6.7-3.2-6.7
			C1806.6,490.9,1802.1,507.3,1806.1,509.3z"/>
		<path class="st11" d="M1648.2,759.2c0,0-0.2-2.8-0.6-7.2c-1-11.9-3-35.5-4.6-49.2l0-0.4l-15.5-22.8c-0.6-0.8-1.7-1-2.5-0.5
			c-0.8,0.6-1,1.7-0.5,2.5l15,22c1.1,9.3,2.4,23.2,3.4,34.7c0.5,5.9,1,11.1,1.3,15c0.3,3.8,0.5,6.2,0.5,6.2c0,0.6,0.4,1,0.8,1.3
			c0.3,0.2,0.7,0.4,1.2,0.3c0.1,0,0.1,0,0.2,0C1647.6,761,1648.3,760.2,1648.2,759.2z"/>
		<path class="st11" d="M1620.7,789.3c0.4-0.9,0.1-2-0.8-2.4l0,0c0,0-2.5-1.3-6.5-3.3c-6-3.1-15.2-7.9-24.1-12.7
			c-8.9-4.8-17.6-9.8-22.2-13c-0.8-0.6-1.9-0.4-2.5,0.4c-0.6,0.8-0.4,1.9,0.4,2.5c6.5,4.5,19.7,11.8,31.4,18
			c11.7,6.2,21.8,11.3,21.8,11.3C1619.2,790.6,1620.3,790.2,1620.7,789.3z"/>
		<path class="st3" d="M1949.9,820.4c6.1-14.9,11.6-40.8,29-41.9l0,0c-2.5-5.1-5-10-7.4-14.7c-7.9,6.1-35,26.4-57.8,32.8
			c5.7,9.9,11.8,20.1,18.3,30.6c0,0,0,0,0,0.1l0,0C1939.1,829,1946.6,828.5,1949.9,820.4z"/>
		<path class="st12" d="M1919.2,626.2c-7.2-14.5-23.3-17.4-23.3-17.4c-0.1,0.1-0.1,0.2-0.1,0.3c-0.2-0.1-0.5-0.2-0.7-0.3
			c-58.2-16.5-86-21.1-97-22.4c-5.8,16.5-12.2,28.6-33.1,28.8c-24.6,0.2-32.1-24.8-33.1-28.8c-11.4,1.4-39.3,6.1-96.4,22.3
			c0,0-16,3-23.3,17.4c-7.2,14.5-54.6,135.8-54.6,135.8s0.8,0.7,2.2,1.8c7.9,6.1,35,26.4,57.8,32.8c0,0,0,0,0,0
			c0.9,0.3,1.8,0.5,2.6,0.7l25.1-36.4c-0.4-0.3-0.7-0.8-0.8-1.3c0,0-0.2-2.3-0.5-6.2c-0.3-3.8-0.8-9.1-1.3-15
			c-1-11.6-2.3-25.4-3.4-34.7l-15-22c-0.6-0.8-0.3-2,0.5-2.5c0.8-0.6,1.9-0.4,2.5,0.5l15.5,22.8l0,0.4c1.6,13.7,3.6,37.3,4.6,49.2
			c0.4,4.4,0.6,7.2,0.6,7.2c0.1,0.9-0.6,1.7-1.5,1.9c3.1,18,7.9,42.8,9.7,56.5c4.4,33.2-4.1,113.1-5.8,191h4.5h110.2h110.3h4.5
			c-1.7-77.9-10.2-157.8-5.8-191c1.8-13.8,6.6-38.8,9.7-56.9c-0.5-0.4-0.8-0.9-0.7-1.5c0,0,0.2-2.8,0.6-7.2c1-11.9,3-35.5,4.6-49.2
			l0.1-0.4l15.5-22.8c0.6-0.8,1.7-1,2.5-0.5c0.8,0.6,1,1.7,0.5,2.5l-15,22c-1.6,14.1-3.7,38.4-4.7,49.7c-0.3,3.8-0.5,6.2-0.5,6.2
			c0,0.6-0.4,1-0.8,1.3l25.1,36.4c0.9-0.2,1.7-0.4,2.6-0.7h0c22.7-6.4,49.9-26.7,57.8-32.8c1.4-1.1,2.3-1.8,2.3-1.8
			S1926.4,640.7,1919.2,626.2z M1620.7,789.3c-0.4,0.9-1.5,1.3-2.4,0.8c0,0-10.1-5.1-21.8-11.3c-11.7-6.2-24.9-13.5-31.4-18
			c-0.8-0.6-1-1.7-0.4-2.5c0.6-0.8,1.7-1,2.5-0.4c4.6,3.2,13.2,8.2,22.2,13c8.9,4.8,18.2,9.6,24.1,12.7c4,2,6.5,3.3,6.5,3.3l0,0
			C1620.8,787.3,1621.2,788.4,1620.7,789.3z M1806.3,591.2c0,0.1-1.1,5.2-4.1,11.7c-3,6.4-7.8,14.2-15.5,19.5
			c-5.1,3.5-11.5,5.9-19.2,5.9c-0.7,0-1.5,0-2.3-0.1c-16.2-0.9-27.2-10.3-34-19.2c-6.8-8.9-9.6-17.5-9.6-17.6
			c-0.3-0.9,0.2-2,1.2-2.3c1-0.3,2,0.2,2.3,1.2l0.1,0.3c0.1,0.2,0.2,0.6,0.4,1c0.4,0.9,0.9,2.2,1.6,3.7c1.5,3.1,3.8,7.3,7,11.5
			c6.4,8.4,16.5,16.9,31.4,17.7c0.7,0,1.4,0.1,2.1,0.1c6.5,0,11.8-1.8,16.3-4.7c4.4-2.8,7.9-6.7,10.7-10.7c5.5-8,7.8-16.6,8.3-18.5
			l0.1-0.4l0,0c0.2-1,1.2-1.6,2.1-1.4C1805.9,589.3,1806.5,590.3,1806.3,591.2z M1966.4,760.8c-6.5,4.5-19.7,11.8-31.4,18
			c-11.7,6.2-21.8,11.3-21.8,11.3v0c-0.9,0.4-2,0.1-2.4-0.8c-0.4-0.9-0.1-2,0.8-2.4c0,0,2.5-1.3,6.5-3.3c4-2,9.4-4.9,15.2-7.9
			c11.6-6.2,24.9-13.5,31.1-17.8c0.8-0.6,1.9-0.4,2.5,0.4C1967.5,759.1,1967.3,760.3,1966.4,760.8z"/>
		<g>
			<path class="st13" d="M1573.9,788.5c-5.4-6.4-15.6-6.8-23.5-5.8c-33.7,67.2-81.5,160-111.7,207.9c-0.1,0.1-32.9,28.4-30.8,29.4
				c2.1,0.9,18.1-5.3,18.1-5.3s-21.6,31.8-18.2,32.4c3.4,0.6,15.3-11.8,15.3-11.8s-7.6,19-4.9,19.3c2.7,0.3,16.6-11.7,16.6-11.7
				s-8.4,17.2-5.1,16.6c3.3-0.6,15.4-14.2,15.4-14.2s-6,18.1-2.4,16.3c3.6-1.8,32-49.3,32.1-49.6c11.9-16.4,75.2-104.6,123.1-182.1
				C1579.9,830.9,1582.1,798.1,1573.9,788.5z"/>
			<path class="st13" d="M1597.8,829.8c0.3-0.5,0.6-1,0.9-1.5C1598.4,828.8,1598.1,829.3,1597.8,829.8
				C1597.8,829.8,1597.8,829.8,1597.8,829.8z"/>
			<path class="st13" d="M1598.7,828.3c2.5-4.1,5-8.2,7.4-12.2C1603.8,820.1,1601.3,824.2,1598.7,828.3z"/>
			<path class="st13" d="M1614.5,802.2c1.1-1.9,2.2-3.7,3.2-5.6c0,0,0,0,0,0C1616.6,798.4,1615.6,800.3,1614.5,802.2z"/>
			<path class="st13" d="M1807.7,486.3c-0.2,0.8-0.5,1.5-0.7,2.2c-1.6,8.8-4.5,17.5-5.6,16.9c-1.7-0.9-4.2-14.2-3.9-21.2
				c0.5-11.5-6.3-24.3-8.4-26.7c-2.1-2.4-13.3,1.3-22.7,1.5c-9.5,0.2-25.5-4.4-25.5-4.4c-5.6,1.8-8.4,13.3-8.5,20.4
				c-0.1,7.1-3.2,26.7-4.8,25.9c-1.7-0.8-7-15.2-7.1-15.2c-1.6-0.9-3.3-1.7-5.7,0c-4.5,3.1-5.2,30.4,11.6,26.4
				c1.7,10.2,5,22,11.6,31c6,8.2,14.7,14.1,27.3,14.1c11,0.1,18.8-5.2,24.3-12.8v0c6.7-9.1,10.1-21.4,12-32
				c17,4.5,15.9-22.3,12.1-26.3C1811.9,484.3,1809,485.9,1807.7,486.3z M1721.7,508.3c-4,2-5.8-5.3-5.3-7.4c0.4-2.1-1.6-0.7-2.3-5.4
				c-0.7-4.8,3.2-6.7,3.2-6.7C1721.3,489.9,1725.7,506.3,1721.7,508.3z M1762.9,491c1.2-3.9,3-1.5,3-1.5c2.2,1.1,6.8,25.1,5.8,27
				c-0.9,1.9-12.1,1.8-13.3,0.4C1757.3,515.5,1762.4,492.7,1762.9,491z M1735.6,486.2c1.2-1.9,7-8,17-3.9c0,0,3.5,1.5,0.7,3.2
				c-2.8,1.7-8.5-4.8-16.4,2.2C1736.9,487.6,1734.4,488.1,1735.6,486.2z M1748.9,497.8c0,1.7-0.9,3.1-2,3.1c-1.1,0-2-1.4-2-3.1
				c0-1.7,0.9-3.1,2-3.1C1748,494.7,1748.9,496.1,1748.9,497.8z M1754.3,511.6c-0.7,3.4-5.3,5.4-10.2,4.3c-4.9-1.1-8.3-4.7-7.5-8.1
				c0.7-3.4,5.3-5.4,10.2-4.3C1751.7,504.5,1755.1,508.1,1754.3,511.6z M1773.9,528.2c0,0-0.1,0.3-0.5,0.8c-0.3,0.5-0.8,1.2-1.6,1.9
				c-0.8,0.7-1.8,1.4-3,1.9c-0.6,0.2-1.3,0.4-2,0.6c-0.7,0.1-1.3,0.2-2.2,0.2c-0.6-0.1-1.2-0.1-1.8-0.2c-0.6,0-1.4-0.3-2-0.5
				c-0.7-0.1-1.2-0.6-1.8-0.8c-0.6-0.3-1-0.7-1.4-1c-0.8-0.7-1.3-1.5-1.6-2c-0.3-0.6-0.4-1-0.4-1c-0.1-0.5,0.1-1,0.6-1.1
				c0.4-0.1,0.7,0,0.9,0.3l0.1,0.2c0,0,0.2,0.2,0.4,0.5c0.3,0.3,0.8,0.8,1.4,1.2c0.4,0.2,0.7,0.5,1.1,0.6c0.4,0.1,0.9,0.4,1.3,0.5
				c0.5,0.1,0.8,0.3,1.5,0.3c0.6,0,1.2,0.1,1.8,0.1c0.3,0,1-0.1,1.4-0.1c0.5-0.1,1-0.3,1.5-0.4c0.9-0.4,1.8-0.8,2.5-1.2
				c0.7-0.5,1.2-0.9,1.6-1.3c0.3-0.3,0.5-0.5,0.5-0.5c0.3-0.4,0.9-0.4,1.3-0.1C1774,527.4,1774.1,527.8,1773.9,528.2z M1774.8,485.5
				c-2.8-1.7,0.7-3.2,0.7-3.2c10-4.1,15.9,2,17,3.9c1.2,1.9-1.3,1.4-1.3,1.4C1783.3,480.7,1777.6,487.2,1774.8,485.5z M1783.3,497.8
				c0,1.7-0.9,3.1-2,3.1c-1.1,0-2-1.4-2-3.1c0-1.7,0.9-3.1,2-3.1C1782.4,494.7,1783.3,496.1,1783.3,497.8z M1787.6,515.9
				c-4.9,1.1-9.5-0.9-10.2-4.3c-0.8-3.4,2.6-7.1,7.5-8.1c4.9-1.1,9.5,0.9,10.2,4.3C1795.8,511.2,1792.5,514.8,1787.6,515.9z
				 M1813.8,496.5c-0.7,4.7-2.7,3.4-2.3,5.4c0.4,2.1-1.3,9.4-5.3,7.4c-4-2,0.4-18.4,4.5-19.5
				C1810.6,489.8,1814.5,491.7,1813.8,496.5z"/>
			<path class="st13" d="M1913.8,796.6c5.7,9.9,11.8,20.1,18.3,30.6C1925.6,816.7,1919.5,806.4,1913.8,796.6L1913.8,796.6z"/>
			<path class="st13" d="M2123.7,1047c3.4-0.6-18.2-32.4-18.2-32.4s16,6.2,18.1,5.3c2.1-0.9-30.7-29.3-30.8-29.4
				c-30.9-48.9-80-144.5-113.8-212c-17.4,1.2-23,27.1-29,41.9c-3.3,8-10.8,8.6-17.8,6.8c48,78.1,112.7,168,124.6,184.6
				c0,0,28.5,47.8,32.1,49.6c3.6,1.8-2.4-16.3-2.4-16.3s12.1,13.6,15.4,14.2s-5.1-16.6-5.1-16.6s13.9,12,16.6,11.7
				c2.7-0.3-4.9-19.3-4.9-19.3S2120.3,1047.6,2123.7,1047z"/>
		</g>
		<path class="st11" d="M1886.9,759.5c0,0,0.2-2.3,0.5-6.2c0.9-11.3,3-35.6,4.7-49.7l15-22c0.6-0.8,0.4-1.9-0.5-2.5
			c-0.8-0.6-1.9-0.4-2.5,0.5l-15.5,22.8l-0.1,0.4c-1.6,13.7-3.6,37.3-4.6,49.2c-0.4,4.4-0.6,7.2-0.6,7.2c-0.1,0.6,0.3,1.2,0.7,1.6
			c0.3,0.2,0.6,0.4,0.9,0.4c0.4,0,0.8-0.1,1.2-0.3C1886.5,760.5,1886.8,760.1,1886.9,759.5z"/>
		<path class="st11" d="M1964.4,757.9c-6.2,4.3-19.4,11.6-31.1,17.8c-5.8,3.1-11.3,5.9-15.2,7.9c-4,2-6.5,3.3-6.5,3.3
			c-0.9,0.4-1.3,1.5-0.8,2.4c0.5,0.9,1.5,1.3,2.4,0.8v0c0,0,10.1-5.1,21.8-11.3c11.7-6.2,24.9-13.5,31.4-18c0.8-0.6,1-1.7,0.4-2.5
			C1966.3,757.5,1965.2,757.3,1964.4,757.9z"/>
		<path class="st11" d="M1731.2,609.1c6.8,8.9,17.8,18.2,34,19.2c0.8,0,1.5,0.1,2.3,0.1c7.7,0,14.1-2.4,19.2-5.9
			c7.7-5.3,12.5-13.1,15.5-19.5c3-6.4,4.1-11.6,4.1-11.7c0.2-1-0.4-1.9-1.4-2.1c-1-0.2-1.9,0.4-2.1,1.4l0,0l-0.1,0.4
			c-0.4,1.8-2.8,10.5-8.3,18.5c-2.7,4-6.3,7.9-10.7,10.7c-4.4,2.8-9.7,4.7-16.3,4.7c-0.7,0-1.4,0-2.1-0.1
			c-14.9-0.9-24.9-9.3-31.4-17.7c-3.2-4.2-5.5-8.4-7-11.5c-0.7-1.6-1.3-2.8-1.6-3.7c-0.2-0.4-0.3-0.8-0.4-1l-0.1-0.3
			c-0.3-1-1.3-1.5-2.3-1.2c-0.9,0.3-1.5,1.3-1.2,2.3C1721.6,591.5,1724.4,600.1,1731.2,609.1z"/>
		<path class="st14" d="M1757.7,531.1c0.4,0.3,0.8,0.8,1.4,1c0.6,0.3,1.1,0.7,1.8,0.8c0.6,0.2,1.4,0.5,2,0.5
			c0.6,0.1,1.2,0.1,1.8,0.2c0.9,0,1.5-0.1,2.2-0.2c0.7-0.1,1.3-0.4,2-0.6c1.2-0.5,2.2-1.3,3-1.9c0.8-0.7,1.3-1.4,1.6-1.9
			c0.3-0.6,0.5-0.8,0.5-0.8c0.1-0.3,0.1-0.8-0.2-1c-0.4-0.3-0.9-0.3-1.3,0.1c0,0-0.2,0.2-0.5,0.5c-0.3,0.3-0.9,0.8-1.6,1.3
			c-0.7,0.5-1.5,0.9-2.5,1.2c-0.5,0.1-1,0.3-1.5,0.4c-0.5,0-1.2,0.1-1.4,0.1c-0.6,0-1.2-0.1-1.8-0.1c-0.6,0-1-0.2-1.5-0.3
			c-0.5-0.1-0.9-0.3-1.3-0.5c-0.4-0.1-0.8-0.4-1.1-0.6c-0.6-0.4-1.1-0.9-1.4-1.2c-0.3-0.3-0.4-0.5-0.4-0.5l-0.1-0.2
			c-0.2-0.3-0.6-0.4-0.9-0.3c-0.5,0.1-0.7,0.6-0.6,1.1c0,0,0.1,0.4,0.4,1C1756.4,529.6,1756.8,530.4,1757.7,531.1z"/>
		<path class="st15" d="M1731.2,1560.3h-61.5c-1,0-1.8,0.8-1.8,1.8c0,1,0.8,1.8,1.8,1.8h61.5c1,0,1.8-0.8,1.8-1.8
			C1733,1561.1,1732.2,1560.3,1731.2,1560.3z"/>
		<path class="st15" d="M1797.7,1562.1c0,1,0.8,1.8,1.8,1.8h61.5c1,0,1.8-0.8,1.8-1.8c0-1-0.8-1.8-1.8-1.8h-61.5
			C1798.5,1560.3,1797.7,1561.1,1797.7,1562.1z"/>
		<path class="st7" d="M1727.4,500.9c1.7,0.8,4.7-18.8,4.8-25.9c0.2-7.1,3-18.6,8.5-20.4c0,0,16,4.6,25.5,4.4
			c9.5-0.2,20.6-3.9,22.7-1.5c2.1,2.4,8.9,15.2,8.4,26.7c-0.3,7,2.3,20.3,3.9,21.2c1.1,0.6,3.9-8.2,5.6-16.9
			c0.9-4.7,1.4-9.3,1.1-12.6c-0.3-2.8-0.7-6.2-1.3-9.6c0.1,0.1,0.1,0.3,0,0.4c-0.8,2-3.1,3.7-5.2,5c-2.1,1.3-4,2.1-4,2.1
			c-0.3,0.1-0.7,0-0.8-0.3c-0.1-0.3,0-0.7,0.3-0.8c0,0,0.5-0.2,1.2-0.6c0.7-0.4,1.7-0.9,2.7-1.5c2-1.2,4.2-2.9,4.8-4.4
			c0.1-0.3,0.5-0.5,0.8-0.3c0.2,0.1,0.3,0.2,0.3,0.3c-1.3-7.7-3.6-15.6-7.6-17.4c0,0,2-3-0.6-6.6c-3.5-5-14.6-13.9-32.8-14.6
			c-24.4-0.9-35.3,9.9-38.4,14.5c-3.2,4.5-1.8,6.8-1.8,6.8s-7.8,21.2-5.1,36.7l0,0C1720.4,485.7,1725.8,500.1,1727.4,500.9z
			 M1807.4,484c-0.7,1.6-2.8,3.1-4.6,4.3c-1.9,1.2-3.6,2-3.6,2l-0.8-0.3l0.3-0.8c0,0,0.4-0.2,1.1-0.6c0.6-0.3,1.5-0.8,2.4-1.4
			c1.8-1.1,3.7-2.7,4.2-3.8c0.1-0.3,0.5-0.4,0.8-0.3C1807.3,483.4,1807.5,483.7,1807.4,484z M1797.9,481.1c0,0,0.4-0.3,1.1-0.7
			c0.7-0.4,1.6-1,2.5-1.7c1.9-1.4,4-3.2,4.8-4.6l0.8-0.2l0.2,0.8c-1,1.7-3.2,3.5-5.1,5c-2,1.4-3.7,2.5-3.7,2.5l-0.8-0.2
			L1797.9,481.1z M1803.5,459.1c0.1-0.3,0.5-0.5,0.8-0.3c0.3,0.1,0.5,0.5,0.3,0.8c-0.9,2.2-3.2,4-5.2,5.3c-2,1.3-3.8,2.2-3.8,2.2
			l0,0l-0.8-0.3l0.3-0.8c0,0,0.4-0.2,1.1-0.6c0.7-0.4,1.6-0.9,2.6-1.5C1800.7,462.6,1802.8,460.8,1803.5,459.1z M1799.7,452.1
			l0.9-0.1l0.1,0.8c-2.1,2.7-8,7.8-8,7.8l0,0l-0.8-0.1l0.1-0.9c0,0,1.5-1.3,3.2-2.9C1796.8,455.3,1798.8,453.4,1799.7,452.1z
			 M1797.6,444.5c0.1-0.3,0.4-0.5,0.7-0.4c0.3,0.1,0.5,0.4,0.4,0.7c-0.7,2.6-3.7,5.4-6.6,7.7c-2.8,2.3-5.5,3.9-5.5,3.9l-0.8-0.2
			l0.2-0.8c0,0,0.7-0.4,1.7-1.1c1-0.7,2.4-1.7,3.8-2.8C1794.2,449.3,1797.1,446.5,1797.6,444.5z M1787,435.2l0.3-0.8l0.8,0.2
			c0.6,1.1,0.9,2.4,0.9,3.7c0,4.1-2.3,8.6-4.6,12.2c-2.3,3.6-4.5,6.2-4.5,6.2l-0.9,0.1l-0.1-0.9c0,0,0.6-0.6,1.4-1.7
			s1.9-2.6,3.1-4.4c2.2-3.5,4.4-8,4.4-11.6C1787.7,437.2,1787.5,436.1,1787,435.2z M1775.3,431.7c-0.1-0.3,0.1-0.7,0.4-0.8
			c0.3-0.1,0.7,0.1,0.8,0.4c0.3,1.1,0.5,2.4,0.5,3.8c0,8.4-4.5,22.1-4.5,22.1l0,0c-0.1,0.3-0.4,0.5-0.8,0.4
			c-0.3-0.1-0.5-0.4-0.4-0.8c0,0,1.1-3.4,2.2-7.8c1.1-4.4,2.2-9.9,2.2-13.9C1775.7,433.8,1775.6,432.6,1775.3,431.7z M1761.5,428.8
			c0.3,0,0.6,0.2,0.6,0.6l1.1,27.7c0,0.3-0.2,0.6-0.6,0.6c-0.3,0-0.6-0.2-0.6-0.6l-1.1-27.7C1760.9,429.1,1761.2,428.8,1761.5,428.8
			z M1747.1,431.2l0.8-0.3l0.3,0.8c-0.3,0.6-0.5,1.5-0.5,2.5c0,5.5,4.8,15.1,7.3,19.5c0.8,1.5,1.3,2.4,1.3,2.4l0,0l-0.2,0.8
			l-0.8-0.2c0,0-2.2-3.6-4.4-8.3c-2.2-4.6-4.4-10.2-4.4-14.2C1746.5,433.1,1746.7,432.1,1747.1,431.2z M1736.7,434.7
			c0.1-0.3,0.5-0.5,0.8-0.4c0.3,0.1,0.5,0.5,0.4,0.8c-0.2,0.7-0.4,1.5-0.4,2.3c0,2.8,1.5,6,3.5,8.9c2,2.9,4.3,5.4,5.9,7
			c1,1.1,1.7,1.7,1.7,1.7v0l0.1,0.9l-0.9,0.1c0,0-2.9-2.5-5.7-6.1c-2.9-3.5-5.8-8.1-5.8-12.4
			C1736.3,436.5,1736.4,435.6,1736.7,434.7z M1726.7,444.3c0-0.3,0.3-0.6,0.6-0.6c0.3,0,0.6,0.3,0.6,0.6v0c0,0.4,0.3,1.1,0.9,1.9
			c0.6,0.7,1.5,1.6,2.4,2.3c1.9,1.6,4.3,3.1,5.9,4c1,0.6,1.7,1,1.7,1l0,0l0.2,0.8l-0.8,0.2c0,0-6.4-3.4-9.6-6.8
			C1727.5,446.7,1726.7,445.6,1726.7,444.3L1726.7,444.3z M1725,456.6l0.8,0.3c0.4,0.8,1.7,1.7,3.2,2.4c1.4,0.7,3,1.2,4.1,1.5
			c0.7,0.2,1.1,0.3,1.1,0.3h0c0.3,0.1,0.5,0.4,0.4,0.7c-0.1,0.3-0.4,0.5-0.7,0.4c0,0-1.8-0.4-3.9-1.2c-2-0.8-4.3-1.9-5.2-3.6
			L1725,456.6z M1721.9,462.7l0.8,0.1c0.7,0.9,2.1,1.8,3.8,2.5c1.6,0.7,3.3,1.2,4.4,1.4c0.7,0.2,1.2,0.3,1.2,0.3
			c0.3,0.1,0.5,0.4,0.5,0.7c-0.1,0.3-0.4,0.5-0.7,0.5c0,0-1.9-0.4-4.2-1.1c-2.2-0.8-4.7-1.8-6-3.5L1721.9,462.7z M1722.6,473.9
			c1.2,0.8,3.1,1,4.8,1c1,0,1.9-0.1,2.5-0.2c0.6-0.1,1-0.1,1-0.1c0.3-0.1,0.6,0.1,0.7,0.5c0.1,0.3-0.1,0.6-0.5,0.7
			c0,0-1.7,0.3-3.8,0.3c-1.8,0-3.8-0.2-5.4-1.2l-0.2-0.8L1722.6,473.9z M1721.5,482.9c0.6,0.2,1.3,0.3,2.2,0.3
			c1.4,0,3.1-0.2,4.3-0.4c1.3-0.2,2.2-0.4,2.2-0.4l0,0c0.3-0.1,0.7,0.1,0.7,0.4c0.1,0.3-0.1,0.7-0.4,0.7c0,0-3.7,0.9-6.8,0.9
			c-0.9,0-1.8-0.1-2.6-0.3c-0.3-0.1-0.5-0.4-0.4-0.8C1720.9,483,1721.2,482.8,1721.5,482.9z M1722.4,488.8c0-0.3,0.3-0.6,0.6-0.6
			l0.2,0c0.9,0,2.4-0.3,3.7-0.6c1.2-0.3,2.2-0.6,2.2-0.6v0c0.3-0.1,0.7,0.1,0.7,0.4c0.1,0.3-0.1,0.7-0.4,0.7c0,0-3.9,1.1-6.2,1.1
			h-0.2C1722.6,489.4,1722.3,489.1,1722.4,488.8z"/>
		<path class="st16" d="M1780.3,454.3c-0.8,1.1-1.4,1.7-1.4,1.7l0.1,0.9l0.9-0.1c0,0,2.3-2.6,4.5-6.2c2.3-3.6,4.6-8.2,4.6-12.2
			c0-1.3-0.3-2.6-0.9-3.7l-0.8-0.2l-0.3,0.8c0.5,0.9,0.7,2,0.7,3.2c0,3.6-2.2,8.1-4.4,11.6C1782.2,451.7,1781.1,453.2,1780.3,454.3z
			"/>
		<path class="st16" d="M1786,455.4l-0.2,0.8l0.8,0.2c0,0,2.7-1.7,5.5-3.9c2.8-2.3,5.9-5.1,6.6-7.7c0.1-0.3-0.1-0.7-0.4-0.7
			c-0.3-0.1-0.7,0.1-0.7,0.4c-0.5,2-3.4,4.9-6.2,7c-1.4,1.1-2.7,2.1-3.8,2.8C1786.7,455,1786,455.4,1786,455.4z"/>
		<path class="st16" d="M1771.3,456.9c-0.1,0.3,0.1,0.6,0.4,0.8c0.3,0.1,0.7-0.1,0.8-0.4l0,0c0,0,4.5-13.7,4.5-22.1
			c0-1.4-0.1-2.8-0.5-3.8c-0.1-0.3-0.4-0.5-0.8-0.4c-0.3,0.1-0.5,0.4-0.4,0.8c0.3,0.9,0.4,2.1,0.4,3.5c0,4-1.1,9.5-2.2,13.9
			C1772.4,453.5,1771.3,456.9,1771.3,456.9z"/>
		<path class="st16" d="M1762,457.1c0,0.3,0.3,0.6,0.6,0.6c0.3,0,0.6-0.3,0.6-0.6l-1.1-27.7c0-0.3-0.3-0.6-0.6-0.6
			c-0.3,0-0.6,0.3-0.6,0.6L1762,457.1z"/>
		<path class="st16" d="M1755.3,456.7l0.8,0.2l0.2-0.8l0,0c0,0-0.5-0.9-1.3-2.4c-2.4-4.4-7.3-14-7.3-19.5c0-1,0.2-1.8,0.5-2.5
			l-0.3-0.8l-0.8,0.3c-0.4,0.9-0.6,1.9-0.6,3c0,4,2.2,9.6,4.4,14.2C1753.1,453.1,1755.3,456.7,1755.3,456.7z"/>
		<path class="st16" d="M1747.9,455.8l0.9-0.1l-0.1-0.9l0,0c0,0-0.7-0.6-1.7-1.7c-1.6-1.6-4-4.1-5.9-7c-2-2.9-3.5-6.1-3.5-8.9
			c0-0.8,0.1-1.5,0.4-2.3c0.1-0.3-0.1-0.7-0.4-0.8c-0.3-0.1-0.7,0.1-0.8,0.4c-0.3,0.9-0.4,1.8-0.4,2.7c0,4.3,2.9,8.9,5.8,12.4
			C1745,453.3,1747.9,455.8,1747.9,455.8z"/>
		<path class="st16" d="M1738.2,454.6l0.8-0.2l-0.2-0.8v0c0,0-0.7-0.4-1.7-1c-1.6-0.9-3.9-2.4-5.9-4c-1-0.8-1.8-1.6-2.4-2.3
			c-0.6-0.8-0.9-1.4-0.9-1.9v0c0-0.3-0.2-0.6-0.6-0.6c-0.3,0-0.6,0.3-0.6,0.6l0,0.1c0,1.2,0.9,2.4,1.9,3.5
			C1731.9,451.2,1738.2,454.6,1738.2,454.6z"/>
		<path class="st16" d="M1730,461c2,0.8,3.9,1.2,3.9,1.2c0.3,0.1,0.6-0.1,0.7-0.4c0.1-0.3-0.1-0.7-0.4-0.7l0,0c0,0-0.4-0.1-1.1-0.3
			c-1-0.3-2.6-0.8-4.1-1.5c-1.4-0.7-2.7-1.6-3.2-2.4l-0.8-0.3l-0.2,0.8C1725.7,459.1,1727.9,460.2,1730,461z"/>
		<path class="st16" d="M1727.7,467.1c2.2,0.8,4.1,1.1,4.2,1.1c0.3,0.1,0.6-0.2,0.7-0.5c0.1-0.3-0.1-0.6-0.5-0.7
			c0,0-0.5-0.1-1.2-0.3c-1.1-0.3-2.8-0.8-4.4-1.4c-1.6-0.7-3.1-1.6-3.8-2.5l-0.8-0.1l-0.1,0.8C1723,465.3,1725.5,466.3,1727.7,467.1
			z"/>
		<path class="st16" d="M1727.3,476.1c2.1,0,3.7-0.3,3.8-0.3c0.3-0.1,0.5-0.4,0.5-0.7c-0.1-0.3-0.4-0.5-0.7-0.5c0,0-0.4,0.1-1,0.1
			c-0.6,0.1-1.5,0.2-2.5,0.2c-1.7,0-3.6-0.2-4.8-1l-0.8,0.2l0.2,0.8C1723.5,475.9,1725.6,476.1,1727.3,476.1z"/>
		<path class="st16" d="M1721.2,484.1c0.8,0.2,1.6,0.3,2.6,0.3c3.1,0,6.8-0.9,6.8-0.9c0.3-0.1,0.5-0.4,0.4-0.7
			c-0.1-0.3-0.4-0.5-0.7-0.4l0,0c0,0-0.9,0.2-2.2,0.4c-1.3,0.2-2.9,0.4-4.3,0.4c-0.9,0-1.6-0.1-2.2-0.3c-0.3-0.1-0.7,0.1-0.8,0.4
			C1720.7,483.6,1720.8,484,1721.2,484.1z"/>
		<path class="st16" d="M1722.9,489.4h0.2c2.3,0,6.1-1.1,6.2-1.1c0.3-0.1,0.5-0.4,0.4-0.7c-0.1-0.3-0.4-0.5-0.7-0.4v0
			c0,0-1,0.3-2.2,0.6c-1.2,0.3-2.7,0.6-3.7,0.6l-0.2,0c-0.3,0-0.6,0.3-0.6,0.6C1722.3,489.1,1722.6,489.4,1722.9,489.4z"/>
		<path class="st16" d="M1795,456.9c-1.7,1.6-3.2,2.9-3.2,2.9l-0.1,0.9l0.8,0.1l0,0c0,0,5.9-5.1,8-7.8l-0.1-0.8l-0.9,0.1
			C1798.8,453.4,1796.8,455.3,1795,456.9z"/>
		<path class="st16" d="M1796.2,465.5c-0.7,0.4-1.1,0.6-1.1,0.6l-0.3,0.8l0.8,0.3l0,0c0,0,1.8-0.9,3.8-2.2c2-1.4,4.3-3.2,5.2-5.3
			c0.1-0.3,0-0.7-0.3-0.8c-0.3-0.1-0.7,0-0.8,0.3c-0.7,1.7-2.8,3.5-4.7,4.8C1797.8,464.6,1796.9,465.1,1796.2,465.5z"/>
		<path class="st16" d="M1805.6,466.3c-0.6,1.5-2.7,3.2-4.8,4.4c-1,0.6-2,1.1-2.7,1.5c-0.7,0.4-1.2,0.6-1.2,0.6
			c-0.3,0.1-0.4,0.5-0.3,0.8c0.1,0.3,0.5,0.4,0.8,0.3c0,0,1.9-0.8,4-2.1c2.1-1.3,4.4-3,5.2-5c0.1-0.1,0-0.3,0-0.4v0
			c-0.1-0.1-0.2-0.3-0.3-0.3C1806.1,465.9,1805.8,466,1805.6,466.3z"/>
		<path class="st16" d="M1802.2,479.6c2-1.4,4.2-3.2,5.1-5l-0.2-0.8l-0.8,0.2c-0.7,1.4-2.9,3.2-4.8,4.6c-1,0.7-1.9,1.3-2.5,1.7
			c-0.7,0.4-1.1,0.7-1.1,0.7l-0.2,0.8l0.8,0.2C1798.5,482.1,1800.2,481.1,1802.2,479.6z"/>
		<path class="st16" d="M1806.3,483.6c-0.4,1.1-2.4,2.6-4.2,3.8c-0.9,0.6-1.8,1.1-2.4,1.4c-0.6,0.4-1.1,0.6-1.1,0.6l-0.3,0.8
			l0.8,0.3c0,0,1.7-0.8,3.6-2c1.9-1.2,3.9-2.7,4.6-4.3c0.1-0.3,0-0.7-0.3-0.8C1806.7,483.1,1806.4,483.3,1806.3,483.6z"/>
	</g>
	<g>
		<path class="st17" d="M686.3,583.2c-14-125.2-72.4-127-72.4-127s-129.1,15.9-74.1,211.6h147.4
			C688.2,629.2,688.1,599.7,686.3,583.2z"/>
		<path class="st18" d="M808.8,1625.8c76-18,69.6-132.7,50.6-146.8h603.5c-10.9-45.9-18.6-97.7-17.1-149.9
			c2.9-98.9,83.4-793.6-35.7-872.9H613.9c0,0,58.4,1.8,72.4,127c1.9,16.6,1.9,46,0.9,84.6c-5.5,211.8-43.7,702.2-3.5,896.3
			C685.5,1570.6,709.8,1649.3,808.8,1625.8z M1385.4,1364.3H718.6v-44.5h666.8V1364.3z M1385.4,1271.1H718.6v-44.4h666.8V1271.1z
			 M1385.4,1178H718.6v-44.4h666.8V1178z M1392.9,1084.9H726.1v-44.5h666.8L1392.9,1084.9L1392.9,1084.9z M1400.3,991.7H733.5v-44.5
			h666.8L1400.3,991.7L1400.3,991.7z M1407.7,898.6H740.9v-44.4h666.8V898.6z M1216.9,585.1c2.7-8.4,15.7-11.6,20.8-18.6
			c5.1-7.1,4.2-20.4,11.3-25.5c7-5.1,19.4-0.2,27.8-2.9c8.1-2.6,15.2-14,24.2-14c9,0,16.1,11.4,24.2,14c8.4,2.7,20.8-2.2,27.8,2.9
			c7.1,5.1,6.2,18.5,11.3,25.5c5.1,7,18.1,10.2,20.8,18.6c2.6,8.1-5.9,18.3-5.9,27.3c0,9,8.5,19.2,5.9,27.3
			c-2.7,8.4-15.7,11.6-20.8,18.6c-5.1,7-4.2,20.4-11.3,25.5c-4.1,3-10.1,2.5-16,2.2v125.6l-37.5-25l-37.5,25V686.1
			c-4.8,0.2-9.4,0.1-12.7-2.3c-7.1-5.1-6.2-18.5-11.3-25.5c-5.1-7-18.1-10.2-20.8-18.6c-2.6-8.1,5.9-18.3,5.9-27.3
			C1222.8,603.4,1214.3,593.2,1216.9,585.1z"/>
		<path class="st19" d="M1462.9,1479H859.4c19.1,14.1,25.4,128.8-50.6,146.8c-99,23.5-123.3-55.2-125.2-61.7
			c-0.1-0.3-0.1-0.5-0.1-0.5c-4.4,63.5,61.6,75.8,61.6,75.8h12.8h762h57.2c86.8-72.3,0-160.5,0-160.5H1462.9z"/>
		<rect x="740.9" y="854.1" class="st20" width="666.8" height="44.4"/>
		<rect x="733.5" y="947.3" class="st20" width="666.8" height="44.5"/>
		<rect x="726.1" y="1040.4" class="st20" width="666.8" height="44.5"/>
		<rect x="718.6" y="1133.6" class="st20" width="666.8" height="44.4"/>
		<rect x="718.6" y="1226.7" class="st20" width="666.8" height="44.4"/>
		<rect x="718.6" y="1319.8" class="st20" width="666.8" height="44.5"/>
		<path class="st21" d="M1325.1,686.7c-8.1,2.6-15.2,14-24.2,14c-9,0-16-11.4-24.2-14c-4.4-1.4-9.8-0.8-15-0.5v125.4l37.5-25
			l37.5,25V686C1332.7,685.7,1328.5,685.6,1325.1,686.7z"/>
		<path class="st22" d="M1216.9,639.6c2.7,8.4,15.7,11.6,20.8,18.6c5.1,7,4.2,20.4,11.3,25.5c3.3,2.4,7.9,2.6,12.7,2.3
			c5.2-0.2,10.7-0.9,15,0.5c8.1,2.6,15.2,14,24.2,14c9,0,16.1-11.4,24.2-14c3.5-1.1,7.6-0.9,11.7-0.7c5.9,0.3,11.9,0.8,16-2.2
			c7.1-5.1,6.2-18.5,11.3-25.5c5.1-7,18.1-10.2,20.8-18.6c2.6-8.1-5.9-18.3-5.9-27.3c0-9,8.5-19.2,5.9-27.3
			c-2.7-8.4-15.7-11.6-20.8-18.6c-5.1-7.1-4.2-20.4-11.3-25.5c-7-5.1-19.4-0.1-27.8-2.9c-8.1-2.6-15.2-14-24.2-14
			c-9,0-16,11.4-24.2,14c-8.4,2.7-20.8-2.2-27.8,2.9c-7.1,5.1-6.2,18.5-11.3,25.5c-5.1,7-18.1,10.2-20.8,18.6
			c-2.6,8.1,5.9,18.3,5.9,27.3C1222.8,621.3,1214.3,631.6,1216.9,639.6z M1300.9,554.1c32.2,0,58.3,26.1,58.3,58.3
			c0,32.2-26.1,58.3-58.3,58.3c-32.2,0-58.3-26.1-58.3-58.3C1242.7,580.2,1268.8,554.1,1300.9,554.1z"/>
		<path class="st23" d="M1300.9,670.6c32.2,0,58.3-26.1,58.3-58.3c0-32.2-26.1-58.3-58.3-58.3c-32.2,0-58.3,26.1-58.3,58.3
			C1242.7,644.5,1268.8,670.6,1300.9,670.6z"/>
	</g>
	<g>
		<path class="st24" d="M2086.9,1637.1c0,4,3.3,7.3,7.3,7.3s7.3-3.3,7.3-7.3v-24.7h-14.5L2086.9,1637.1L2086.9,1637.1z"/>
		<path class="st25" d="M2092.4,495.9H2067l2.4-32.2h0c0,0-2.5,32.7-5.9,83.9c2.3-0.2,4.6-0.3,7.1-0.3l-9.5,154.2
			c0,0-3.2,0.6-6.8-0.7c-4.9,93-9.1,197.8-9.1,283.8h47.3L2092.4,495.9L2092.4,495.9z"/>
		<path class="st25" d="M2066.8,1498.5c-0.1-1.9-0.3-3.9-0.4-6C2066.5,1494.6,2066.7,1496.6,2066.8,1498.5z"/>
		<path class="st25" d="M2092.4,1012.5h-47.3c0,149.9,12.8,357.1,19.8,459.1h27.4V1012.5z"/>
		<path class="st25" d="M2066.2,1489.8c-0.2-2.4-0.3-4.8-0.5-7.4C2065.9,1485,2066,1487.4,2066.2,1489.8z"/>
		<path class="st25" d="M2067.2,1503.8c0-0.4-0.1-0.8-0.1-1.3C2067.1,1502.9,2067.2,1503.3,2067.2,1503.8z"/>
		<path class="st25" d="M2065.6,1481.8c-0.2-3.2-0.5-6.6-0.7-10.1C2065.2,1475.2,2065.4,1478.6,2065.6,1481.8z"/>
		<path class="st25" d="M2092.4,1533.4v-25.5h-24.9c1.2,16.3,1.9,25.5,1.9,25.5H2092.4z"/>
		<path class="st26" d="M2092.4,495.9v488.7h1.8h49.1c0-166.4-15.8-403.4-21.9-488.7H2092.4z"/>
		<path class="st26" d="M2119,463.8L2119,463.8l2.3,31.7C2119.9,475.4,2119,463.8,2119,463.8z"/>
		<path class="st26" d="M2092.4,1012.5v459.1h31.1c7-102,19.8-309.2,19.8-459.1h-49.1L2092.4,1012.5L2092.4,1012.5z"/>
		<path class="st26" d="M2092.4,1533.4h1.8h24.8c0,0,0.7-9.2,1.9-25.5h-28.5L2092.4,1533.4L2092.4,1533.4z"/>
		<path class="st26" d="M2122.7,1482.4c-0.2,2.6-0.4,5-0.5,7.4C2122.3,1487.4,2122.5,1485,2122.7,1482.4z"/>
		<path class="st26" d="M2122,1492.5c-0.2,2.1-0.3,4.1-0.4,6C2121.7,1496.6,2121.8,1494.6,2122,1492.5z"/>
		<path class="st26" d="M2123.4,1471.8c-0.2,3.5-0.5,6.8-0.7,10.1C2123,1478.6,2123.2,1475.2,2123.4,1471.8z"/>
		<path class="st26" d="M2121.3,1502.5c0,0.4-0.1,0.8-0.1,1.3C2121.2,1503.3,2121.3,1502.9,2121.3,1502.5z"/>
		<polygon class="st27" points="2092.4,984.7 2045.1,984.7 2045.1,1012.5 2092.4,1012.5 2094.2,1012.5 2143.2,1012.5 2143.2,984.7 
			2094.2,984.7 		"/>
		<rect x="2075.1" y="425.6" class="st28" width="38.2" height="22.4"/>
		<rect x="2075.1" y="411.1" class="st29" width="38.2" height="14.5"/>
		<polygon class="st27" points="2092.4,495.9 2121.4,495.9 2121.4,495.9 2121.3,495.5 2119,463.8 2117.8,448 2113.3,448 2075.1,448 
			2070.6,448 2069.4,463.8 2067,495.9 		"/>
		<polygon class="st30" points="2117.8,411.1 2117.8,394.7 2070.6,394.7 2070.6,411.1 2075.1,411.1 2113.3,411.1 		"/>
		<path class="st30" d="M2061.1,701.5l9.5-154.2c-2.5,0-4.8,0.1-7.1,0.3c-53.6,4.3-53.6,58.2-55.2,68.3
			c-1.6,10.6-10,287.2-4.8,296.2c5.3,9,24.3,11.6,24.3,11.6s8.4-22.2,1.1-23.8c-7.4-1.6-10-8.4-10-8.4
			c-1.1-34.8,6.4-183.8,7.4-213.9c1.1-30.1,3.7-55.9,13.7-50.6c10,5.3,3.2,63.3,8.4,69.7c1.8,2.2,3.9,3.4,5.9,4.1
			C2057.9,702.2,2061.1,701.5,2061.1,701.5z"/>
		<path class="st27" d="M2064.9,1471.6L2064.9,1471.6c0,0.1,0,0.1,0,0.2c0.2,3.5,0.5,6.8,0.7,10.1c0,0.2,0,0.4,0,0.6
			c0.2,2.6,0.3,5,0.5,7.4c0.1,0.9,0.1,1.8,0.2,2.7c0.1,2.1,0.3,4.1,0.4,6c0.1,1.4,0.2,2.7,0.3,4c0,0.4,0.1,0.8,0.1,1.3
			c0.1,1.4,0.2,2.9,0.3,4.2l0,0h24.9h28.5l0,0c0.1-1.3,0.2-2.8,0.3-4.2c0-0.4,0.1-0.8,0.1-1.3c0.1-1.3,0.2-2.6,0.3-4
			c0.1-1.9,0.3-3.9,0.4-6c0.1-0.9,0.1-1.8,0.2-2.7c0.2-2.4,0.3-4.8,0.5-7.4c0-0.2,0-0.4,0-0.6c0.2-3.2,0.5-6.6,0.7-10.1
			c0-0.1,0-0.1,0-0.2l0,0h-31.1H2064.9z"/>
		<polygon class="st27" points="2094.2,1533.4 2092.4,1533.4 2069.4,1533.4 2082.8,1612.4 2086.9,1612.4 2101.5,1612.4 
			2105.6,1612.4 2119,1533.4 		"/>
	</g>
</g>
<g>
	<path class="st1" d="M332.9,1626.8c8.4,0,100,12,104.6,1.9c4.6-10.1-5.3-20.7-26-25.9c-10.5-2.6-16-8.7-18.7-16.2l-58.9,4.6
		C330.8,1609.3,328.8,1626.8,332.9,1626.8z"/>
	<path class="st1" d="M562.1,1628.7c4.6-10.1-5.3-20.7-26-25.9c-14.4-3.7-19.5-13.8-20.7-25.1H461c-4.2,21.8-8.6,49.1-3.5,49.1
		C465.9,1626.8,557.6,1638.7,562.1,1628.7z"/>
	<path class="st31" d="M535.4,1577.6c0,0,7.5-400.5,6.9-584.4l0,0c0,4.8,0,9.8,0,14.9c-16.9-3-41.3-10.8-63.6-30.6
		c-11.8-10.5-29.9-13.5-50.3-10.6c-2.8,16.6-6.6,30.8-11.7,30.8c-14-0.1-31.8-3.5-48.9-8c-3.2,1.9-6.4,3.9-9.5,6.1v34.6
		c0,4-3.3,7.3-7.3,7.3h-36.6c-0.1,0.1-0.2,0.3-0.3,0.4c2.5,193.2,7.4,533.9,11.9,553.7l7.9-0.6l58.9-4.6l8.7-0.7l43.8-535.1
		l8.4,526.9h7.4h54.4L535.4,1577.6L535.4,1577.6z"/>
	<path class="st32" d="M539.5,996.6c-18.6,5.1-38.1-41.5-38.1-41.5l-9.8-39.1H434c0,0-1.8,27.7-5.7,50.9
		c20.4-2.9,38.5,0.1,50.3,10.6c22.3,19.8,46.8,27.6,63.6,30.6c0-5.1,0-10,0-14.9C541.5,995.1,540.6,996.3,539.5,996.6z"/>
	<path class="st32" d="M314,1037.6c0,0.1,0,0.3,0,0.4v0c0.1-0.1,0.2-0.3,0.3-0.4L314,1037.6L314,1037.6z"/>
	<path class="st32" d="M358.3,995.7c3.1-2.1,6.3-4.1,9.5-6.1c-3.2-0.8-6.4-1.7-9.5-2.6V995.7z"/>
	<path class="st33" d="M210,921.5h-18.8v7.8h18C209.5,926.7,209.7,924.1,210,921.5z"/>
	<path class="st33" d="M307.9,921.5h-36c-0.3,2.6-0.6,5.2-0.9,7.8h80v-7.8H307.9z"/>
	<path class="st34" d="M246,1037.6h3.4c-1.1-4-1.9-7.2-1.9-7.2S246.9,1033.5,246,1037.6z"/>
	<path class="st34" d="M216.5,1037.6h2.4c-0.7-2.9-1.1-4.9-1.1-4.9S217.3,1034.7,216.5,1037.6z"/>
	<path class="st34" d="M208.7,993.3c-0.2-0.1-0.4-0.1-0.6-0.2c-2.8-1-2.4-26.3,1.1-63.9h-18c-4,0-7.3,3.3-7.3,7.3v93.8
		c0,4,3.3,7.3,7.3,7.3h16.6c0.3-10.8,1.2-23.8,1.6-30.2C207.6,1004.9,207.9,998.8,208.7,993.3z"/>
	<path class="st34" d="M231.5,1037.6h1.4c-0.5-2-0.8-3.3-0.8-3.3S231.9,1035.6,231.5,1037.6z"/>
	<path class="st34" d="M314.4,1037.6H351c4,0,7.3-3.3,7.3-7.3v-34.6v-8.7v-50.5c0-4-3.3-7.3-7.3-7.3h-80c-2.3,21.2-4,44-4.7,68.4
		c0,0-2,0-5.3,0c-0.4,5.5-1.3,10.2-2.8,10.8c-0.3,0.1-0.8,0.2-1.5,0.3c0.3,6.8,0.7,19,0.6,28.8H314H314.4z"/>
	<path class="st35" d="M482.8,793.1c-7.1-78.9-15.4-135.7-21.9-173l-23.4-24.8l-33.6,30.8c10,62.3,23,145.6,24.6,164.6
		c8,64.4,5.2,82.3,5.6,125.3h57.6C491.7,916,488.5,860.5,482.8,793.1z"/>
	<path class="st36" d="M394.8,570.2c2.1,13,5.4,33,9,55.9l33.6-30.8L394.8,570.2z"/>
	<path class="st36" d="M450.4,568.8l-13,26.5l23.4,24.8C456.1,593,452.3,576.2,450.4,568.8z"/>
	<path class="st13" d="M478.6,487.4c0,2-0.1,4-0.2,5.9C478.5,491.4,478.6,489.5,478.6,487.4z"/>
	<path class="st13" d="M478.5,479.2c0.1,2.1,0.1,4.1,0.1,6.1C478.6,483.3,478.6,481.3,478.5,479.2z"/>
	<path class="st13" d="M394.8,570.2l42.7,25.1l13-26.5c-0.3-1.2-0.6-2.2-0.7-2.9c-1.6-6.1-5.2-20.6-5.3-31.2
		c4.8,0.5,21.3,0.5,26.9-11.3c4.1-8.5,6.3-17.9,7-28.3l-0.5,0.2c-6.1,2.1-12.3,0.3-13.7-4c-1.5-4.3,2.3-9.5,8.4-11.6
		c2-0.7,4-0.9,5.9-0.8c-0.3-5.1-0.8-10.4-1.5-16c-0.8-6-1.9-11.3-3.1-16c-0.8-2.7-2.7-7.9-3.3-9.6c-0.1-0.2-0.2-0.4-0.2-0.6
		c-12.6,9.2-39.3-9.6-50.8-8.6c-11.5,0.9-21.9,15.1-18.9,30.8c2.4,12.2-0.2,21.6-5.3,20.3c-5.1-1.3-10.9-17.1-10.9-17.1
		c-7.4-3.4-13.9-0.6-9,16.4c4.8,17,13.2,15.7,13.2,15.7c1.1,4.7,2.2,16.1,2.9,23.8c0.2,2.3,0.4,4.6,0.6,6.9c0,0.5,0.1,0.8,0.1,0.8h0
		c0.6,8.8,0.8,18.6,0.6,31C393,559.1,393.8,563.8,394.8,570.2z M389.2,485.9c-2.4,4.5-8.1-1.9-10.4-7.3c-3.8-9,1.3-11.5,1.3-11.5
		C384.1,463.9,391.6,481.4,389.2,485.9z M465.8,478.3c-1.4,0-2.6-1.8-2.6-4c0-2.2,1.2-4,2.6-4c1.4,0,2.6,1.8,2.6,4
		C468.4,476.5,467.2,478.3,465.8,478.3z M463.1,455.8c4.1-0.9,7.3,0.9,7.9,1.8c0,0,2,2.4,0,3.9c-2,1.5-3.9-2.6-7.3-2
		c-3.3,0.6-6.1,1.5-5.9,0C458,458.1,459,456.7,463.1,455.8z M448.4,462.6c0.7-3.1,4-2.3,4-2.3c2.8,1.5,10.1,33.6,8.8,36
		c-1.2,2.5-13.4,1.3-14.9-0.6C444.8,493.9,447.9,464.8,448.4,462.6z M447.9,503.2c3.2,1.6,7.4,0.6,9.7-0.4c2.3-1,3.4,1,3.4,1
		c1,0.9-0.9,6.4-6.3,7.6c-5.5,1.2-10.6-3.1-11.3-5.5C442.7,503.7,444.7,501.7,447.9,503.2z M430.6,452.7c4.2-0.9,7.4,0.9,7.9,1.8
		c0,0,2,2.4,0,3.9c-2,1.5-3.9-2.6-7.3-2c-3.3,0.6-6.1,1.5-5.9,0C425.4,454.9,426.4,453.6,430.6,452.7z M437.5,474.3
		c0,2.2-1.2,4-2.6,4s-2.6-1.8-2.6-4c0-2.2,1.2-4,2.6-4S437.5,472.1,437.5,474.3z M416.8,486.4c1-4.4,6.9-6.9,13.2-5.6
		c6.3,1.4,10.7,6.1,9.7,10.5c-1,4.5-6.9,6.9-13.2,5.6C420.2,495.6,415.8,490.8,416.8,486.4z"/>
	<path class="st3" d="M380.1,467.1c0,0-5.1,2.4-1.3,11.5c2.3,5.5,7.9,11.9,10.4,7.3C391.6,481.4,384.1,463.9,380.1,467.1z"/>
	<path class="st8" d="M432.3,474.3c0,2.2,1.2,4,2.6,4s2.6-1.8,2.6-4c0-2.2-1.2-4-2.6-4S432.3,472.1,432.3,474.3z"/>
	<path class="st8" d="M465.8,470.3c-1.4,0-2.6,1.8-2.6,4c0,2.2,1.2,4,2.6,4c1.4,0,2.6-1.8,2.6-4
		C468.4,472.1,467.2,470.3,465.8,470.3z"/>
	<path class="st9" d="M461.2,496.4c1.2-2.4-6-34.5-8.8-36c0,0-3.3-0.8-4,2.3c-0.4,2.2-3.6,31.3-2.1,33.2
		C447.8,497.7,460,498.8,461.2,496.4z"/>
	<path class="st9" d="M426.5,496.9c6.3,1.4,12.2-1.1,13.2-5.6c1-4.4-3.4-9.2-9.7-10.5c-6.3-1.4-12.2,1.1-13.2,5.6
		C415.8,490.8,420.2,495.6,426.5,496.9z"/>
	<path class="st9" d="M464.1,491.2c1.5,4.3,7.6,6.1,13.7,4l0.5-0.2l0,0c0-0.6,0-1.1,0.1-1.7c0.1-1.9,0.2-3.9,0.2-5.9
		c0-0.7,0-1.4,0-2.1c0-2,0-4-0.1-6.1c0-0.1,0-0.2,0-0.4c0,0,0,0,0,0c-1.9-0.1-3.8,0.1-5.9,0.8C466.4,481.7,462.7,486.9,464.1,491.2z
		"/>
	<path class="st37" d="M454.8,511.5c5.5-1.2,7.3-6.7,6.3-7.6c0,0-1.1-2-3.4-1c-2.3,1-6.6,1.9-9.7,0.4s-5.2,0.4-4.5,2.8
		C444.2,508.4,449.3,512.7,454.8,511.5z"/>
	<path class="st7" d="M431.2,456.4c3.3-0.6,5.3,3.5,7.3,2c2-1.5,0-3.9,0-3.9c-0.5-0.9-3.7-2.7-7.9-1.8c-4.1,0.9-5.1,2.2-5.3,3.8
		C425.1,457.9,427.9,457,431.2,456.4z"/>
	<path class="st7" d="M463.7,459.6c3.3-0.6,5.3,3.5,7.3,2c2-1.5,0-3.9,0-3.9c-0.5-0.9-3.7-2.7-7.9-1.8c-4.2,0.9-5.2,2.2-5.3,3.8
		C457.7,461.1,460.4,460.2,463.7,459.6z"/>
	<path class="st7" d="M391.9,524.8c-0.1-1.2-0.3-3.8-0.6-6.9c-0.7-7.7-1.8-19.2-2.9-23.8c0,0-8.3,1.3-13.2-15.7
		c-4.8-17,1.7-19.8,9-16.4c0,0,5.8,15.8,10.9,17.1c5.1,1.3,7.7-8.1,5.3-20.3c-3-15.6,7.4-29.8,18.9-30.8
		c11.5-0.9,38.2,17.8,50.8,8.6c0,0,0,0,0,0c0,0,0.1,0.2,0.2,0.6c0.6,1.7,2.4,6.9,3.3,9.6c0.2,0.6,0.3,1,0.4,1.3c0,0,3.1-3.2,2.7-8.3
		c-0.5-5.1-2.8-29.5-30.9-40.9c-28.1-11.3-69.7,4.1-77.4,33.3c-7.7,29.2,2.4,55.8,4.5,60.1c2.1,4.2,10.6,36.6,18.9,33.3h0
		C392,525.6,392,525.2,391.9,524.8z M451.4,403.1c18.6,10.9,18.8,30.4,18.8,30.5l-0.6,0.6l-0.6-0.6c0,0,0-0.3,0-0.8
		c0-0.5-0.1-1.3-0.3-2.3c-0.3-1.9-0.9-4.6-2-7.7c-2.3-6.1-6.8-13.4-15.8-18.7l-0.2-0.8L451.4,403.1z M425.4,397
		c18.2,3.1,27.5,13.4,32.2,22.8c4.6,9.4,4.7,18,4.7,18c0,0.5-0.4,0.9-0.9,0.9c-0.5,0-0.9-0.4-0.9-0.9c0,0,0-0.5-0.1-1.4
		c-0.1-0.9-0.2-2.2-0.5-3.8c-0.6-3.2-1.7-7.5-3.9-12c-4.5-9-13.2-18.7-30.8-21.8c-0.5-0.1-0.8-0.6-0.7-1
		C424.5,397.2,424.9,396.9,425.4,397z M401.8,401.2c19.2,0.7,30.4,8.5,36.6,16.1c6.3,7.6,7.6,15.1,7.7,15.2v0c0.1,0.5-0.2,1-0.7,1.1
		c-0.5,0.1-1-0.2-1.1-0.7l-0.1-0.3c0-0.2-0.1-0.5-0.2-0.9c-0.2-0.8-0.6-1.9-1.1-3.2c-1.1-2.7-2.9-6.3-5.9-9.9
		c-6-7.3-16.5-14.8-35.3-15.5c-0.5,0-0.9-0.4-0.9-0.9C400.9,401.6,401.3,401.2,401.8,401.2z M382.2,413.3c5.1-1.1,9.7-1.6,13.8-1.6
		c23.1,0,30.6,14.8,30.6,14.9c0.2,0.5,0,1-0.4,1.2c-0.4,0.2-1,0-1.2-0.4l-0.1-0.1l-0.2-0.4c-0.2-0.4-0.6-0.9-1.1-1.6
		c-1-1.3-2.5-3-4.8-4.8c-4.5-3.5-11.7-7-22.9-7c-4,0-8.4,0.4-13.4,1.5c-0.5,0.1-1-0.2-1.1-0.7C381.4,413.9,381.8,413.4,382.2,413.3z
		 M370.4,429.7c6.9-4.7,14.6-6.1,21.4-6.1c11.3,0,20.3,3.9,20.3,3.9c0.5,0.2,0.7,0.7,0.5,1.2c-0.2,0.5-0.7,0.7-1.2,0.5
		c0,0-0.5-0.2-1.5-0.6c-1-0.4-2.4-0.8-4.2-1.3c-3.6-1-8.5-1.9-13.9-1.9c-6.6,0-13.8,1.4-20.4,5.8c-0.4,0.3-1,0.2-1.3-0.2
		C369.9,430.5,370,429.9,370.4,429.7z M368.7,443.9c8.4-7,17.2-8.7,23.9-8.7c6.6,0,11.2,1.7,11.2,1.8c0.5,0.2,0.7,0.7,0.5,1.2
		c-0.2,0.5-0.7,0.7-1.2,0.5c0,0-0.2-0.1-0.7-0.2c-0.5-0.1-1.2-0.4-2.2-0.6c-1.9-0.4-4.5-0.8-7.7-0.8c-6.3,0-14.6,1.7-22.7,8.3
		c-0.4,0.3-1,0.3-1.3-0.1C368.2,444.8,368.3,444.3,368.7,443.9z M367.5,453.1c5.9-4.4,12.4-5.6,18-5.6c7.5,0,13.3,2.3,13.3,2.3
		c0.5,0.2,0.7,0.7,0.5,1.2c-0.2,0.5-0.7,0.7-1.2,0.5c0,0-0.3-0.1-0.9-0.3c-0.6-0.2-1.5-0.5-2.7-0.7c-2.3-0.6-5.5-1.1-9-1.1
		c-5.3,0-11.4,1.2-16.9,5.3c-0.4,0.3-1,0.2-1.3-0.2S367.1,453.4,367.5,453.1z M368.4,461.1c-0.5,0.2-1-0.1-1.2-0.5
		c-0.2-0.5,0.1-1,0.5-1.2c6-2.3,11.2-3.1,15.6-3.1c11.3,0,16.8,5.6,16.9,5.7l0,0l0,1.3l-1.3,0l0,0l-0.2-0.2l-0.7-0.6
		c-0.6-0.5-1.6-1.1-2.9-1.8c-2.6-1.3-6.5-2.6-11.8-2.6C379.2,458.1,374.2,458.9,368.4,461.1z"/>
	<path class="st38" d="M466.7,422.9c1.1,3,1.7,5.7,2,7.7c0.1,1,0.2,1.7,0.3,2.3c0,0.5,0,0.8,0,0.8l0.6,0.6l0.6-0.6
		c0-0.1-0.2-19.5-18.8-30.5l-0.8,0.2l0.2,0.8C459.8,409.4,464.4,416.8,466.7,422.9z"/>
	<path class="st38" d="M425.1,398.8c17.7,3.1,26.4,12.8,30.8,21.8c2.2,4.5,3.3,8.8,3.9,12c0.3,1.6,0.4,2.9,0.5,3.8
		c0.1,0.9,0.1,1.4,0.1,1.4c0,0.5,0.4,0.9,0.9,0.9c0.5,0,0.9-0.4,0.9-0.9c0-0.1,0-8.6-4.7-18c-4.6-9.4-13.9-19.7-32.2-22.8
		c-0.5-0.1-1,0.2-1,0.7C424.3,398.2,424.6,398.7,425.1,398.8z"/>
	<path class="st38" d="M401.8,403c18.8,0.7,29.3,8.2,35.3,15.5c3,3.6,4.8,7.3,5.9,9.9c0.5,1.3,0.9,2.5,1.1,3.2
		c0.1,0.4,0.2,0.7,0.2,0.9l0.1,0.3c0.1,0.5,0.6,0.8,1.1,0.7c0.5-0.1,0.8-0.6,0.7-1.1v0c0-0.1-1.4-7.5-7.7-15.2
		c-6.2-7.7-17.4-15.4-36.6-16.1c-0.5,0-0.9,0.4-0.9,0.9C400.9,402.6,401.3,403,401.8,403z"/>
	<path class="st38" d="M382.6,415.1c5-1.1,9.4-1.5,13.4-1.5c11.1,0,18.4,3.5,22.9,7c2.2,1.8,3.8,3.5,4.8,4.8
		c0.5,0.7,0.8,1.2,1.1,1.6l0.2,0.4l0.1,0.1c0.2,0.5,0.8,0.6,1.2,0.4c0.4-0.2,0.6-0.8,0.4-1.2c0-0.1-7.6-14.9-30.6-14.9
		c-4.1,0-8.7,0.5-13.8,1.6c-0.5,0.1-0.8,0.6-0.7,1.1C381.6,414.9,382.1,415.2,382.6,415.1z"/>
	<path class="st38" d="M371.4,431.2c6.5-4.4,13.8-5.8,20.4-5.8c5.4,0,10.3,0.9,13.9,1.9c1.8,0.5,3.2,0.9,4.2,1.3
		c1,0.4,1.5,0.6,1.5,0.6c0.5,0.2,1,0,1.2-0.5c0.2-0.5,0-1-0.5-1.2c-0.1,0-9.1-3.9-20.3-3.9c-6.8,0-14.5,1.5-21.4,6.1
		c-0.4,0.3-0.5,0.8-0.2,1.3C370.5,431.3,371,431.4,371.4,431.2z"/>
	<path class="st38" d="M369.8,445.3c8.1-6.7,16.4-8.3,22.7-8.3c3.2,0,5.8,0.4,7.7,0.8c0.9,0.2,1.7,0.4,2.2,0.6
		c0.5,0.2,0.7,0.3,0.7,0.3c0.5,0.2,1-0.1,1.2-0.5c0.2-0.5-0.1-1-0.5-1.2c-0.1,0-4.6-1.8-11.2-1.8c-6.6,0-15.4,1.8-23.9,8.7
		c-0.4,0.3-0.4,0.9-0.1,1.3C368.9,445.6,369.5,445.7,369.8,445.3z"/>
	<path class="st38" d="M368.6,454.6c5.5-4.1,11.6-5.3,16.9-5.3c3.6,0,6.8,0.6,9,1.1c1.1,0.3,2.1,0.5,2.7,0.7
		c0.6,0.2,0.9,0.3,0.9,0.3c0.5,0.2,1,0,1.2-0.5c0.2-0.5,0-1-0.5-1.2c-0.1,0-5.8-2.3-13.3-2.3c-5.5,0-12.1,1.3-18,5.6
		c-0.4,0.3-0.5,0.9-0.2,1.3C367.6,454.8,368.2,454.9,368.6,454.6z"/>
	<path class="st38" d="M395.1,460.7c1.3,0.7,2.2,1.3,2.9,1.8l0.7,0.6l0.2,0.2l0,0l1.3,0l0-1.3l0,0c-0.1-0.1-5.6-5.7-16.9-5.7
		c-4.3,0-9.5,0.8-15.6,3.1c-0.5,0.2-0.7,0.7-0.5,1.2c0.2,0.5,0.7,0.7,1.2,0.5c5.9-2.2,10.8-3,14.9-3
		C388.6,458.1,392.5,459.4,395.1,460.7z"/>
	<path class="st39" d="M401.8,681l-9.5,25.7c0,0,26.8,73.8,31.2,79.3c4.5,5.4,5,4.8,5,4.8c0,0,0,0,0,0
		c-1.6-19-14.6-102.3-24.6-164.6c-3.7-22.9-6.9-42.9-9-55.9c-1-6.4-1.8-11.1-2.2-13.7c-0.2-1.3-0.3-2.1-0.3-2.1
		c-5,0.3-14.2,18.8-14.2,18.8l0,0c-7.1,38.5-9.2,89.8-9.2,89.8L401.8,681z"/>
	<path class="st39" d="M450.4,568.8c1.8,7.4,5.7,24.2,10.4,51.3c6.5,37.3,14.8,94.1,21.9,173c0,0.1,0,0.1,0,0.1l18.3-73.5l-14.8-17
		l18.8-26.6l-34.8-104.4h0c0,0-10-6.3-11.8-7.5c-1.8-1.1-9.1,0-9.1,0s0.2,0.6,0.4,1.6C449.9,566.6,450.1,567.6,450.4,568.8z"/>
	<path class="st13" d="M256.7,1008.8c-8.1,1.4-40.9,1.9-46.1-0.3c-0.4-0.2-0.8-0.6-1.1-1c-0.5,6.4-1.3,19.3-1.6,30.2
		c-0.3,10.9,0,19.6,1.9,16.9c2.9-4.1,5.4-11.8,6.8-16.9c0.8-2.9,1.3-4.9,1.3-4.9s0.4,2.1,1.1,4.9c1.9,8,5.9,22.5,7.9,17.4
		c1.9-4.8,3.7-12.9,4.7-17.4c0.4-2,0.7-3.3,0.7-3.3s0.3,1.3,0.8,3.3c1.8,7.4,6.1,24.1,8.2,18.4c1.6-4.3,3.5-12.4,4.8-18.4
		c0.9-4.1,1.5-7.2,1.5-7.2s0.8,3.2,1.9,7.2c2.3,8.1,5.9,19.2,7.1,13.1c0.5-2.6,0.7-7.5,0.8-13.1
		C257.3,1027.8,256.9,1015.6,256.7,1008.8z"/>
	<path class="st35" d="M209.4,1007.5c0.3,0.4,0.7,0.8,1.1,1c5.2,2.3,38.1,1.7,46.1,0.3c0.6-0.1,1.2-0.2,1.5-0.3
		c1.5-0.6,2.4-5.3,2.8-10.8c-12-0.1-41.4-0.8-52.3-4.3C207.9,998.8,207.6,1004.9,209.4,1007.5z"/>
	<g>
		<path class="st40" d="M428.5,790.7C428.5,790.8,428.5,790.8,428.5,790.7c0,0-0.5,0.7-5-4.8c-4.5-5.4-31.2-79.3-31.2-79.3l9.5-25.7
			l-33-17.9c0,0,2.1-51.3,9.2-89.8c-11.4,3.8-27.8,9.5-42.9,15.8l-49,19.5c-40.6,62.9-66.9,220.1-76.1,312.9
			c-0.3,2.7-0.5,5.3-0.8,7.8c-3.5,37.6-3.9,62.9-1.1,63.9c0.2,0.1,0.4,0.1,0.6,0.2c10.9,3.5,40.3,4.2,52.3,4.3c3.3,0,5.3,0,5.3,0
			c0.8-24.4,2.4-47.2,4.7-68.4c0.3-2.6,0.6-5.2,0.9-7.8c10.8-92.1,33-150.4,39.1-165.1c-0.8-0.3-1.3-1.2-1.1-2.1
			c0,0,0.4-1.6,1.1-4.4c0.7-2.9,1.7-6.9,2.8-11.9c2.3-10,5.2-23.4,7.7-37.5c2-11,4.3-22.5,6.5-32.4c3.4-15.7,6.2-27.7,6.2-27.7
			c0.2-1,1.2-1.6,2.2-1.4c1,0.2,1.6,1.2,1.3,2.2c0,0-0.5,2-1.3,5.4c-0.8,3.4-1.9,8.3-3.2,14c-2.5,11.5-5.7,26.5-8.2,40.6
			c-5.1,28.3-11.7,54.1-11.7,54.2c-0.2,0.8-0.9,1.3-1.7,1.3c1.6,61.2-2.4,118.1-3.7,164.9H351v7.8c4,0,7.3,3.3,7.3,7.3v50.5
			c3.1,0.9,6.3,1.8,9.5,2.6c17.1,4.5,34.9,8,48.9,8c5,0,8.9-14.2,11.7-30.8c3.9-23.1,5.7-50.9,5.7-50.9
			C433.6,873.1,436.4,855.1,428.5,790.7z"/>
		<path class="st40" d="M713.3,651.5l-1.2,2.2L664.9,624l0,0l-1.7-1c0,0-49,65.6-65.3,65.6c-20.5,0-36-86.2-88.3-99.7v0
			c-4.3-5.2-13.1-12-39.5-17.1L505,676.1l-18.8,26.6l14.8,17l-18.3,73.5c0,0,0-0.1,0-0.1c5.7,67.4,8.9,122.9,8.9,122.9l9.8,39.1
			c0,0,19.5,46.6,38.1,41.5c1.1-0.3,1.9-1.5,2.7-3.3l0,0c6.4-15.3,4.2-77.2,4.2-77.2c-1.5-52.3-5.3-120.4-10.2-180.5
			c13.4,17,35.1,42.1,50.8,47.7c24.2,8.7,45,6.8,60.5-14.3c41.2-55.7,68.4-115.9,68.4-115.9L713.3,651.5z M536,733.9
			c-1,0-1.8-0.8-1.9-1.8c0,0-0.2-4.5-0.5-11.8c-0.4-7.3-1-17.3-1.9-28.4c-1.8-22.1-4.7-48.2-9.4-64c-0.3-1,0.3-2,1.2-2.2
			c1-0.3,2,0.3,2.3,1.2c4.8,16.4,7.7,42.5,9.5,64.8c1.8,22.2,2.4,40.3,2.4,40.4C537.8,733,537,733.9,536,733.9z"/>
	</g>
	<path class="st13" d="M761.7,627.4c6.5-1.9-14.9-8.4-14.9-8.4s17.8,1.1,23.4,0.3c5.6-0.8-20.7-10.8-20.7-10.8s20.3,2,27.1,0.8
		c6.9-1.2-26.4-9.7-26.4-9.7s16,1.1,19.9-4.2c2.5-3.4-49.5-8.1-49.5-8.1s14.8-13.9,12.4-15.5c-2.4-1.6-23.1,8.2-34.2,16.3
		c-6.7,4.9-15.3,17.9-21.1,27.6l38.8,19.9C732,626.4,756.8,628.9,761.7,627.4z"/>
	<polygon class="st33" points="712.1,653.8 713.3,651.5 720.8,637.7 716.4,635.5 677.7,615.6 672.2,612.8 665,623.9 664.9,624 	"/>
	<path class="st32" d="M311.6,756.5c0.8,0,1.5-0.5,1.7-1.3c0,0,6.6-25.8,11.7-54.2c2.6-14.1,5.7-29.1,8.2-40.6
		c1.3-5.7,2.4-10.6,3.2-14c0.8-3.4,1.3-5.4,1.3-5.4c0.2-1-0.4-2-1.3-2.2c-1-0.2-2,0.4-2.2,1.4c0,0-2.8,12-6.2,27.7
		c-2.1,10-4.5,21.5-6.5,32.4c-2.6,14.1-5.5,27.6-7.7,37.5c-1.1,5-2.1,9.1-2.8,11.9c-0.7,2.8-1.1,4.4-1.1,4.4
		c-0.2,0.9,0.3,1.7,1.1,2.1c0.1,0,0.1,0.1,0.2,0.1C311.3,756.5,311.5,756.5,311.6,756.5z"/>
	<path class="st32" d="M533.6,720.3c0.4,7.3,0.5,11.8,0.5,11.8c0,1,0.9,1.8,1.9,1.8c1,0,1.8-0.9,1.8-1.9c0,0-0.6-18.2-2.4-40.4
		c-1.8-22.2-4.7-48.4-9.5-64.8c-0.3-1-1.3-1.5-2.3-1.2c-1,0.3-1.5,1.3-1.2,2.2c4.6,15.8,7.6,41.9,9.4,64
		C532.6,703,533.2,713,533.6,720.3z"/>
</g>
</svg>
