<?xml version="1.0" encoding="utf-8"?>
<!-- Generator: Adobe Illustrator 24.0.0, SVG Export Plug-In . SVG Version: 6.00 Build 0)  -->
<svg version="1.1" id="Layer_1" focusable="false" xmlns="http://www.w3.org/2000/svg" xmlns:xlink="http://www.w3.org/1999/xlink"
	 x="0px" y="0px" viewBox="0 0 723 304" style="enable-background:new 0 0 723 304;" xml:space="preserve">
<path d="M305.7,171.2c0.7-11.8,1.1-23.6,2.2-35.3c0.6-5.9,2-11.8,3.5-17.6c1-4,4.1-4.8,7.6-2.6c3.4,2.2,5.1,5.4,5.5,9.4
	c0.9,11.3,2.1,22.6,2.6,33.9c0.6,13.2,0.7,26.5,0.8,39.7c0.1,5.6-2.4,8.2-7.9,9c-6.6,1-10.6-1.3-12.2-7.8c-1.1-4.6-1.6-9.4-1.9-14.1
	c-0.3-4.9-0.1-9.8-0.1-14.7C305.9,171.2,305.8,171.2,305.7,171.2L305.7,171.2z M289.5,91.3c0.6-4.1,0.3-7.5-3.7-10.1
	c-1.7-1.2-2.3-4.6-2.7-7.2c-1.2-8.5,2.4-15.8,7.6-22c13.1-15.7,30.2-22.8,50.6-21.6c6.2,0.3,11.7,3.1,16.7,6.9
	c1.4,1.1,3.1,2,4.8,2.4c6.3,1.6,11.6,4.3,13.9,10.9c1.7,5.1,1.5,10.1-1.4,14.8c-8.5,13.9-20.9,23-35.7,29.2
	c-10.9,4.6-22.1,5.3-33.6,2c-0.6-0.2-1.7,0.1-2.2,0.5c-1.5,1.2-2.7,2.7-4.1,4c-3.6,3.6-7.6,2.7-9.2-2.2
	C289.8,96.5,289.8,93.9,289.5,91.3L289.5,91.3z M322.7,82c0.1,0.3,0.1,0.6,0.2,0.9c6.6-1.4,13.2-2.4,19.6-4.3
	c8.3-2.6,15.3-7.4,20.9-14.2c3.4-4.1,3.1-9.5-1.4-12.1c-2.4-1.4-6.2-1.2-9.2-0.7c-7.3,1.1-13.7,4.4-19.2,9.2
	c-6,5.2-11.6,11-17.3,16.7c-0.8,0.8-1,2.3-1.5,3.4c1.2,0.4,2.4,1,3.6,1.2C319.7,82.1,321.2,82,322.7,82L322.7,82z M319.9,49.3
	c-0.1-0.3-0.3-0.5-0.4-0.8c-8,1.7-15.5,4.1-20.6,11.5c-2.5,3.7-4.4,7.3-2.4,12.4C304.5,64.6,312.2,57,319.9,49.3L319.9,49.3z
	 M545.3,137.1c-2.2-1.1-4.6-2.5-7-3.7c-3.8-2-7.5-3.9-8.4-8.7c-0.3-1.9-0.1-2.9,1.7-3.3c2.9-0.7,5.7-1.5,8.7-1.9
	c8.6-1.1,17.1-2.5,25.7-3c9.9-0.6,19.8-0.8,29.7-0.1c2.8,0.2,5.7,3.9,7.8,6.6c1.8,2.5,4.2,6.6,3.3,8.4c-1.1,2.2-5.4,3.6-8.5,3.9
	c-8.9,0.9-17.8,1.2-26.7,1.5c-6.2,0.2-9.8,3.1-10.8,9.3c-0.6,3.6,0.6,5.4,4.3,5.5c3.2,0,6.4-0.5,9.7-0.5c3.4,0,6.7-0.1,9.9,0.6
	c6.2,1.4,8.4,9,3.8,13.3c-1.4,1.3-4.3,1.6-6.4,1.7c-7.7,0.2-15.3,0.2-23,0.1c-3.4,0-5.6,1.7-6.7,4.5c-1.7,4.6-3.1,9.4-5,15
	c2.9,0.1,5.1,0.5,7.2,0.1c11.1-2.1,22.1-5,33.7-4.2c3.8,0.3,4,3.3,5.1,5.7c1,2.2,1.2,4.6-1,6.4c-10.9,8.7-22.5,16.3-36.7,18.5
	c-7.2,1.1-14.3,0.3-20.9-2.9c-6.9-3.3-8.8-9.8-9.8-16.7c-1-7.7,2.2-14.3,5.4-20.9c1.9-3.9,2.4-7.7,0.4-11.8c-1.5-3,0.8-7.1,4.3-7.6
	c3.8-0.5,5.9-2.6,6.9-6.2C542.7,143.7,544,140.8,545.3,137.1L545.3,137.1z M454.9,120.1c9.7,4.1,14.8,11.8,19.9,19.6
	c7.3,11.3,14.6,22.7,21.8,34.1c3.7-1.5,4-4.3,3.7-7.1c-1.5-14.4-4.5-28.5-8.5-42.3c-1.5-5.2-2.7-10.5-3.7-15.8
	c-0.6-3.1-0.8-6.6,2.5-9c7.5,3.6,12.2,9.9,16.2,17.1c6.6,11.9,10.9,24.6,12.9,38.1c2,13.2,1.7,26.3-5.7,38.1
	c-1.7,2.7-4.1,5.2-6.6,7.2c-5,4-9.4,3.6-14-0.8c-7.8-7.3-13.8-15.8-18.8-25.1c-3.6-6.7-7.4-13.4-11.1-20c-0.5-0.9-1.1-1.8-2-3.1
	c-2.9,4.1-2.7,8.5-2.9,12.5c-0.3,7.1,0.3,14.3-0.3,21.4c-0.5,5.8-2.1,11.5-3.7,17.1c-0.7,2.5-1.9,5.6-5.2,5.6c-4,0-7.2-2.2-8.4-6
	c-1.3-3.8-2.1-8-2.4-12c-1-11.4,1.5-22.6,2.9-33.8c1.1-9.6,3.8-18.6,7.9-27.3C450.7,125.5,453,122.9,454.9,120.1L454.9,120.1z
	 M390,206.7c-13.6-0.1-26.4-3.1-37.5-11.3c-6.1-4.5-10.8-10.1-9.9-18.5c0.7-6.2,4.6-10.9,10.6-12.5c17.6-4.8,34.3-2.2,50.4,5.9
	c3.2,1.6,3.6,4.3,0.8,5.7c-4.3,2-8.8,4.3-13.4,4.8c-4.1,0.5-8.6-1-12.8-2.1c-5.9-1.6-11.7-4.1-17.7-5.3c-2.7-0.5-6.2,0.8-8.7,2.3
	c-3.4,2.1-2.7,5.5,1,6.9c8.7,3.3,17.8,4.2,27.1,3.2c11-1.1,21.6-3.6,32-6.9c0.3-0.1,0.6-0.2,0.9-0.3c2.5-0.8,5.3-2.2,5-5
	c-0.3-2.5-1.9-5.7-3.8-6.9c-4.4-2.6-9.3-5-14.3-5.9c-10.9-2-22-2.9-33.1-4.1c-6.2-0.7-12.5-0.8-18.6-1.5c-7.1-0.8-11-6.7-10.6-15
	c0.3-5.8,2.9-10.1,7.5-13.5c9.8-7.2,20.9-11,32.8-12.9c17.3-2.9,34.3-0.7,51.3,2.2c2.7,0.5,6.5,1.4,6.2,4.5
	c-0.3,2.9-2.7,5.8-4.6,8.5c-0.6,0.8-2.5,0.7-3.8,0.8c-12.3,1-24.6,1.9-36.9,2.7c-10.6,0.8-21.2,2-31.5,5c-0.9,0.3-1.6,1.1-2.4,1.7
	c0.8,0.8,1.4,2.2,2.3,2.3c4,0.9,8,1.6,12.1,2.2c11.3,1.5,22.7,2.7,33.9,4.3c5.2,0.7,10.5,2,15.7,3.1c3.9,0.9,6.7,3.8,8.5,7.1
	c5.7,10.8,7.6,21.9,0.8,33.2c-3.4,5.7-9,8.4-14.8,10.7C406.6,205.5,398.4,206.9,390,206.7L390,206.7z M639.8,213.4
	c-6.4,0-6.3,0.1-8.6,6.1c-7.5,19.5-12.7,39.5-16.4,59.9c-0.6,2.9-0.9,5.9-1.5,8.9c-0.6,3.4-2.2,4.2-5.3,2.9
	c-9-3.7-12.7-11.2-14.1-20.2c-2.1-13.6,0.9-26.8,5.1-39.7c3.7-11.3,8-22.5,12.1-33.7c0.3-1.1,0.7-2.5,0.3-3.4
	c-5.5-10.7-5.2-21.9-2.5-33.1c4.7-19.3,15.7-34.8,30.4-47.8c0.8-0.7,2.2-1.1,3.2-0.8c0.5,0.1,1,1.8,1,2.8c-0.3,8.3-4.4,15.2-8,22.3
	c-4,7.9-7.9,15.8-11.5,23.9c-1,2.3-1,5.2-1.2,7.8c-0.1,0.9,0.6,2,1,2.9c0.8-0.5,1.7-0.8,2.3-1.4c7.2-8.3,14.3-16.7,21.6-24.9
	c8.6-9.7,18.1-18.3,30.3-23.3c4.2-1.7,7.7-1.2,11.3,1.1c6.3,4,8.8,10.4,10.2,17.2c3.3,15.8,1.4,31.1-8.6,44.1
	C677.9,201.6,661.3,212.2,639.8,213.4L639.8,213.4z M648,186.2c0.3,0.3,0.6,0.6,0.9,0.9c1.5-0.1,3.2,0.2,4.6-0.3
	c10.3-3.5,20.4-7.3,27.1-16.7c4.9-6.9,7.6-14.3,6.9-22.7c-0.2-2.2-2.4-4.3-3.6-6.4c-1.5,0.8-3.3,1.5-4.3,2.7
	c-7.3,8.3-14.7,16.5-21.3,25.3C654.2,174.2,651.4,180.4,648,186.2L648,186.2z M79.4,8.2c5.1,0.4,10.2,0.9,15.3,1.3
	c18,1.4,35.6,4.8,53,9.7c21.4,6,41.8,14.5,61.2,25.3c13.6,7.6,26.3,16.3,38.3,26.2c11,9,20.9,19.2,29.2,30.7
	c11.3,15.5,19.2,32.5,18.5,52.3c-0.3,11.5-5.2,21.6-12.1,30.4c-12,15.3-27.8,25.2-46,31.3c-13.4,4.5-27.1,6.9-41.2,6.6
	c-10.8-0.2-21.8-0.7-32.6-1.5c-4.1-0.3-8.3-1.5-12.4-2.4c-2-0.4-2.9,0-3.8,2c-1.2,2.7-2.7,5.4-4.6,7.5c-5.4,5.7-14.6,3.9-17.3-3.6
	c-1.3-3.7-2-7.8-2.6-11.7c-0.9-5.1-3.6-8.4-8.5-10.5c-21.1-9.3-38.9-22.9-52-42.1c-1.3-1.8-2.3-3.8-3.4-5.7
	c-3.3-6.1-1.8-12.3,3.7-16.4c10.9-8.1,23.1-13.4,36.2-16.8c7.5-2,15-3.7,22.6-5.2c2.4-0.5,2.4-2.1,2.6-3.9c1-10.3,2.1-20.6,3.4-30.8
	c0.4-3.4,1.5-6.7,2.6-9.9c1.2-3.9,4-4.5,7-2c5.6,4.5,7.3,11,8.3,17.6c1,7.3,1.8,14.8,2.7,22.1c0.3,2.7,1.2,4.4,4.5,4.5
	c5.2,0.1,10.4,0.7,15.6,1.1c16.7,1.2,33,3.9,48.1,11.7c8,4.1,13.2,10,14.8,19.2c1.5,9.3-5.7,18.8-15.7,19.9c-3.6,0.3-7.3,0.1-11-0.1
	c-1.1-0.1-2.5-1.1-2.9-2c-0.3-0.6,0.8-2.2,1.6-2.9c1.9-1.7,4-3.2,6-4.7c5-3.6,5-7.1-0.8-9.2c-6.9-2.5-14.1-4.5-21.4-5.9
	c-11.3-2.1-22.8-3.6-34.3-5c-4.9-0.6-5.5,0.2-5.6,5.3c-0.2,9.4-0.8,18.8-0.6,28.1c0.2,9.2,1.2,18.4,1.9,27.6
	c0.1,2.5,1.7,3.6,3.9,3.8c15.6,2.3,31.1,3.4,46.9,1.5c11.2-1.3,22.2-3.4,32.6-7.7c10.6-4.4,21.3-9.1,28.6-18.5
	c11.8-15.2,11.8-31.7,4.5-48.7c-8.6-19.8-22.9-35.1-40.3-47.3c-11.8-8.2-24.1-15.8-36.8-22.5c-15.4-8.3-31.6-15-48.5-19.7
	c-9.3-2.5-18.5-5.4-28-6.9c-12.7-2.1-25.5-3.4-38.3-4.4c-9-0.7-18.1-0.6-27.1,0c-5.7,0.3-11.3,2.1-16.9,3.4c-0.9,0.2-1.6,1-2.9,1.9
	c1.2,0.6,1.9,1.2,2.6,1.4c2.1,0.6,4.3,1,6.4,1.9c1.2,0.6,2,1.9,3.1,2.9c-1.2,1.1-2.4,3-3.6,2.9c-5.2-0.3-10.6-1.1-15.7-2.1
	c-1.2-0.2-2-2.5-2.9-3.7c0-1.1,0-2.2,0-3.4c2.1-3.3,3.6-7.2,6.4-9.7c7.6-6.8,17.1-9.5,26.9-11c5.8-0.8,11.7-1.4,17.5-2
	C70.4,8.3,74.9,8.3,79.4,8.2L79.4,8.2z M120.1,188.8c0.7-7.8,1.5-14.2,1.8-20.6c0.3-9.6,0.3-19.2,0.3-28.8c0-2.2-1.2-3-3.4-2.9
	c-5.5,0.4-11.1,0.4-16.7,0.9c-11.5,0.9-22.7,3.4-33.7,7.2c-4.1,1.5-7.6,5.9-3.1,10.7c2.8,3,5.5,6.2,8.5,8.8
	c8.7,7.6,18.8,13.4,29.2,18.2C108.4,184.9,114,186.6,120.1,188.8L120.1,188.8z"/>
</svg>
