<?xml version="1.0" encoding="utf-8"?>
<!-- Generator: Adobe Illustrator 24.0.0, SVG Export Plug-In . SVG Version: 6.00 Build 0)  -->
<svg version="1.1" id="Layer_1" xmlns="http://www.w3.org/2000/svg" xmlns:xlink="http://www.w3.org/1999/xlink" x="0px" y="0px"
	 viewBox="0 0 800 167.9" style="enable-background:new 0 0 800 167.9;" xml:space="preserve">
<style type="text/css">
	.st0{fill:#004F9D;}
</style>
<title>facebook</title>
<g id="_Group_">
	<path id="_Path_" class="st0" d="M62.7,32c-9.4,0-12.2,4.1-12.2,13.3v15.2h25.1l-2.4,24.8H50.5v74.9H20.3V85.2H0V60.7h20.3V45.8
		c0-25.1,10.1-38.3,38.1-38.3c5.8,0,11.8,0.4,17.6,1.1V32"/>
	<path id="_Compound_Path_" class="st0" d="M77.7,107.2c0-27.8,13.1-48.8,40.9-48.8c15,0,24.2,7.7,28.7,17.4V60.7h28.9v99.6h-29.1
		v-15c-4.1,9.6-13.7,17.1-28.7,17.1c-27.6,0-40.9-20.8-40.9-48.8 M107.9,113.9c0,14.8,5.4,24.8,19.5,24.8c12.4,0,18.6-9,18.6-23.3
		v-10.1c0-14.3-6.4-23.3-18.6-23.3c-14.1,0-19.5,9.8-19.5,24.8C107.9,106.8,107.9,113.9,107.9,113.9z"/>
	<path id="_Path_2" class="st0" d="M238.8,58.4c11.6,0,22.9,2.4,28.9,6.8L261,86.6c-6.2-3-13.1-4.5-20.1-4.5
		c-16.3,0-23.5,9.4-23.5,25.5v5.8c0,16.1,7.1,25.5,23.5,25.5c6.9,0,13.9-1.7,20.1-4.7l6.8,21.4c-6,4.1-17.1,6.8-28.9,6.8
		c-35.5,0-51.4-18.9-51.4-49.5v-4.7C187.4,77.5,203.4,58.4,238.8,58.4"/>
	<path id="_Compound_Path_2" class="st0" d="M271.7,114.1v-8.8c0-28.3,16.1-46.9,49-46.9c31,0,44.7,18.8,44.7,46.5v15.9h-63.4
		c0.6,13.7,6.8,19.7,23.5,19.7c10.9,0,21.8-2.1,32.1-6l5.4,20.6c-7.9,4.1-24.2,7.3-38.6,7.3C285.9,162.3,271.7,143.4,271.7,114.1
		 M301.9,101h36.4v-2.4c0-10.9-4.3-19.5-17.6-19.5C307.1,79,301.9,87.7,301.9,101"/>
	<path id="_Compound_Path_3" class="st0" d="M477.1,113.6c0,27.8-13.3,48.8-41.1,48.8c-15,0-25.5-7.5-29.6-17.1v15h-28.5V10.6
		l30.2-2.6v66.6c4.3-8.8,14.1-15.9,28.1-15.9c27.6,0,41.1,20.8,41.1,48.8 M446.9,106.6c0-14.1-5.4-24.6-19.9-24.6
		c-12.4,0-18.9,8.8-18.9,23.1v10.5c0,14.3,6.8,23.1,18.9,23.1c14.4,0,19.9-10.5,19.9-24.6C446.9,114.1,446.9,106.6,446.9,106.6z"/>
	<path id="_Compound_Path_4" class="st0" d="M487.1,112.8v-5.1c0-28.7,16.3-49.3,49.5-49.3s49.5,20.6,49.5,49.3v5.1
		c0,28.7-16.3,49.3-49.5,49.3S487.1,141.7,487.1,112.8 M556.1,105.7c0-13.1-5.4-23.6-19.5-23.6s-19.5,10.5-19.5,23.6v9.4
		c0,13.1,5.4,23.6,19.5,23.6s19.5-10.5,19.5-23.6V105.7z"/>
	<path id="_Compound_Path_5" class="st0" d="M596.4,112.8v-5.1c0-28.7,16.3-49.3,49.5-49.3c33.2,0,49.5,20.6,49.5,49.3v5.1
		c0,28.7-16.3,49.3-49.5,49.3C612.8,162.2,596.4,141.7,596.4,112.8 M665.5,105.7C665.5,92.6,660,82,646,82s-19.5,10.5-19.5,23.6v9.4
		c0,13.1,5.4,23.6,19.5,23.6s19.5-10.5,19.5-23.6V105.7z"/>
	<path id="_Path_3" class="st0" d="M737,108.1l29.8-47.7h31.9l-31.1,49.3l32.5,50.5h-32.1l-31-48.8v48.8h-30V10.6l30-2.8"/>
</g>
</svg>
