<?xml version="1.0" encoding="utf-8"?>
<!-- Generator: Adobe Illustrator 24.0.0, SVG Export Plug-In . SVG Version: 6.00 Build 0)  -->
<svg version="1.1" id="Layer_1" focusable="false" xmlns="http://www.w3.org/2000/svg" xmlns:xlink="http://www.w3.org/1999/xlink"
	 x="0px" y="0px" viewBox="0 0 744 175" style="enable-background:new 0 0 744 175;" xml:space="preserve">
<path d="M394.5,159c-7.9-6.2-14.4-13.4-37.9-41.2c-9.9-11.7-19-22.5-20.3-23.8c-2.2-2.4-2.5-2.2-8.3,6c-7.2,10.2-22.8,36-22.2,36.7
	c0.2,0,5.5,1.3,11.6,2.4c12.2,2.1,13,2.6,14.3,8l0.9,3.7h-34.2h-34.2l1.4-4.6c1.2-4,2.1-4.7,6.9-5.5c3-0.6,6.9-2.2,8.7-3.8
	c4.4-3.9,20.1-22.7,34.2-40.7l11.8-15.1L314.4,64c-7.1-9.4-17.1-22-22.2-28c-8.7-10.3-9.7-11-15.7-11.8c-7.9-1.1-9.1-1.8-10.9-6.4
	l-1.4-3.7h34.2h34.2l-0.9,3.7c-1.3,5.3-1.3,5.3-7.2,6.2c-3,0.6-5.4,1.2-5.4,1.6c0,0.6,5.2,8.3,11.6,17.5
	c11.1,16.2,11.6,16.7,13.9,14.3c3-3.1,21.4-30.1,21.4-31.3c0-0.6-3.3-1.4-7.3-1.9c-7.5-0.9-9.2-2-10.7-7.1l-0.9-3h33.6
	c35.5,0,34.5,0,32.8,6.2c-0.6,2.4-2.4,3.1-11,4.5c-5.6,0.9-11.6,2.5-13.2,3.5c-2.9,1.9-36.6,41.2-36.6,42.8
	c0,0.6,13.7,21.1,30.5,45.9c16.8,24.8,30.7,45.6,30.9,46.1c0.2,0.6-2.6,1-6.2,1c-5.7,0-7.6-0.7-13.2-5.1L394.5,159z M687.1,142.7
	c-14.1-11.7-29-27.2-37.7-39.2c-4.8-6.6-6.2-7.7-9.9-7.7l-4.4,0v20.6v20.6l9.7,1.5c13.7,2.2,14,2.3,15.6,7c0.8,2.3,1.5,4.4,1.5,4.6
	c0,0.6-16,0.6-35.5,0.6c-21.1,0-35.5-0.6-35.5-1.3c0-4.8,3-8,9.3-10.1l6.8-2.2V82.5c0-51-0.2-54.8-2.3-55.4c-1.3-0.6-6.7-1.4-12-2.2
	c-9-1.4-9.7-1.8-11.1-5.7c-0.8-2.3-1.4-4.3-1.4-4.6c0,0,16.6-0.6,36.9-0.6c39.8,0,50.5,1.2,64.3,7.3c8.4,3.7,17.2,12.3,19.6,19.2
	c0.9,2.7,1.7,9.2,1.7,14.3c0,16.5-7.7,27.2-23.7,33l-7.7,2.8l7.6,10.9c11.2,16.1,22.7,31.2,30.8,40.5l7.1,8.2l-5,0.9
	c-2.8,0.6-6.5,1.1-8.4,1.5C700.7,153.4,697.6,151.5,687.1,142.7L687.1,142.7z M660,79c2.7-1.3,6.5-4.7,8.5-7.7
	c3.1-4.6,3.6-6.8,3.6-15.6c0-8.7-0.5-11-3.3-15.2c-4.3-6.4-14.3-11.3-25.1-12.4l-8.4-0.9V55v27.8l9.9-0.7
	C650.6,81.5,657.3,80.3,660,79L660,79z M32.7,146.1c1.4-4.5,1.7-4.7,10.9-6.2c5.2-0.9,10.9-2.1,12.5-2.7l3-1.1V81.9
	c0-44.1-0.3-54.3-1.8-54.8c-1-0.6-5.4-1.1-9.7-1.7c-11-1.4-13.4-2.5-15-7.2l-1.4-4.1h38.6c58.7,0,73.4,3.7,82,20.5
	c6.1,11.9,0.3,31.5-12.6,43.2c-11.3,10.2-30.1,17.9-43.5,18c-4.1,0-4.4-0.6-4.4-4.5c0-4.3,0.3-4.6,6.2-6.1c20-5,30-19.2,25.9-36.4
	c-3-12.4-12.6-19.1-30.3-20.9l-7.1-0.7v55v55l9,1.5c14.8,2.5,16.4,2.9,16.4,4.6c0,0.9,0.4,2.9,0.8,4.6l0.8,3H72.1H31.3L32.7,146.1
	L32.7,146.1z M169,149.5c0-0.7,0.6-2.7,1.2-4.5c1.1-2.9,2.8-3.5,13.4-5.6l12.2-2.3l-0.3-55l-0.3-55l-11.7-2.2
	c-6.4-1.2-12-2.5-12.3-2.8c-0.3-0.6-1-2.2-1.5-4.2l-0.9-3.7h40.9h40.9l-1.4,4.5c-1.4,4.4-1.7,4.6-11.6,6.1
	c-5.6,0.9-11.3,1.9-12.5,2.3c-2.2,0.6-2.3,4.4-2.3,55.4v54.7l11.3,1.7c6.2,0.9,12,2.1,12.8,2.6c0.8,0.6,2,2.8,2.7,5.1l1.2,4.3h-40.8
	C185.4,150.8,169,150.2,169,149.5L169,149.5z M415.5,150.3c0,0,0.6-2.3,1.4-4.6c1.3-3.7,2.2-4.2,11-5.9l9.6-1.8l5.5-14.1
	c7.8-19.8,34.9-91.1,36-94.6c0.8-2.7,0.2-3-8.4-4.6c-11.2-2-11.7-2.3-12.9-7l-0.9-3.7h40.9h40.9l-1.4,4.5c-1.3,4.3-1.8,4.6-9.3,5.4
	c-4.3,0.6-7.9,1.2-7.9,1.6c0,3.4,31.8,87.8,38.9,103.1l5,10.9l6.3,0.9c5,0.7,6.5,1.6,7.5,4.3c0.7,1.8,1.3,3.9,1.3,4.6
	c0,0.7-13.7,1.3-33.7,1.3h-33.7l0.9-4.2c0.5-2.3,1.1-4.5,1.3-4.7c0.3,0,4.2-1.2,8.8-2c10-1.8,9.9,0,0.6-26.2l-6.4-17.7h-21.2h-21.2
	l-1.3,3.4c-1.8,4.7-9.3,34.8-9.3,37.2c0,1.4,2.1,2.3,7.2,2.9c8.9,1.1,10,1.8,11.5,7.1l1.2,4.3h-34.1c-18.7,0-34.1,0-34.1-0.6
	L415.5,150.3z M510.5,81.4c-0.2-3.9-15.8-46-16.6-44.7c-0.8,1.4-15.5,44.2-15.5,45.3c0,0,7.2,0.6,16.1,0.6c8.8,0,16.1-0.6,16-1V81.4
	z"/>
</svg>
